<svg xmlns="http://www.w3.org/2000/svg" xmlns:xlink="http://www.w3.org/1999/xlink" width="466.344" height="265.966" viewBox="0 0 466.344 265.966"><defs><style>.a,.aa{fill:#6c63ff;}.a,.f,.h,.j{opacity:0.1;}.b{fill:url(#a);}.c{fill:#be6f72;}.d{fill:#3f3d56;}.e{fill:#65617d;}.g{fill:#e3e8f4;}.i{fill:url(#b);}.j{fill:#fff;}.k{fill:#c7e3ff;}.l{fill:#e5f2ff;}.m{fill:#e3222e;}.n{fill:#f33;}.o{fill:#ff8053;}.p{fill:#ffa061;}.q{fill:#8ebaff;}.r{fill:#a3d1ff;}.s{fill:#ffe7ad;}.t{fill:#fff5de;}.u{fill:#373737;}.v{fill:url(#f);}.w{fill:#f86d70;}.x{fill:#fbbebe;}.y{fill:#444053;}.z{fill:#e8e8f0;}</style><linearGradient id="a" x1="0.5" y1="1" x2="0.5" gradientUnits="objectBoundingBox"><stop offset="0" stop-color="gray" stop-opacity="0.251"/><stop offset="0.54" stop-color="gray" stop-opacity="0.122"/><stop offset="1" stop-color="gray" stop-opacity="0.102"/></linearGradient><linearGradient id="b" x1="1" y1="1" x2="0" gradientUnits="objectBoundingBox"><stop offset="0" stop-color="#6678ff"/><stop offset="1" stop-color="#d600ff"/></linearGradient><linearGradient id="f" x1="0" y1="0.5" x2="1" y2="0.5" xlink:href="#a"/></defs><g transform="translate(0.02 0)"><path class="a" d="M308.967,336.543c9.009-.514,20.186-6.624,28.877-9.327q15.429-4.786,30.98-9.208,54.138-15.4,109.438-26.252,5.161-1.015,10.338-1.981a73.175,73.175,0,0,0-24.156-29.011,74.235,74.235,0,0,0,.408-7.655c0-40.413-32.3-73.175-72.152-73.175a71,71,0,0,0-35.016,9.192c-28.208-18.556-65.026-29.786-105.309-29.786-57.24,0-107.489,22.677-135.963,56.824L250.23,238.772l82.073,13.86c-93.565,2.792-187.419,5.568-280.714-.986a73.953,73.953,0,0,0-10.647,93.349h0c0,1.463.061,2.915.171,4.354,2.377.681,4.672,1.341,6.73,1.773q49.573,10.472,99.781,17.528c-24.666,15.209-54.7,17.361-83.158,23.8,13.778,11.373,32.489,18.344,53.107,18.344h307c33.243,0,60.187-23.141,60.187-51.692h0a73.451,73.451,0,0,0,9.783-26.859C433.03,338.182,370.752,333.025,308.967,336.543Z" transform="translate(-28.639 -144.828)"/><path class="a" d="M494.323,318.958a73.374,73.374,0,0,0-30.98-60.094,75.278,75.278,0,0,0,.408-7.651c0-40.413-32.313-73.162-72.152-73.162a71.043,71.043,0,0,0-35.02,9.188c-28.208-18.564-65.03-29.8-105.313-29.8-65.523,0-121.924,29.737-146.936,72.38-1.39-.082-2.788-.126-4.2-.126-39.842,0-72.152,32.762-72.152,73.175A73.59,73.59,0,0,0,39.85,343.09h0c0,36.361,34.319,65.837,76.636,65.837H423.492c33.239,0,60.183-23.146,60.183-51.7h0a73.586,73.586,0,0,0,10.647-38.273Z" transform="translate(-28 -143.702)"/><path class="b" d="M811.508,314.89a4.54,4.54,0,0,0-1.989-.872c-.762-.175-1.541-.285-2.315-.408l-10.036-1.447a11.821,11.821,0,0,0-3.074-.163,3.9,3.9,0,0,0-2.674,1.386,2.083,2.083,0,0,0-.465,1.3,3.441,3.441,0,0,0,.457,1.353,4.527,4.527,0,0,1,.249.6,13.7,13.7,0,0,0,.359,1.366,1.159,1.159,0,0,0,.171.269.453.453,0,0,1,0,.069c-.11.563.245,1.15.086,1.692-.139.465-.591.746-.876,1.133a1.7,1.7,0,0,0-.041,1.879c.306.473.86.795,1.019,1.337.208.713-.355,1.4-.856,1.953a30.251,30.251,0,0,0-2.552,3.216,1.993,1.993,0,0,0-.408.958c-.045.709.636,1.333.518,2.038-.094.554-.636.893-1.1,1.223a6.874,6.874,0,0,0-3.261,5.051,17.692,17.692,0,0,0-3.946-8.968,6.413,6.413,0,0,1-1.463-2.3c-.09-.355-.106-.734-.228-1.076-.408-1.08-1.7-1.545-2.271-2.54-.408-.7-.408-1.6-.913-2.218s-1.3-.754-1.737-1.349a8.624,8.624,0,0,1-.554-1.255,2.744,2.744,0,0,0-.754-.9,2.191,2.191,0,0,0-.187-.134.648.648,0,0,0,.216-.481c0-.477-.473-.791-.885-1.027-.53-.3-1.048-.628-1.553-.966a3.632,3.632,0,0,0,1.39-1.137,3.738,3.738,0,0,0,.53-2.446,3.086,3.086,0,0,0-.73-1.871c-.257-.273-.579-.469-.848-.726a5.949,5.949,0,0,1-1.223-2.617,5.325,5.325,0,0,0-2.1-3.155c-.538-.314-1.166-.461-1.692-.791a1.477,1.477,0,0,1-.783-1.553c.122-.408.5-.689.758-1.035a2.063,2.063,0,0,0-.518-2.854c-.3-.192-.673-.359-.734-.709a1.3,1.3,0,0,1-.946-1,3.866,3.866,0,0,1,0-1.451q.159-1.137.314-2.266a1.475,1.475,0,0,0,1.133,0,9.974,9.974,0,0,0,1.223,1.6,15.969,15.969,0,0,1,2.854,4.953,2.982,2.982,0,0,0,1.072,1.728c.208.118.444.179.648.306a2.421,2.421,0,0,1,.636.652c.489.648.978,1.292,1.463,1.94l.025.1a.57.57,0,0,0,.065.163.542.542,0,0,0,.351.179c1.5.346,3.184.664,4.484-.155,1.174-.734,1.688-2.185,2.682-3.155.705-.689,1.7-1.223,1.9-2.193a7.216,7.216,0,0,1-.7-.257c.2-.2.408-.44.685-.709a8.639,8.639,0,0,0,1.084-1.292,8.328,8.328,0,0,0,.815-1.826q1.178-3.359,2.364-6.722c.375-1.06.75-2.128,1.223-3.159.489-1.117,1.068-2.189,1.6-3.286a43.613,43.613,0,0,0,3.171-8.927,3.261,3.261,0,0,0,.126-1.3,3.429,3.429,0,0,0-1.158-1.761,8.5,8.5,0,0,0-1.737-1.439,2.854,2.854,0,0,0-2.177-.351,3.145,3.145,0,0,0-1.94,2.446,25.667,25.667,0,0,0-.253,3.261c-.147,1.569-.685,3.086-.815,4.659-.069.909,0,1.83-.11,2.739a9.995,9.995,0,0,1-1.223,3.375,21.848,21.848,0,0,1-5.271,6.5c-.249.208-.505.408-.75.632a3.9,3.9,0,0,1,.053-.53,3.193,3.193,0,0,0-.518.183,1.553,1.553,0,0,0-.061-.611c-.326-.974-1.777-1.223-2.038-2.213a4.534,4.534,0,0,1-.069-.742,18.866,18.866,0,0,0-.88-2.446,10.444,10.444,0,0,0-.408-2.352,6.577,6.577,0,0,0-1.084-1.223,4.8,4.8,0,0,1-1.031-1.944c-.053-.2-.1-.408-.159-.607a2.78,2.78,0,0,0-.147-1.341c-.371-.921-1.329-1.512-1.675-2.446-.269-.726-.151-1.631-.66-2.193a2.385,2.385,0,0,0-.966-.583,21.494,21.494,0,0,0-5.817-1.374,4.953,4.953,0,0,1-3.147-.946c-.933-.913-.978-2.556-2.071-3.261a2.474,2.474,0,0,0-3.07.713,3.89,3.89,0,0,0-.31.408,4.363,4.363,0,0,1-.086-1.671c0-.139.029-.281.041-.408a8.153,8.153,0,0,0,4.419-3.489v.024l.049.126c.118.3.306.583.583.616h0a.815.815,0,0,0,.505-.183,4.184,4.184,0,0,0,.677-.587q.155-.171.293-.355a4.62,4.62,0,0,0,.481-.815,4.848,4.848,0,0,0,.408-1.366c.073-.473.082-.958.163-1.431a8.809,8.809,0,0,1,.3-1.08c.041-.118.082-.236.118-.355s.09-.277.13-.408a9.447,9.447,0,0,0,.408-2.584v-.44a4.3,4.3,0,0,0-1.37-3.037c-.7-.575-1.631-.815-2.144-1.594a7.583,7.583,0,0,1-.6-1.806,4.076,4.076,0,0,0-3.2-2.882,3.567,3.567,0,0,0-2.535.7h0l-.057.045h0a4.077,4.077,0,0,0-1.011,1.125,3.362,3.362,0,0,1-1.435-.815c-.408-.379-.722-.856-1.133-1.223a2.915,2.915,0,0,0-2.9-.611,3.469,3.469,0,0,0-2.075,2.377,8.285,8.285,0,0,1-.652,2.507c-.363.546-.958.815-1.374,1.313a2.47,2.47,0,0,0-.514,1.088h0a2.951,2.951,0,0,0-.069.681h0a1.239,1.239,0,0,0,.024.3v.049a2.167,2.167,0,0,0,.069.33h0a2.852,2.852,0,0,0,.607,1.117,2.682,2.682,0,0,0,.982.709,3.979,3.979,0,0,0,.473.151l.485.11.171.041a8.129,8.129,0,0,0-.228,7.178,3.272,3.272,0,0,1-.041.342,28.186,28.186,0,0,0,.212,4.806,2.579,2.579,0,0,1-.3,1.83,3.469,3.469,0,0,1-.591.526c.22-.285.444-.567.673-.848a2.907,2.907,0,0,0-2.3-.6,10.652,10.652,0,0,0-4.484,1.37c-.913.526-1.851,1.223-2.894,1.1-.616-.069-1.223-.408-1.822-.245a3.7,3.7,0,0,0-.933.554,1.263,1.263,0,0,1-.766.236,16.544,16.544,0,0,0-2.4-1.961,18.883,18.883,0,0,1-2.385-2.556c-1.321-1.594-2.637-3.192-3.934-4.8a9.247,9.247,0,0,1-2.405-4.549,4.433,4.433,0,0,1-.029-.518,13.165,13.165,0,0,1,.31-2.446,1.223,1.223,0,0,0,0-.591c-.122-.408-.591-.558-.995-.648h0c.053-.314.09-.636.11-.942.228-3.506-.02-7.068.721-10.5a7.138,7.138,0,0,1,1.692-3.616c1.488-1.5,3.979-1.867,5.12-3.648a4.161,4.161,0,0,0-.624-4.892,6.174,6.174,0,0,0-4.8-1.777,2.478,2.478,0,0,0-1.4.375,2.971,2.971,0,0,0-.848,1.288l-1.749,4.252a25.705,25.705,0,0,0-1.28,3.416c-.489,1.785-.6,3.669-.987,5.47,0,1.386-.893,3.114-1.382,4.39-.546,1.435-1.137,2.853-1.63,4.317-.122.367-.55,1.455-.815,2.446a1.493,1.493,0,0,0-.277.208,7.375,7.375,0,0,0-.579.86c-.371.489-.974.75-1.382,1.223s-.493,1.341.073,1.578a1.663,1.663,0,0,0,.355.077,1.157,1.157,0,0,1,.982,1.614c-.09.636-.408,1.223-.461,1.859a5.016,5.016,0,0,0,1.186,3.118,26.884,26.884,0,0,0,2.177,2.931c.575.644,1.223,1.223,1.8,1.842,2.205,2.266,3.958,4.916,5.939,7.378a16.358,16.358,0,0,0,2.417,2.535,18.2,18.2,0,0,0,1.83,1.26l3.408,2.16a3.734,3.734,0,0,0,1.288.607,1.714,1.714,0,0,0,.457,0c.02.1.037.2.061.3a17.944,17.944,0,0,1,.913,3.127c.065,1.088-.033,2.2.045,3.3.073,1.015.3,2.038.355,3.037a19.515,19.515,0,0,1-.815,5.707c-.689,2.756-1.1,5.568-2.446,8.067a4.743,4.743,0,0,0-.815,2.177,1.129,1.129,0,0,0,.024.285h0l-.611.346c-.179.1-.359.2-.522.31a4.363,4.363,0,0,0-1.92,1.936c-.257.705-.139,1.512-.448,2.2a.966.966,0,0,1-.049.09c-.326.636-.974,1.109-1.121,1.806h0c-.11.534.1,1.1,0,1.631v.02a5.911,5.911,0,0,0-.22.815.975.975,0,0,0,.024.269,1.553,1.553,0,0,0,.489.795,3.259,3.259,0,0,0,.477.379q.261.171.538.318l.106.057c.155.082.31.159.469.232l.106.045c.183.082.371.155.558.22l.13.041c.147.049.3.094.448.13l.1.033.094.02.408.086.151.029q.269.045.55.073h.163c.139,0,.273.02.408.024h.746a4.566,4.566,0,0,0,.575-.053h.061c.171-.024.342-.053.514-.09l.13-.029c.159-.037.318-.073.477-.122l.086-.024c.192-.057.383-.118.571-.192a14.977,14.977,0,0,0,1.883-.933c.408-.224.815-.452,1.223-.66a9.494,9.494,0,0,1,.929-.408,5.247,5.247,0,0,1,2.446-.408,9.576,9.576,0,0,1,1.223.249v.135q.5,2.935.982,5.87a11.949,11.949,0,0,1,1.688-1.015,3.752,3.752,0,0,0-.216.917,3.635,3.635,0,0,0,0,.73,1.584,1.584,0,0,1-.114,1.121c-.143.188-.408.293-.485.505a1.725,1.725,0,0,0-.041.664,1.06,1.06,0,0,1-.97.986,1.549,1.549,0,0,1-.615,1.818,2.153,2.153,0,0,0-.473.31,1.411,1.411,0,0,0-.273.616,10.892,10.892,0,0,1-3.192,5.246,10.265,10.265,0,0,0-1.578,1.541,7.015,7.015,0,0,0-.713,1.406q-1.631,3.987-3.31,7.977a17.7,17.7,0,0,0-1.419,4.6c-.489,4.394-4.4,8.12-3.669,12.482a6.114,6.114,0,0,0,1.272,2.98,7.5,7.5,0,0,0,3.261,2,59.372,59.372,0,0,0,9.759,2.564l5.185,1.064a22.67,22.67,0,0,0,3.09.489,20.219,20.219,0,0,1,3.754.285,11.651,11.651,0,0,0,2.254.6c.669.037,1.492-.106,1.887.44s.09,1.268.465,1.753c.6.77,2.075,0,2.731.726a3.382,3.382,0,0,1,.408.9,1.63,1.63,0,0,0,.408.514,3.446,3.446,0,0,1,.049.7,12.022,12.022,0,0,1-.587,2.78q-.734,2.482-1.463,4.969a11,11,0,0,0-.408,1.794,4.307,4.307,0,0,0,0,.889,2.441,2.441,0,0,0,1.463,2.124,2.682,2.682,0,0,0,1.981-.245,8.757,8.757,0,0,0,1.631-1.1,11.133,11.133,0,0,0,2.352-2.421c2.038-3.049,1.378-7.174,2.809-10.546.95-2.25,2.8-4.076,3.416-6.449a2.58,2.58,0,0,0,.049-1.394,2.889,2.889,0,0,0-1.936-1.573h-.037a16.71,16.71,0,0,0-2.038-.583c-.171-.037-.346-.065-.522-.094a3.2,3.2,0,0,1-.9-1.174,2.73,2.73,0,0,0-.192-.705.734.734,0,0,0-.587-.326c-.408-.041-.954.106-1.4.073-.909-.065-1.512-.958-2.328-1.37a4.753,4.753,0,0,0-2.568-.249,2.376,2.376,0,0,1-.929-.057,3.5,3.5,0,0,1-.978-.673,4.1,4.1,0,0,0-3.591-.721,3.915,3.915,0,0,1-1.223.277c-.795-.045-1.357-.754-1.944-1.292-1.606-1.472-3.893-1.859-5.841-2.825a1.333,1.333,0,0,1-.7-.6c-.224-.554.281-1.109.738-1.488l3.351-2.784c3.669-3.049,8.255-5.344,9.958-9.816a5.678,5.678,0,0,1,.815-1.675,2.274,2.274,0,0,1,.452-.408,3.424,3.424,0,0,1,2.507-.489,8.467,8.467,0,0,1,2.951,1.288q2.189,1.325,4.26,2.853a37.685,37.685,0,0,1,3.893,3.2c2.14,2.038,3.922,4.455,5.915,6.653a19,19,0,0,0,7.04,5.3c2.768,1.052,6.115,1.007,8.491-.758,2.743-2.038,3.624-5.682,4.317-9.025,1.529-1.476,1.989-3.722,2.735-5.707.469-1.26,1.068-2.446,1.573-3.7.6-1.476,1.076-3,1.549-4.521a21.739,21.739,0,0,0,1.084-4.716c.2-2.54-.485-5.242.228-7.627a28.125,28.125,0,0,0,2.723-1.048,13.492,13.492,0,0,1,4.313-.371h.094a2.226,2.226,0,0,0,1.435-.338,2.285,2.285,0,0,0,.591-1.737C812.776,317.654,812.678,315.9,811.508,314.89Zm-59.062-69.535a3.028,3.028,0,0,1-1.031.073Z" transform="translate(-430.674 -184.467)"/><path class="c" d="M799.385,319.143a4.484,4.484,0,0,1-1.7.9l-2.89,1.035a10.768,10.768,0,0,1-4.863.925c-.925-.114-4.892-.7-5.491-1.419-.913-1.117,2.287-2.76,3.379-3.7a4.622,4.622,0,0,0,.685-.6,2.458,2.458,0,0,0,.3-1.822,28.128,28.128,0,0,1-.212-4.8,9.692,9.692,0,0,1,.163-1.137c.408-1.875,2.152-1.19,3.53-.693a27.6,27.6,0,0,1,4.79,2.075,3.437,3.437,0,0,1,1.182,1c.6.913.363,2.112.265,3.261a3.054,3.054,0,0,0,.477,2.4,6.172,6.172,0,0,1,.77.815A1.529,1.529,0,0,1,799.385,319.143Z" transform="translate(-476.007 -232.467)"/><path class="c" d="M717.542,242.908c.408-1.806.5-3.669.986-5.458a25.56,25.56,0,0,1,1.28-3.4l1.8-4.195a2.96,2.96,0,0,1,.848-1.284,2.511,2.511,0,0,1,1.4-.375,6.229,6.229,0,0,1,4.8,1.773,4.116,4.116,0,0,1,.624,4.863c-1.141,1.781-3.632,2.14-5.12,3.64a7.127,7.127,0,0,0-1.692,3.608c-.742,3.424-.493,6.975-.721,10.472-.073,1.088-.285,2.332-1.223,2.894a3.567,3.567,0,0,1-1.826.355l-2.674.045c-.448,0-2.075.281-2.372-.057-.522-.591.669-3.534.885-4.19.481-1.455,1.072-2.874,1.63-4.3C716.65,246.014,717.542,244.29,717.542,242.908Z" transform="translate(-434.089 -185.611)"/><path class="d" d="M838.968,573.118c-.616,2.356-2.466,4.19-3.416,6.437-1.431,3.363-.787,7.476-2.809,10.517a11.11,11.11,0,0,1-2.352,2.425,8.736,8.736,0,0,1-1.63,1.1,2.682,2.682,0,0,1-1.981.245,2.439,2.439,0,0,1-1.463-2.12,4.276,4.276,0,0,1,0-.885,10.957,10.957,0,0,1,.408-1.789q.734-2.474,1.463-4.957a11.994,11.994,0,0,0,.587-2.772c.053-1.027-.6-2.364-.322-3.322.126-.432.6-.815.815-1.178a6.818,6.818,0,0,0,.7-1.667,10.367,10.367,0,0,1,1.264-3.31,7.769,7.769,0,0,1,1.59-1.488,4.215,4.215,0,0,1,1.516-.852,3.714,3.714,0,0,1,1.631.077,16,16,0,0,1,2.038.579h.037a2.854,2.854,0,0,1,1.936,1.569A2.563,2.563,0,0,1,838.968,573.118Z" transform="translate(-500.3 -387.758)"/><path class="d" d="M933.6,445.049a2.259,2.259,0,0,1-.591,1.732,2.225,2.225,0,0,1-1.435.338h-.11a13.739,13.739,0,0,0-4.313.371,16.311,16.311,0,0,1-3.1,1.109c-1.5.171-2.919-.652-4.252-1.37a42.306,42.306,0,0,0-3.86-1.834c-.864-.355-2.629-.583-3.045-1.529a13.927,13.927,0,0,1-.359-1.362,4.518,4.518,0,0,0-.249-.6,3.445,3.445,0,0,1-.457-1.349,2.084,2.084,0,0,1,.465-1.3,3.909,3.909,0,0,1,2.67-1.374,11.822,11.822,0,0,1,3.074.163l10.036,1.443a23.507,23.507,0,0,1,2.315.408,4.541,4.541,0,0,1,1.989.872C933.565,441.759,933.663,443.508,933.6,445.049Z" transform="translate(-551.561 -309.803)"/><path class="e" d="M826.829,452.761c-1.223,2.58-.342,5.634-.563,8.487a21.635,21.635,0,0,1-1.084,4.7c-.473,1.516-.946,3.037-1.549,4.508-.505,1.223-1.1,2.446-1.573,3.693-.746,1.989-1.223,4.227-2.735,5.707-.693,3.334-1.573,6.979-4.317,9a9.035,9.035,0,0,1-8.491.758,19,19,0,0,1-7.04-5.3c-1.993-2.2-3.775-4.59-5.915-6.636a37.089,37.089,0,0,0-3.9-3.192q-2.071-1.5-4.26-2.829a8.532,8.532,0,0,0-2.951-1.284,3.424,3.424,0,0,0-2.507.489,2.277,2.277,0,0,0-.452.408,5.61,5.61,0,0,0-.815,1.671c-1.712,4.46-6.306,6.75-9.975,9.791l-3.351,2.776c-.457.379-.962.933-.738,1.484a1.333,1.333,0,0,0,.7.6c1.949.962,4.235,1.349,5.841,2.817.587.538,1.15,1.247,1.944,1.288a3.906,3.906,0,0,0,1.223-.273,4.113,4.113,0,0,1,3.591.717,3.491,3.491,0,0,0,.978.673,2.377,2.377,0,0,0,.929.057,4.962,4.962,0,0,1,2.568.249c.779.387,1.419,1.3,2.328,1.366.444.033.974-.114,1.4-.073a.734.734,0,0,1,.587.326,2.7,2.7,0,0,1,.192.7c.167.575.73.925,1.1,1.4a3.862,3.862,0,0,1,.587,2.629,11.218,11.218,0,0,1-3.571,7.509,4.419,4.419,0,0,1-2.2,1.223,2.038,2.038,0,0,1-2.177-.966,3.35,3.35,0,0,0-.408-.9c-.656-.721-2.128.045-2.731-.726-.375-.481-.106-1.251-.465-1.749s-1.223-.408-1.887-.436a11.96,11.96,0,0,1-2.254-.6,20.25,20.25,0,0,0-3.754-.285,22.663,22.663,0,0,1-3.09-.489L760.858,501a61.455,61.455,0,0,1-9.759-2.556,7.853,7.853,0,0,1-3.261-2,6.115,6.115,0,0,1-1.272-2.976c-.738-4.349,3.175-8.067,3.669-12.449a17.465,17.465,0,0,1,1.419-4.59q1.659-3.979,3.31-7.961a7.089,7.089,0,0,1,.693-1.41,10.237,10.237,0,0,1,1.578-1.537,10.856,10.856,0,0,0,3.192-5.234,1.411,1.411,0,0,1,.273-.616,2.291,2.291,0,0,1,.473-.306,1.549,1.549,0,0,0,.616-1.814,1.06,1.06,0,0,0,.97-.986,1.7,1.7,0,0,1,.041-.66c.1-.212.342-.318.485-.505a1.575,1.575,0,0,0,.114-1.117,3.644,3.644,0,0,1,0-.73,3.747,3.747,0,0,1,1.093-2.279c.974-.958,2.36-.709,3.705-.938a21.224,21.224,0,0,0,3.913-1.251,38.445,38.445,0,0,1,11.051-2.556,24.128,24.128,0,0,1,11.161,1.777,6.349,6.349,0,0,1,1.439.815,2.727,2.727,0,0,1,.754.9,8.389,8.389,0,0,0,.554,1.251c.436.6,1.26.787,1.736,1.349s.518,1.512.913,2.209c.567.995,1.879,1.455,2.271,2.536.122.342.139.717.228,1.072a6.132,6.132,0,0,0,1.463,2.291,17.614,17.614,0,0,1,3.946,8.968,6.821,6.821,0,0,1,3.261-5.038c.469-.306,1.011-.644,1.1-1.2.118-.7-.563-1.325-.518-2.038a2,2,0,0,1,.408-.954,30.165,30.165,0,0,1,2.552-3.208c.5-.55,1.064-1.223.856-1.949-.159-.542-.713-.86-1.019-1.333a1.7,1.7,0,0,1,.041-1.875c.285-.387.738-.669.876-1.129.159-.542-.2-1.129-.086-1.688a2.087,2.087,0,0,1,.84-1.088,5.135,5.135,0,0,1,5.238-1.3c1.908.265,4.048.673,5.124,2.271A3.867,3.867,0,0,1,826.829,452.761Z" transform="translate(-453.61 -314.906)"/><path class="f" d="M933.584,445.049a2.259,2.259,0,0,1-.591,1.732,2.226,2.226,0,0,1-1.435.338h-.11c.167-.848,1.2-1.333,1.378-2.193a1.94,1.94,0,0,0-.448-1.48,7.348,7.348,0,0,0-3.669-2.307,24.3,24.3,0,0,0-12.253-.917,12.338,12.338,0,0,0-3.22.991,10.5,10.5,0,0,0-.978.693,3.445,3.445,0,0,1-.456-1.349,2.083,2.083,0,0,1,.465-1.3,3.909,3.909,0,0,1,2.67-1.374,11.822,11.822,0,0,1,3.074.163l10.036,1.443c.774.11,1.553.22,2.315.408a4.54,4.54,0,0,1,1.989.872C933.547,441.759,933.645,443.508,933.584,445.049Z" transform="translate(-551.544 -309.803)"/><path class="f" d="M838.968,574.171c-.616,2.356-2.466,4.191-3.416,6.437-1.431,3.363-.787,7.476-2.809,10.517a11.111,11.111,0,0,1-2.352,2.425,8.735,8.735,0,0,1-1.63,1.1,2.682,2.682,0,0,1-1.981.245,2.44,2.44,0,0,1-1.463-2.12,4.276,4.276,0,0,1,0-.885l.024.065c.355.856.933,1.753,1.847,1.9a2.5,2.5,0,0,0,1.883-.664,11.643,11.643,0,0,0,2.874-4.243,17.652,17.652,0,0,0,1.378-3.518c.163-.693.24-1.4.408-2.1.775-3.367,3.412-6.115,3.995-9.526a2.329,2.329,0,0,0,.033-.713,3.606,3.606,0,0,0-.351-.889,4.407,4.407,0,0,1-.31-.986,2.854,2.854,0,0,1,1.936,1.569,2.564,2.564,0,0,1-.065,1.382Z" transform="translate(-500.3 -388.811)"/><path class="f" d="M806.407,529.5a5.907,5.907,0,0,1-1.838,2.511,8.968,8.968,0,0,1-3.958,1.712,3.938,3.938,0,0,1-2.038-.024c-.9-.314-1.557-1.162-2.482-1.406a16.984,16.984,0,0,0-2.038-.118,7.232,7.232,0,0,1-3.106-1.818c-2.972-2.234-6.873-2.955-9.844-5.189a.913.913,0,0,1-.318-.33.982.982,0,0,1-.061-.461,9.376,9.376,0,0,1,.893-3.917,13.666,13.666,0,0,1,1.679-2.393,72.6,72.6,0,0,1,8.524-9.3,12.915,12.915,0,0,1,4.484-2.752,6.721,6.721,0,0,1,3.93-.073,2.274,2.274,0,0,0-.453.408,5.61,5.61,0,0,0-.815,1.671c-1.716,4.464-6.31,6.755-9.979,9.8l-3.351,2.776c-.457.379-.962.933-.738,1.484a1.333,1.333,0,0,0,.7.6c1.948.962,4.235,1.349,5.841,2.817.587.538,1.15,1.247,1.944,1.288a3.907,3.907,0,0,0,1.223-.273,4.113,4.113,0,0,1,3.591.717,3.493,3.493,0,0,0,.978.673,2.378,2.378,0,0,0,.929.057,4.961,4.961,0,0,1,2.568.249c.779.387,1.419,1.3,2.328,1.366C805.453,529.6,805.983,529.448,806.407,529.5Z" transform="translate(-473.894 -349.982)"/><path class="d" d="M746.293,406.737a4.328,4.328,0,0,0-1.916,1.924c-.261.705-.139,1.512-.452,2.2s-1.019,1.162-1.174,1.9c-.11.534.106,1.1,0,1.631a7.022,7.022,0,0,0-.224.848c-.041.607.481,1.1.991,1.439a8.275,8.275,0,0,0,7.407.815,33.469,33.469,0,0,0,3.114-1.594,6.159,6.159,0,0,1,3.355-.815c.673.073,1.317.318,1.989.408a2.087,2.087,0,0,0,1.863-.554,2.324,2.324,0,0,0,.408-.966,14.438,14.438,0,0,0-.228-6.861c-.538-2.25-1.353-4.415-1.928-6.653a30.527,30.527,0,0,0-1.4-4.928,6.466,6.466,0,0,0-3.428-3.628.64.64,0,0,0-.408-.053.693.693,0,0,0-.265.2,12.535,12.535,0,0,0-2.8,4.7c-.64,1.953-.815,4.023-1.4,5.984a6.128,6.128,0,0,1-1.223,2.531A13.973,13.973,0,0,1,746.293,406.737Z" transform="translate(-451.271 -282.546)"/><path class="f" d="M761.677,413.91a2.376,2.376,0,0,1-.428.966,2.067,2.067,0,0,1-1.863.55c-.669-.082-1.313-.33-1.985-.408a6.147,6.147,0,0,0-3.355.815c-1.044.522-2.038,1.17-3.118,1.59a8.23,8.23,0,0,1-4.945.281,7.98,7.98,0,0,1-2.446-1.076,1.754,1.754,0,0,1-.991-1.439,6.967,6.967,0,0,1,.224-.844c.106-.534-.106-1.1,0-1.631.155-.734.864-1.223,1.174-1.9s.192-1.488.448-2.193a4.345,4.345,0,0,1,1.92-1.928,14.643,14.643,0,0,0,2.315-1.492,2.3,2.3,0,0,0,.216-.3,7.338,7.338,0,0,0,.97-2.246c.6-1.965.762-4.032,1.4-5.988a12.56,12.56,0,0,1,2.8-4.7.616.616,0,0,1,.261-.2.652.652,0,0,1,.408.049,6.513,6.513,0,0,1,3.428,3.632,32.1,32.1,0,0,1,1.4,4.924c.571,2.238,1.39,4.411,1.928,6.657A14.5,14.5,0,0,1,761.677,413.91Z" transform="translate(-451.283 -282.504)"/><path class="f" d="M804.79,314.175a8.153,8.153,0,0,1-9.93-4.484,9.678,9.678,0,0,1,.163-1.137c.408-1.875,2.152-1.19,3.53-.693a27.6,27.6,0,0,1,4.79,2.075,3.437,3.437,0,0,1,1.182,1C805.128,311.839,804.888,313.038,804.79,314.175Z" transform="translate(-482.272 -232.485)"/><circle class="c" cx="8.153" cy="8.153" r="8.153" transform="translate(311.903 65.361)"/><path class="f" d="M820.387,449.36c0,.677-.917.893-1.6.856-2.446-.143-4.839-.815-7.26-.611-3.061.277-5.874,1.969-8.944,2.124a27.108,27.108,0,0,0-3.551.1c-1.508.281-2.853,1.2-4.39,1.329-1.333.114-2.65-.387-3.983-.334a6.4,6.4,0,0,0-2.662.758,3.746,3.746,0,0,1,1.092-2.279c.974-.958,2.36-.709,3.705-.938a21.228,21.228,0,0,0,3.913-1.251,38.442,38.442,0,0,1,11.051-2.556,24.128,24.128,0,0,1,11.157,1.765,6.347,6.347,0,0,1,1.439.815.64.64,0,0,1,.028.22Z" transform="translate(-478.209 -314.922)"/><path class="g" d="M784.666,334.927l-3.3-1.223-1.394-.514a6.742,6.742,0,0,0-1.777-.473,4.525,4.525,0,0,0-3.954,2.3,12.422,12.422,0,0,0-1.447,4.553q-.563,3.237-.954,6.5a42.449,42.449,0,0,0-.428,5.927,70.219,70.219,0,0,0,2.336,14.936,52.529,52.529,0,0,1,1.3,6.624c.1.921.143,1.847.24,2.772.106,1.039.277,2.067.448,3.1l.982,5.858a7.743,7.743,0,0,1,4.117-1.675c1.333-.049,2.654.448,3.983.334,1.529-.126,2.882-1.044,4.39-1.325a26.454,26.454,0,0,1,3.555-.1c3.065-.155,5.882-1.851,8.939-2.124,2.425-.22,4.835.465,7.264.607.677.041,1.594-.175,1.594-.856,0-.473-.473-.787-.885-1.023a43.62,43.62,0,0,1-5.524-3.942,18.649,18.649,0,0,1-4.341-4.3c-2.662-4.138-1.749-9.734-4.019-14.1-1.847-3.546,0-8.193,0-12.192a18.546,18.546,0,0,0-1.561-9.127l-1.586-4.015a.656.656,0,0,0-.188-.306.623.623,0,0,0-.363-.11,3.824,3.824,0,0,0-2.633.844c-.746.607-1.223,1.48-1.957,2.112A2.977,2.977,0,0,1,784.666,334.927Z" transform="translate(-468.382 -246.527)"/><path class="d" d="M811.077,328.892a7.233,7.233,0,0,1,1.288-3.151,2.477,2.477,0,0,1,3.07-.709c1.092.709,1.137,2.348,2.071,3.261a5.023,5.023,0,0,0,3.147.946,21.34,21.34,0,0,1,5.817,1.37,2.377,2.377,0,0,1,.966.579c.509.579.408,1.468.66,2.189.346.929,1.3,1.52,1.675,2.446a4.877,4.877,0,0,1-.342,3.233c-.615,1.9-1,3.864-1.6,5.768a12.842,12.842,0,0,1-2.854,5.214c-.62.636-1.541,1.223-2.356.844l-.314,2.262a3.845,3.845,0,0,0,0,1.447,1.3,1.3,0,0,0,.946,1c.061.351.432.518.734.709a2.038,2.038,0,0,1,.518,2.853c-.257.346-.636.62-.758,1.031a1.465,1.465,0,0,0,.783,1.549c.53.326,1.154.477,1.692.791a5.26,5.26,0,0,1,2.1,3.143,5.825,5.825,0,0,0,1.223,2.613c.269.257.591.452.848.721a3.094,3.094,0,0,1,.73,1.871,3.713,3.713,0,0,1-.53,2.446c-.815,1.166-2.336,1.512-3.669,2.038-2.165.889-3.946,2.478-5.854,3.832a6.245,6.245,0,0,1-2.67,1.255c-1.321.175-2.621-.408-3.95-.461a9.808,9.808,0,0,0-2.356.31l-2.446.53c.13-1.9-.913-3.8-1.5-5.6a27.835,27.835,0,0,1-1.044-10.6,83,83,0,0,1,1.7-10.574c.5-2.446.452-5,1.223-7.378a48.606,48.606,0,0,0,2.132-6.865C812.78,335.957,810.2,332.691,811.077,328.892Z" transform="translate(-489.464 -242.808)"/><path class="d" d="M853.48,352.569a4.484,4.484,0,0,1,.469,1.325,4.782,4.782,0,0,0,1.031,1.94,6.678,6.678,0,0,1,1.084,1.223,9.14,9.14,0,0,1,.408,2.348,18.868,18.868,0,0,1,.88,2.446,4.487,4.487,0,0,0,.069.742c.265.986,1.716,1.223,2.038,2.209.216.64-.155,1.337-.086,2.01a1.77,1.77,0,0,1,.037.636,1.292,1.292,0,0,1-.465.6,9.376,9.376,0,0,0-2.682,4.773,27.18,27.18,0,0,0-.616,5.515l-1.594-2.107a2.422,2.422,0,0,0-.636-.652c-.2-.122-.44-.183-.648-.306a2.949,2.949,0,0,1-1.072-1.72,15.9,15.9,0,0,0-2.854-4.941,5.393,5.393,0,0,1-1.545-2.519,4.642,4.642,0,0,1,.073-1.362,23.217,23.217,0,0,1,2.144-7.774c.607-1.109,1.394-2.112,1.977-3.237C851.886,352.968,852.437,351.028,853.48,352.569Z" transform="translate(-513.324 -258.947)"/><path class="d" d="M730.611,318.068a1.863,1.863,0,0,1-.253.978,1.288,1.288,0,0,1-1.288.408,3.725,3.725,0,0,1-1.288-.6q-1.7-1.076-3.408-2.156a18.869,18.869,0,0,1-1.83-1.256,16.336,16.336,0,0,1-2.417-2.531c-1.981-2.446-3.734-5.1-5.939-7.337-.6-.611-1.223-1.2-1.8-1.838a26.819,26.819,0,0,1-2.177-2.927,4.985,4.985,0,0,1-1.186-3.11c.065-.636.371-1.223.461-1.855a1.156,1.156,0,0,0-.982-1.61,1.662,1.662,0,0,1-.355-.077c-.567-.236-.481-1.113-.073-1.573s1.011-.717,1.382-1.223a7.375,7.375,0,0,1,.579-.86,2.205,2.205,0,0,1,.95-.477,14.7,14.7,0,0,1,7.236-.273c.408.09.872.253.995.648a1.194,1.194,0,0,1,0,.587,13.118,13.118,0,0,0-.31,2.446,4.337,4.337,0,0,0,.029.514,9.222,9.222,0,0,0,2.405,4.541c1.3,1.606,2.613,3.2,3.934,4.79a18.817,18.817,0,0,0,2.385,2.548,13.6,13.6,0,0,1,2.507,2.091,4.576,4.576,0,0,1,.408,2.5,55.556,55.556,0,0,1,.041,7.655Z" transform="translate(-430.668 -221.882)"/><path class="c" d="M880.977,357.8a8.554,8.554,0,0,0,1.084-1.284,8.469,8.469,0,0,0,.815-1.822l2.364-6.706c.375-1.06.75-2.124,1.223-3.155.489-1.113,1.068-2.185,1.6-3.261a43.5,43.5,0,0,0,3.167-8.866,3.286,3.286,0,0,0,.126-1.3,3.418,3.418,0,0,0-1.158-1.757,8.472,8.472,0,0,0-1.736-1.435,2.854,2.854,0,0,0-2.177-.351,3.145,3.145,0,0,0-1.94,2.446,25.54,25.54,0,0,0-.253,3.261c-.147,1.565-.685,3.078-.815,4.647-.069.909,0,1.826-.11,2.731a9.975,9.975,0,0,1-1.223,3.371,21.886,21.886,0,0,1-5.271,6.481,8.475,8.475,0,0,0-1.582,1.521,4.96,4.96,0,0,0-.762,1.9,4.374,4.374,0,0,0,.33,3.086,4.53,4.53,0,0,0,3.159,1.883C879.469,359.533,879.848,358.971,880.977,357.8Z" transform="translate(-529.265 -244.608)"/><path class="d" d="M798.668,270.847a3.8,3.8,0,0,1,3.693-2,4.076,4.076,0,0,1,3.2,2.878,7.438,7.438,0,0,0,.6,1.8c.505.787,1.443,1.015,2.144,1.586a4.293,4.293,0,0,1,1.37,3.033,9.175,9.175,0,0,1-.542,3.428,10.9,10.9,0,0,0-.408,1.435c-.082.473-.09.954-.163,1.427a4.647,4.647,0,0,1-1.871,3.086.815.815,0,0,1-.505.183c-.318-.037-.514-.408-.632-.742-.648-1.871-.493-4.158-1.688-5.65a6.176,6.176,0,0,0-1.932-1.439,2.491,2.491,0,0,0-.987-.371,2.6,2.6,0,0,0-1.427.522,8.882,8.882,0,0,1-2.821,1.247,3.465,3.465,0,0,1-2.915-.628c-.562-.465-.974-1.162-1.6-1.525a12.306,12.306,0,0,0-1.891-.591,2.8,2.8,0,0,1-1.133-4.272c.408-.489,1.011-.766,1.374-1.309a8.255,8.255,0,0,0,.652-2.5,3.444,3.444,0,0,1,2.075-2.368,2.915,2.915,0,0,1,2.9.607c.408.367.734.84,1.133,1.223a3.261,3.261,0,0,0,3.017.815" transform="translate(-478.564 -209.147)"/><path class="f" d="M828.97,420.161a1.582,1.582,0,0,0-.432,1.728c.09.192,4.3-.62,4.741-.681,1.109-.159,3.053-.082,3.8-1.1,1.329-1.8-2.788-1.4-3.542-1.333C832.1,418.9,830.063,419.1,828.97,420.161Z" transform="translate(-502.164 -298.461)"/><path class="d" d="M719.246,291a13.133,13.133,0,0,0-.31,2.446,7.124,7.124,0,0,1-3.669-.567l-3.371-1.15a.958.958,0,0,0-1.288.241,28.552,28.552,0,0,1-2.038,2.262,1.663,1.663,0,0,1-.355-.077c-.567-.236-.481-1.113-.073-1.573s1.011-.717,1.382-1.223a7.365,7.365,0,0,1,.579-.86,2.205,2.205,0,0,1,.95-.477,14.7,14.7,0,0,1,7.236-.273c.408.09.872.253.995.648A1.194,1.194,0,0,1,719.246,291Z" transform="translate(-430.709 -221.882)"/><path class="f" d="M719.246,291a13.133,13.133,0,0,0-.31,2.446,7.124,7.124,0,0,1-3.669-.567l-3.371-1.15a.958.958,0,0,0-1.288.241,28.552,28.552,0,0,1-2.038,2.262,1.663,1.663,0,0,1-.355-.077c-.567-.236-.481-1.113-.073-1.573s1.011-.717,1.382-1.223a7.365,7.365,0,0,1,.579-.86,2.205,2.205,0,0,1,.95-.477,14.7,14.7,0,0,1,7.236-.273c.408.09.872.253.995.648A1.194,1.194,0,0,1,719.246,291Z" transform="translate(-430.709 -221.882)"/><path class="f" d="M799.766,480.821a2.034,2.034,0,0,1,1.423,1.068l-4.72-1.2-2.446-.624c-.432-.11-1.981-.236-2.266-.575-.408-.5,1.039-.155,1.3-.118.791.118,1.582.241,2.368.383C796.908,480.022,798.335,480.458,799.766,480.821Z" transform="translate(-480.391 -334.316)"/><path class="f" d="M801.68,488.613a8.826,8.826,0,0,0-2.079-.359c-.734-.175-1.455-.408-2.177-.632-1.463-.477-2.915-1.019-4.419-1.37-.277-.061-1.223-.077-1.178-.428s.946-.473,1.17-.489a11.557,11.557,0,0,1,4.235.97A18.668,18.668,0,0,1,801.68,488.613Z" transform="translate(-480.475 -337.93)"/><path class="f" d="M800.118,470.345c-1.5-.408-2.853-1.337-4.394-1.516a1.786,1.786,0,0,1-1.121-.342,1.321,1.321,0,0,1-.363-.652,7.6,7.6,0,0,1,3.167.795,9.961,9.961,0,0,1,1.484.791C799.234,469.627,799.747,470.226,800.118,470.345Z" transform="translate(-481.905 -327.566)"/><path class="d" d="M871.278,384.46a7.129,7.129,0,0,0,5,7.88c-.2.966-1.2,1.5-1.9,2.189-.995.966-1.508,2.413-2.682,3.147-1.309.815-2.992.5-4.484.155a.546.546,0,0,1-.351-.183.5.5,0,0,1-.065-.159,10.49,10.49,0,0,1-.31-5.544,18.1,18.1,0,0,1,2.169-4.215C869.431,386.368,869.5,384.908,871.278,384.46Z" transform="translate(-524.547 -278.181)"/><path class="d" d="M761.6,327.1a10.6,10.6,0,0,0-4.484,1.366c-.913.522-1.851,1.223-2.894,1.1-.616-.069-1.223-.408-1.822-.245a3.576,3.576,0,0,0-.933.554,1.056,1.056,0,0,1-1.027.163l-.408,5.642a20.684,20.684,0,0,0,.208,6.424,18,18,0,0,1,.913,3.122c.065,1.084-.033,2.2.045,3.294.073,1.015.3,2.014.355,3.029a19.271,19.271,0,0,1-.815,5.678c-.689,2.747-1.1,5.556-2.446,8.043a4.746,4.746,0,0,0-.815,2.173,1.11,1.11,0,0,0,.024.285c-.408.224-.787.436-1.133.656a4.346,4.346,0,0,0-1.92,1.928c-.257.705-.139,1.512-.448,2.193s-1.019,1.166-1.174,1.9c-.11.534.1,1.1,0,1.631a6.967,6.967,0,0,0-.224.844,1.77,1.77,0,0,0,.991,1.439,7.979,7.979,0,0,0,2.446,1.076l2.434-9.661h0a77.894,77.894,0,0,0,5.515-12.828,27.586,27.586,0,0,1,1.594-4.223,19.834,19.834,0,0,0,1.223-2.4,18.05,18.05,0,0,0,.587-3.224,22.565,22.565,0,0,1,.958-3.722,15.973,15.973,0,0,0,1.04-3.987c.135-1.965-.579-4.04.179-5.858a7.791,7.791,0,0,1,1.243-1.871c1.052-1.288,2.01-2.637,3.061-3.926A2.828,2.828,0,0,0,761.6,327.1Z" transform="translate(-451.312 -244.195)"/><g class="h" transform="translate(310.048 60.359)"><path d="M816.567,271.81l-.51.037-.057.041A3.007,3.007,0,0,0,816.567,271.81Z" transform="translate(-804.843 -271.81)"/><path d="M809.681,288.737a10.986,10.986,0,0,1-.522,2.381,10.9,10.9,0,0,0-.408,1.435c-.082.473-.09.954-.163,1.427a4.648,4.648,0,0,1-1.871,3.086.815.815,0,0,1-.505.183c-.318-.037-.514-.408-.632-.742-.648-1.871-.493-4.158-1.688-5.65a6.175,6.175,0,0,0-1.932-1.439,2.49,2.49,0,0,0-.986-.371,2.6,2.6,0,0,0-1.427.522,8.881,8.881,0,0,1-2.821,1.247,3.465,3.465,0,0,1-2.915-.628c-.563-.465-.974-1.162-1.6-1.525a12.305,12.305,0,0,0-1.891-.591,2.784,2.784,0,0,1-1.59-1.818,1.166,1.166,0,0,1-.033-.155,2.853,2.853,0,0,0,.033,1.378,2.784,2.784,0,0,0,1.59,1.818,13.746,13.746,0,0,1,1.891.591,15.424,15.424,0,0,1,1.6,1.525,3.465,3.465,0,0,0,2.915.628,8.883,8.883,0,0,0,2.821-1.247,2.6,2.6,0,0,1,1.427-.522,2.491,2.491,0,0,1,.986.371,6.176,6.176,0,0,1,1.9,1.451c1.194,1.492,1.039,3.779,1.688,5.65.118.338.314.705.632.742a.815.815,0,0,0,.534-.2,4.647,4.647,0,0,0,1.875-3.1c.073-.473.082-.954.163-1.427a10.9,10.9,0,0,1,.408-1.435,9.176,9.176,0,0,0,.542-3.428C809.7,288.852,809.689,288.794,809.681,288.737Z" transform="translate(-788.631 -280.275)"/></g><path class="i" d="M694.969,372.81l-.277,3.722a77.394,77.394,0,0,1-8.132,26.6,75.491,75.491,0,0,1-40.478,36.6q-2.629,1.039-5.458,1.94l-2.1-6.6a77.22,77.22,0,0,0,15.172-6.636,67.15,67.15,0,0,0,26.562-28.192,75.728,75.728,0,0,0,6.971-20.5H661.666v-6.93Z" transform="translate(-389.662 -271.28)"/><path class="j" d="M646.126,439.752a75.476,75.476,0,0,0,40.474-36.6,77.24,77.24,0,0,0,8.132-26.6l.277-3.722h2.853l-.277,3.722a77.288,77.288,0,0,1-8.132,26.6,75.49,75.49,0,0,1-40.474,36.6q-2.629,1.039-5.462,1.944l-.277-.868Q644.716,440.3,646.126,439.752Z" transform="translate(-392.458 -271.292)"/><path class="i" d="M457.969,435.072l-2.1,6.6q-2.833-.9-5.462-1.944a75.476,75.476,0,0,1-40.474-36.6,77.238,77.238,0,0,1-8.132-26.6l-.277-3.722h33.288v6.93H409.245a75.772,75.772,0,0,0,6.991,20.5,67.106,67.106,0,0,0,26.557,28.188,77.044,77.044,0,0,0,15.176,6.64Z" transform="translate(-249.272 -271.28)"/><path class="j" d="M453,439.752a75.476,75.476,0,0,1-40.474-36.6,77.238,77.238,0,0,1-8.132-26.6l-.277-3.722H401.26l.277,3.722a77.287,77.287,0,0,0,8.132,26.6,75.491,75.491,0,0,0,40.474,36.6q2.629,1.039,5.462,1.944l.277-.868Q454.412,440.3,453,439.752Z" transform="translate(-249.118 -271.292)"/><g transform="translate(52.324 145.841) rotate(-43)"><path class="k" d="M264.728,115.409,256,112.5v20.365l20.365-5.819A11.638,11.638,0,0,0,264.728,115.409Z" transform="translate(-102.771 -90.68)"/><path class="l" d="M174.274,115.409l-2.909-2.909-8.728,2.909A11.638,11.638,0,0,0,151,127.046l20.365,5.819,14.546-5.819A11.638,11.638,0,0,0,174.274,115.409Z" transform="translate(-18.136 -90.68)"/><path class="m" d="M286,202.5v17.456l14.546-5.819V202.5Z" transform="translate(-126.953 -163.225)"/><path class="n" d="M151,202.5v11.637l5.819,23.662h29.093V202.5Z" transform="translate(-18.136 -163.225)"/><path class="o" d="M252.184,250.409v44.027H226L246.365,247.5h2.909A2.91,2.91,0,0,1,252.184,250.409Z" transform="translate(-78.59 -199.497)"/><path class="p" d="M185.911,247.5v46.936H151V250.409a2.909,2.909,0,0,1,5.819,0v17.456a2.909,2.909,0,0,0,5.819,0V250.409a2.909,2.909,0,0,1,5.819,0v8.728a2.909,2.909,0,0,0,5.819,0v-8.728a2.91,2.91,0,0,1,2.909-2.909Z" transform="translate(-18.136 -199.497)"/><path class="q" d="M336.819,474.5H331v5.819h5.819a2.909,2.909,0,1,0,0-5.819Z" transform="translate(-163.225 -382.47)"/><path class="r" d="M173.821,474.5a2.909,2.909,0,1,1,0,5.819H138.909a2.909,2.909,0,1,1,0-5.819Z" transform="translate(-6.045 -382.47)"/><path class="q" d="M336.819,187.5H331v5.819h5.819a2.909,2.909,0,1,0,0-5.819Z" transform="translate(-163.225 -151.134)"/><path class="r" d="M173.821,187.5a2.909,2.909,0,0,1,0,5.819H138.909a2.909,2.909,0,0,1,0-5.819Z" transform="translate(-6.045 -151.134)"/><path class="s" d="M228.456,7.5V27.865H211L222.637,7.5Z" transform="translate(-66.499 -6.045)"/><path class="t" d="M211,7.5h11.637V27.865H211Z" transform="translate(-66.499 -6.045)"/><path class="q" d="M276.819,97.5H271v5.819h5.819a2.909,2.909,0,0,0,0-5.819Z" transform="translate(-114.862 -78.59)"/><path class="r" d="M210.546,97.5a2.909,2.909,0,1,1,0,5.819H198.909a2.909,2.909,0,1,1,0-5.819Z" transform="translate(-54.408 -78.59)"/><circle class="o" cx="2.909" cy="2.909" r="2.909" transform="translate(150.32 7.273)"/><path d="M237.864,38.728a4.364,4.364,0,1,0-4.364-4.364A4.369,4.369,0,0,0,237.864,38.728Zm0-5.819a1.455,1.455,0,1,1-1.455,1.455A1.456,1.456,0,0,1,237.864,32.909Z" transform="translate(-84.635 -24.181)"/><path class="u" d="M175.048,90.826V43.389a4.364,4.364,0,0,0-.057-8.248,13.122,13.122,0,0,0-9.178-11.284,4.36,4.36,0,0,0-2.4-6.151V1.455A1.455,1.455,0,0,0,161.957,0H144.5a1.455,1.455,0,0,0-1.455,1.455V17.706a4.36,4.36,0,0,0-2.4,6.151,13.122,13.122,0,0,0-9.178,11.284,4.364,4.364,0,0,0-.057,8.248V90.826a4.364,4.364,0,0,0,1.455,8.478h40.73a4.364,4.364,0,0,0,1.455-8.478ZM147.41,46.548a4.369,4.369,0,0,0-4.364,4.364V68.368a1.455,1.455,0,1,1-2.909,0V50.912a4.362,4.362,0,0,0-5.819-4.114V43.639h37.821V46.8a4.341,4.341,0,0,0-1.455-.25H159.047a4.369,4.369,0,0,0-4.364,4.364V59.64a1.455,1.455,0,0,1-2.909,0V50.912a4.369,4.369,0,0,0-4.364-4.364ZM160.5,2.909V17.456H145.956V2.909ZM143.046,21.82a1.456,1.456,0,0,1,1.455-1.455h17.456a1.455,1.455,0,0,1,0,2.909H144.5A1.456,1.456,0,0,1,143.046,21.82Zm-10.182,16a1.455,1.455,0,0,0,1.455-1.455A10.194,10.194,0,0,1,144.5,26.184h17.456a10.2,10.2,0,0,1,10.079,8.728H138.682a1.455,1.455,0,0,0,0,2.909h34.911a1.455,1.455,0,0,1,0,2.909h-40.73a1.455,1.455,0,1,1,0-2.909Zm2.909,11.637a1.456,1.456,0,0,1,1.455,1.455V68.368a4.364,4.364,0,1,0,8.728,0V50.912a1.455,1.455,0,0,1,2.909,0V59.64a4.364,4.364,0,1,0,8.728,0V50.912a1.456,1.456,0,0,1,1.455-1.455h11.637a1.456,1.456,0,0,1,1.455,1.455V90.576H134.319V50.912A1.456,1.456,0,0,1,135.773,49.458Zm37.821,46.936h-40.73a1.455,1.455,0,1,1,0-2.909h40.73a1.455,1.455,0,0,1,0,2.909Z"/></g><path class="i" d="M571.829,612.251v37.368H494.92V612.251l2.446-3.261c24.923-8.846,29.973-31.914,30.98-41.041a37.524,37.524,0,0,0,.257-3.8h9.51a37.539,37.539,0,0,0,.257,3.8c1.023,9.127,6.074,32.2,30.98,41.041Z" transform="translate(-304.599 -384.623)"/><rect class="f" width="76.909" height="4.688" transform="translate(190.321 227.628)"/><path class="j" d="M501.442,608.99c24.923-8.846,29.973-31.914,30.98-41.041a37.523,37.523,0,0,0,.257-3.8H528.6a37.539,37.539,0,0,1-.257,3.8c-1.023,9.127-6.074,32.2-30.98,41.041l-2.446,3.261v37.368H499V612.251Z" transform="translate(-304.599 -384.623)"/><path class="f" d="M466.26,372.81h6.9v6.93h-6.286Q466.5,376.316,466.26,372.81Z" transform="translate(-287.622 -271.28)"/><path class="f" d="M517.946,515.9l-2.1,6.6q-2.833-.9-5.462-1.944a73.033,73.033,0,0,1-7.611-11.3A77.048,77.048,0,0,0,517.946,515.9Z" transform="translate(-309.249 -352.108)"/><path class="f" d="M638.51,515.906a77.22,77.22,0,0,0,15.172-6.636,73.321,73.321,0,0,1-7.611,11.3q-2.629,1.039-5.458,1.94Z" transform="translate(-389.656 -352.114)"/><path class="f" d="M702.223,372.81q-.241,3.506-.611,6.93H695.33v-6.93Z" transform="translate(-423.315 -271.28)"/><path class="f" d="M586.984,567.949a26.351,26.351,0,0,1-10.024,0,37.539,37.539,0,0,0,.257-3.8h9.51a37.5,37.5,0,0,0,.257,3.8Z" transform="translate(-353.196 -384.623)"/><path class="i" d="M468.26,344.65c.175,51.387,22.188,92.941,49.324,92.941s49.145-41.554,49.324-92.941Z" transform="translate(-288.806 -254.599)"/><path class="j" d="M477.024,344.65H468.26c.175,51.387,22.188,92.941,49.324,92.941a26.636,26.636,0,0,0,4.382-.371C496.88,433.03,477.191,393.24,477.024,344.65Z" transform="translate(-288.806 -254.599)"/><rect class="d" width="52.312" height="13.452" transform="translate(202.62 241.932)"/><path class="j" d="M499.536,595.334H549.4V593.5H497.09v13.452h2.446Z" transform="translate(-294.47 -351.568)"/><path class="v" d="M268.767,368.686c-.942-.314-6.486-4.7-6.905-6.685s2.931-20.48,2.931-20.48a7.531,7.531,0,0,1-.815-.061v-.3l.689-24.3s2.825-16.305-2.511-15.356-1.989,15.356-1.989,15.356-.607,7.313-1.035,9.506c-.408,2.116-2.275,10.733-1,13.411a2.924,2.924,0,0,0,.155.277h0s.212,9.192-2.091,10.448c-2.2,1.194-3.11,7.207-3.188,7.745l-.118-.049h0a6.387,6.387,0,0,1-1.7-1.553c-.049-.061-.086-.126-.13-.192a8.977,8.977,0,0,0-2.764-14.019,5.788,5.788,0,0,0-.542-2.25c-1.06-2.266-6.93-5.23-11.1-5.3-1.924-.057-3.5.489-4.076,1.993a11.5,11.5,0,0,0-.326,2.421,6.158,6.158,0,0,1-2.637,3.921,16.537,16.537,0,0,0-1.757-1.692,38.387,38.387,0,0,1-4.076-4.484s-8.475-8.776-9.1-11.181-9.094-16.848-10.978-14.332,6.485,13.476,6.485,13.476,1.59,3.983,2.813,5.328,10.6,14.96,10.6,14.96l.448.929c-1.981,1.044-3.791,2.372-4.431,4.443-.938,3.049,1.113,6.115,2.531,8.968,2.764,5.568,3.159,12.669-.408,17.757-3.2,4.492-8.74,6.628-13.929,8.5a13.709,13.709,0,0,0,8.8,2.923c-1.2,3.473-5.446,4.623-9.066,5.267,1.9,1.826,4.619,2.491,7.227,2.894a21.658,21.658,0,0,0,3.868.306h.318l.318-.024a11.062,11.062,0,0,0,1.317-.167,6.918,6.918,0,0,0,4.676-3.074c.815-1.423,1.1-3.363,2.58-4.076a3.3,3.3,0,0,1,1.223-.289h.795l6.168.061h.787c1.741-.041,3.6-.342,4.484-1.781a4.94,4.94,0,0,0,.558-2.262c.13-1.953,0-3.962.053-5.931.526,3.583,1.076,9.168-.232,11.23a19.159,19.159,0,0,1-3.824,4.146,7.339,7.339,0,0,0-1.011,1.035c-.2.143-.318.22-.318.22l-.126.379a7.178,7.178,0,0,0-.995,2.307,1.6,1.6,0,0,0-.077.656c.143.289-1.019,1.484-.681,1.985-2.9,3.4-3.453,8.56-3.453,8.56l-5.3,8.047c-2.723,7.154-6.8,7.888-6.8,7.888s-9.575-6.424-9.836-6.738a36.982,36.982,0,0,0-3.921-1.883,4.15,4.15,0,0,0-1.883-1.72c-1.256-.522-1.361-2.446-1.361-2.446-.155-4.545-2.825-4.892-2.825-4.892a8.674,8.674,0,0,0-5.059.9l-.383.029c-1.851.151-4.076.318-6.522.481-6.8.448-8.422,4.855-8.422,4.855a1.356,1.356,0,0,0,.261,1.961c1.1,1.019,8.116,0,8.414-.024a4.558,4.558,0,0,1-1.6-.11c1.1-.041,2.625-.082,3.921-.082h.314a16.962,16.962,0,0,0-.118,2.071c0,1.3,3.608,2.14,3.608,2.14l10.986,9.783s6.905,3.086,11.3,7.525,8.279.607,8.279.607c4.651-1.15,18.034-17.329,18.046-17.345h0c0,.473.281,16.208.815,19.367h0a2.1,2.1,0,0,0,.118.469c.628,1.357-.212,5.067-.575,6.632a18.426,18.426,0,0,0-.265,3.97s-5.018,19.159-4.6,20.842-2.719,9.506-2.719,9.506v6.522l.546-.029a3.517,3.517,0,0,0-.2.326l-.037.069a23.2,23.2,0,0,0,5.6.522c2.25-.208,6.115,1.732,6.115,1.732s1.309.62,5.336.88,4.027-1.777,4.027-1.777c-.461-2.776-6.824-3.705-7.019-3.734-.514-.322-.995-.673-1.39-.974l-.082-.065a1.744,1.744,0,0,0,.069-.188c.681-2.772-3.086-3.974-3.086-3.974v-.677c2.446-1.256,2.931-9.873,2.931-9.873s3.669-10.656,4.182-12.433a11.751,11.751,0,0,0,0-4.439l.367-2.3a11.308,11.308,0,0,0,.787-1.879,4.642,4.642,0,0,1,.889-2.193c.575-.681-.628-2.3-.628-2.3l1.048-2.715v-2.98l2.446-10.811s2.564-12.592,1.675-16.713,1.048-6.216,1.048-6.216a5.15,5.15,0,0,1-.538.245,15.57,15.57,0,0,0,.632-1.737l5.5.681v.082h1.985s-.628-7.745-.628-10.868,2.116-14.328,2.116-14.328S269.708,369,268.767,368.686Zm-24.43-9.041c0,.306-.029.624-.049.95l-.11.167-.2-.171-.249.387-.073.037c-.538-.277-.815-1.863-1.2-1.52l-.053.045c-.086-.1-.171-.126-.261-.045l-.082.069V359.2a9.174,9.174,0,0,0,2.283.289C244.341,359.543,244.337,359.6,244.337,359.645Zm18.3,36.068h.118l-.2.514C262.587,396.055,262.612,395.888,262.64,395.712Zm-20.092,92.44-.75-.187.408-.069.379.249.045.033Zm7.664-1.1c-.249-.13-.5-.281-.746-.436C249.547,486.664,249.869,486.831,250.211,487.056Z" transform="translate(-117.212 -229.022)"/><path class="w" d="M351.251,390.03l-4.936,12.865h1.2l-4.643,3.7,8.381,1.044Z" transform="translate(-203.116 -231.04)"/><path class="f" d="M351.251,390.03l-4.936,12.865-1.243-.334-2.2,4.036,8.381,1.044Z" transform="translate(-203.116 -231.04)"/><path class="w" d="M344.44,376.248h7.741l2.841-23.378H344.44Z" transform="translate(-204.046 -209.027)"/><path class="f" d="M344.44,376.248h7.741l2.841-23.378H344.44Z" transform="translate(-204.046 -209.027)"/><path class="x" d="M334.2,453.045l1.671-.281,3.84-.652s11.532-2.6,13.913-2.813a14.867,14.867,0,0,0,4.174-1.19c.624-.269,1.019-.473,1.019-.473l-4.154-7.586-6.445-4.777s-4.076-.868-5.8-3.241a3.82,3.82,0,0,1-.534-3.62c1.052-3.261-6.282,3.118-6.282,3.118s.069,1.529,0,3.477c0,.383-.037.783-.065,1.19a8.026,8.026,0,0,1-.065.815,13.109,13.109,0,0,1-1.272,5.12C332.432,445.043,334.2,453.045,334.2,453.045Z" transform="translate(-208.93 -303.666)"/><path class="f" d="M338.79,435.406h.163c.293,0,.53-.624.815-.652,2.3-.22,4.39-.7,5.846-2.328a3.824,3.824,0,0,1-.534-3.616c1.052-3.261-6.282,3.114-6.282,3.114S338.876,433.458,338.79,435.406Z" transform="translate(-212.113 -303.903)"/><path class="x" d="M316.89,410.678a8.931,8.931,0,0,0,8.935,8.935,6.23,6.23,0,0,0,.872-.041,8.935,8.935,0,1,0-9.808-8.895Z" transform="translate(-199.14 -288.42)"/><path class="d" d="M274.038,387.5a10.992,10.992,0,0,0-.322,2.409c-.436,2.9-3.383,4.635-6.049,5.85s-5.674,2.654-6.522,5.454c-.929,3.029,1.1,6.066,2.511,8.907,2.747,5.536,3.139,12.6-.408,17.659-3.151,4.484-8.642,6.612-13.811,8.479a13.615,13.615,0,0,0,8.744,2.911c-1.186,3.453-5.405,4.6-9,5.234,1.887,1.818,4.59,2.478,7.178,2.878a16.277,16.277,0,0,0,5.707.106,6.856,6.856,0,0,0,4.639-3.057c.815-1.414,1.092-3.343,2.564-4.056a4.639,4.639,0,0,1,2.091-.306l6.115.065c1.9,0,4.158-.147,5.14-1.773a4.891,4.891,0,0,0,.554-2.25c.265-4.011-.505-8.251,1.145-11.911.5-1.1-2.694-2.853-2.36-4.023a37.58,37.58,0,0,0,1.427-11.377c0-3.241,2.107-6.033,3.848-8.768s3.2-6.188,1.822-9.123C287.5,387.534,275.868,382.776,274.038,387.5Z" transform="translate(-159.031 -278.805)"/><path class="x" d="M330.13,753.541l1.557,1.031.241.159.045.029,1.847,1.223,4.313.726,3.791-.261s1.092-2.283-.624-2.23a3.57,3.57,0,0,1-1.565-.452l-.236-.118h0c-.249-.13-.5-.277-.742-.432h0c-.51-.322-.991-.673-1.378-.97-.571-.44-.95-.775-.95-.775Z" transform="translate(-206.983 -495.585)"/><path class="f" d="M334,757.907l.24.159.045.029,1.847,1.223,4.313.726,3.791-.261s1.092-2.283-.624-2.23a3.572,3.572,0,0,1-1.565-.453c.3.236.554.493.579.709.069.583-2.8,1.631-2.8,1.631l-4.052-1.072s-.689-.2-1.631-.44l-.09-.024Z" transform="translate(-209.276 -498.92)"/><path class="d" d="M317,758.072a22.948,22.948,0,0,0,5.556.518c2.234-.208,6.082,1.716,6.082,1.716s1.3.611,5.3.872,4-1.769,4-1.769c-.457-2.76-6.775-3.669-6.971-3.709h0a7.758,7.758,0,0,1,.742.432h0c.448.293.934.677.97.986.069.579-2.8,1.631-2.8,1.631l-4.052-1.068s-.689-.2-1.631-.444h-.09a34.74,34.74,0,0,0-4.248-.876,2.949,2.949,0,0,0-2.821,1.631.484.484,0,0,0-.033.081Z" transform="translate(-199.205 -498.09)"/><path class="x" d="M188.54,574.919l1.765,1.353s.514-.024,1.28-.049h.245c1.1-.041,2.609-.081,3.893-.081a12.357,12.357,0,0,1,2.482.139c.881.31,2.446-5.038,2.446-5.038l-1.769-.408-.587-.139-.408-.1-1.439-.338-4.362.5-3.065,1.973Z" transform="translate(-123.11 -388.242)"/><path class="f" d="M188.54,574.919l1.765,1.353s.514-.024,1.28-.049a1.545,1.545,0,0,1-.815-.73c-1.141-3.167,4.521-4.521,4.521-4.521l2.637-.114.514-.024h.408l-.587-.139-.408-.1-1.439-.338-4.362.5-3.065,1.973Z" transform="translate(-123.11 -388.242)"/><path class="d" d="M179.179,573.992c1.068.986,8.063,0,8.357-.024a4.4,4.4,0,0,1-1.586-.11,1.749,1.749,0,0,1-1.223-.876c-1.141-3.171,4.521-4.521,4.521-4.521l2.637-.114.51-.024,6.412-.277.31-1.765s-2.083.2-5.352.457c-1.838.151-4.076.318-6.494.477-6.755.448-8.361,4.83-8.361,4.83A1.355,1.355,0,0,0,179.179,573.992Z" transform="translate(-117.231 -385.885)"/><path class="x" d="M371.817,342.111a1.8,1.8,0,0,0,.155.277l1.557,2.283,4.052.408.045-1.606.681-24.165s2.8-16.208-2.495-15.274-1.973,15.274-1.973,15.274-.6,7.272-1.027,9.457C372.4,330.876,370.553,339.461,371.817,342.111Z" transform="translate(-231.419 -230.516)"/><path class="x" d="M350.14,542.371l1.154,1.973,2.58,4.415s4.68,1.716,5.878.408c.656-.713,1.366-3.2,1.863-5.3.408-1.7.681-3.127.681-3.127Z" transform="translate(-218.836 -370.756)"/><path class="f" d="M350.14,542.4l1.154,1.973a1.358,1.358,0,0,0,.2-.208c1.3-1.663,7.048-.355,10.126-.249.408-1.7.681-3.127.681-3.127Z" transform="translate(-218.836 -370.785)"/><path class="f" d="M206.16,573.776a12.357,12.357,0,0,1,2.482.139c.881.31,2.446-5.038,2.446-5.038l-2.356-.554,6.412-.277.31-1.765s-2.083.2-5.352.457a6.725,6.725,0,0,0-1.781,1.488l-.1.122A10.683,10.683,0,0,0,206.16,573.776Z" transform="translate(-133.548 -385.885)"/><path class="f" d="M330.13,753.517l1.8,1.19c2.682-.485,5.132-1.247,5.422-2.446a.414.414,0,0,0,0-.057c-.571-.44-.95-.775-.95-.775Z" transform="translate(-206.983 -495.561)"/><path class="f" d="M317.09,758.939a62.208,62.208,0,0,0,7.068-.758,34.759,34.759,0,0,0-4.252-.885A2.932,2.932,0,0,0,317.09,758.939Z" transform="translate(-199.259 -499.026)"/><path class="d" d="M206.64,560.7c0,1.3,3.583,2.132,3.583,2.132l10.912,9.714s6.856,3.065,11.218,7.48,8.21.624,8.21.624C245.186,579.507,258.5,563.4,258.5,563.4s.31,18.393.934,19.742-.208,5.038-.571,6.6a18.345,18.345,0,0,0-.261,3.946s-4.985,19.065-4.57,20.728-2.7,9.457-2.7,9.457v6.494s12.209-.469,12.881-3.22-3.061-3.95-3.061-3.95v-.677c2.446-1.247,2.906-9.816,2.906-9.816s3.64-10.6,4.158-12.364a11.56,11.56,0,0,0,0-4.419l.363-2.283a11.4,11.4,0,0,0,.779-1.871,4.622,4.622,0,0,1,.885-2.181c.571-.677-.624-2.287-.624-2.287l1.039-2.7v-2.959l2.446-10.753s2.548-12.523,1.663-16.627,1.039-6.18,1.039-6.18c-4.17,2.185-6.273-2.678-6.962-4.769-.175-.538-.261-.9-.261-.9a29.161,29.161,0,0,0-11.059-1.606,12.73,12.73,0,0,0-3.175.673c-5.923,2.132-6.856,10.961-6.856,10.961l-5.246,8c-2.7,7.117-6.755,7.843-6.755,7.843s-9.506-6.388-9.783-6.7a38.087,38.087,0,0,0-3.9-1.871A4.117,4.117,0,0,0,219.937,558c-1.247-.522-1.349-2.446-1.349-2.446-.155-4.521-2.8-4.892-2.8-4.892C206.587,549.9,206.64,559.4,206.64,560.7Z" transform="translate(-133.832 -370.749)"/><rect class="w" width="5.609" height="17.402" transform="translate(131.304 164.551) rotate(180)"/><rect class="f" width="5.609" height="17.402" transform="translate(131.304 164.551) rotate(180)"/><path class="f" d="M372.439,397.41a.254.254,0,0,0,0,.037,1.806,1.806,0,0,0,.155.277l1.557,2.283,4.052.408.045-1.606A16.177,16.177,0,0,1,372.439,397.41Z" transform="translate(-232.045 -285.852)"/><path class="w" d="M365.194,398.18s.208,9.139-2.079,10.387-3.176,7.745-3.176,7.745,6.93,4.557,8.475,6.563,5.091,6.783,4.362,7.924,1.769,6.339,1.769,6.339-4.574,9.351-3.534,12.885,1.141,12.881,1.141,12.881h1.977s-.624-7.688-.624-10.806,2.075-14.235,2.075-14.235.938-10.908,0-11.218-6.441-4.676-6.856-6.653,2.911-20.382,2.911-20.382S367.375,399.427,365.194,398.18Z" transform="translate(-224.641 -286.308)"/><path class="f" d="M336.12,458.055a8.9,8.9,0,0,0,1.357,3.563l3.84-.652s11.532-2.6,13.913-2.813a14.866,14.866,0,0,0,4.174-1.19,18.408,18.408,0,0,0-5.157-8.458l-1.463-1.357a24.52,24.52,0,0,0-7.378-4.716c.171.143,12.27,10.472,9.62,12.5s-9.783-2.906-9.783-2.906l-8.112-6.971-.293-.253-.469.73a6.806,6.806,0,0,1,.7.334,11.936,11.936,0,0,1,5.707,7.093C344.44,458.56,336.12,458.055,336.12,458.055Z" transform="translate(-210.531 -312.52)"/><path class="y" d="M330,542.264s7.688,4.26,9.555,1.871a3.177,3.177,0,0,1,2.34-.815c-.175-.538-.261-.9-.261-.9a29.163,29.163,0,0,0-11.059-1.606C330.224,541.7,330,542.264,330,542.264Z" transform="translate(-206.906 -370.755)"/><path class="z" d="M333.538,444.824l8.405,7.231s7.105,4.949,9.783,2.906-9.624-12.5-9.624-12.5h0a24.866,24.866,0,0,1,7.374,4.7l1.463,1.357c3.848,3.567,4.716,3.567,4.847,8.809a7.367,7.367,0,0,1-.746,3.481c-1.247,1.223-2.12,10.105-1.928,11.145s-2.324,10.012-1.508,12.506-10.191-1.247-12.054,1.145S330,483.737,330,483.737s4.26-10.912,5.3-11.638,2.287-6.339,0-8.935a9.692,9.692,0,0,1-2.491-5.091s8.316.514,6.649-5.091a11.764,11.764,0,0,0-6.392-7.427Z" transform="translate(-206.906 -312.538)"/><path class="f" d="M353.521,493.38s-3.224,6.078-7.395,7.655c-.135.049-.265.094-.408.135C341.365,502.495,353.847,495.263,353.521,493.38Z" transform="translate(-215.671 -342.701)"/><path class="x" d="M245.812,341.588s1.557,3.95,2.8,5.3,10.493,14.858,10.493,14.858l.783,1.631.673,1.39,5.923-.624.408-2.389-.228-.277a27.988,27.988,0,0,0-3.306-3.465,38.3,38.3,0,0,1-4.052-4.464s-8.414-8.732-9.037-11.12-9.041-16.713-10.908-14.235S245.812,341.588,245.812,341.588Z" transform="translate(-153.054 -244.68)"/><g class="h" transform="translate(99.524 106.712)"><path d="M282.6,519.075a4.643,4.643,0,0,0-2.091.3c-1.467.713-1.745,2.642-2.56,4.056a6.855,6.855,0,0,1-4.643,3.057,10.376,10.376,0,0,1-1.125.155,12.778,12.778,0,0,0,3.571-.155,6.855,6.855,0,0,0,4.643-3.057c.815-1.414,1.092-3.343,2.56-4.056a3.261,3.261,0,0,1,1.223-.285Z" transform="translate(-272.18 -464.623)"/><path d="M322.609,408.7c0-3.241,2.107-6.033,3.844-8.768s3.2-6.188,1.822-9.123c-1.174-2.507-8.251-5.87-12.335-5.206,4,.518,8.927,3.151,9.889,5.206,1.374,2.935-.086,6.388-1.822,9.123s-3.852,5.528-3.844,8.768a38.054,38.054,0,0,1-1.431,11.377c-.33,1.162,2.853,2.919,2.364,4.019-1.655,3.669-.88,7.9-1.145,11.911a4.953,4.953,0,0,1-.558,2.25c-.815,1.341-2.487,1.688-4.113,1.761H316.7c1.9,0,4.154-.147,5.136-1.773A4.953,4.953,0,0,0,322.4,436c.265-4.011-.51-8.246,1.145-11.911.5-1.1-2.694-2.853-2.364-4.019A37.6,37.6,0,0,0,322.609,408.7Z" transform="translate(-297.711 -385.521)"/></g><path class="f" d="M290.12,412.14l.673,1.39,5.923-.624.408-2.389-.228-.277C296.263,410.55,291.53,412.828,290.12,412.14Z" transform="translate(-183.283 -293.452)"/><path class="f" d="M312.481,428.167s-1.455-2.283-2.287-1.663-1.154-1.871-1.631-1.455-1.867,1.573-2.446-.045c-.452-1.288-5.377-9.437-7.374-12.714-.514-.848-.836-1.37-.836-1.37s-5.609,2.8-6.958,1.871v1.973l1.141.106,6.115,11.414s1.924,3.061,1.794,4.129,2.466,5.744,2.882,6.053,4.892,5.507,4.892,5.507,2.287,11.222.31,14.341a21.275,21.275,0,0,1-5.4,5.4,17.438,17.438,0,0,0-.88,3.326c.151.314-1.2,1.663-.575,2.079s1.455,3.322,1.455,3.322,2.911-4.676,4.484-5.4,3.587-10.289,3.587-10.289.575-5.634.62-9.27S311.234,428.167,312.481,428.167Z" transform="translate(-183.774 -293.855)"/><path class="w" d="M311.711,428.167s-1.451-2.283-2.283-1.663-1.158-1.871-1.631-1.455-1.863,1.573-2.446-.045c-.457-1.288-5.381-9.437-7.374-12.714l-.836-1.37s-5.609,2.8-6.962,1.871v1.973l1.145.106,6.115,11.414s1.928,3.061,1.794,4.129,2.446,5.744,2.882,6.053,4.892,5.507,4.892,5.507,2.287,11.222.314,14.341a19.112,19.112,0,0,1-3.763,4.166,7.272,7.272,0,0,0-2.446,3.921,1.55,1.55,0,0,0-.073.652c.151.31-1.2,1.663-.575,2.079s1.463,3.335,1.463,3.335,2.911-4.676,4.484-5.4S310,454.778,310,454.778s.571-5.634.62-9.27S310.488,428.167,311.711,428.167Z" transform="translate(-183.318 -293.855)"/><path class="f" d="M307.3,569.21s4.366.815,6.115,2.075-6.649-1.973-6.649-1.973Z" transform="translate(-193.145 -387.62)"/><path class="f" d="M333.83,596.35s4.553,3.8,3.738,7.223-2.919,12.054-2.919,12.054Z" transform="translate(-209.175 -403.697)"/><path class="f" d="M227.392,578.45s-6.416.7-6,1.533,6-.766,6-.766Z" transform="translate(-142.559 -393.094)"/><path class="f" d="M352.319,652.8s.408.518-1.973,0-.624-2.116-.624-2.116Z" transform="translate(-218.219 -435.88)"/><path class="f" d="M347.3,673.126a15.162,15.162,0,0,1-5.01,0C340.541,672.608,347.3,673.126,347.3,673.126Z" transform="translate(-214.015 -449.04)"/><path class="f" d="M326.461,742.033s-.571-.624-3.428.518-4,1.194-4.83.815S326.461,742.033,326.461,742.033Z" transform="translate(-199.885 -489.894)"/><path class="f" d="M340.432,576.28l-4.052,5.638S338.561,576.981,340.432,576.28Z" transform="translate(-210.685 -391.808)"/><path class="f" d="M318.428,449.15s-.175,1.871-2.788,2.6-3.11,1.321-3.11,1.321" transform="translate(-196.557 -316.501)"/><path class="f" d="M300.1,415.88s-3.449,2.446-7.048,1.928" transform="translate(-185.018 -296.793)"/><path class="f" d="M316.78,541.252s1.007.632,3.424-2.132" transform="translate(-199.075 -369.796)"/><path class="f" d="M373.927,467.62a1.771,1.771,0,0,0-.583-1.37l-.677-.815a3.138,3.138,0,0,0-.444-.457c-.408-.314-.929-.408-1.353-.689" transform="translate(-231.116 -325.469)"/><path class="a" d="M870.8,123.785s-34.319-2.071-30.283,21.98c0,0-.815,4.252,3.049,6.18,0,0,.061-1.781,3.522-1.174a16.1,16.1,0,0,0,3.73.179,7.769,7.769,0,0,0,4.557-1.883h0s9.649-3.987,13.4-19.754c0,0,2.776-3.44,2.666-4.325l-5.793,2.474s1.981,4.178.408,7.651c0,0-.187-7.5-1.3-7.337-.224.037-3.008,1.447-3.008,1.447s3.4,7.276.836,12.567c0,0,.974-8.968-1.9-12.042l-4.076,2.381s3.979,7.517,1.28,13.652c0,0,.693-9.408-2.14-13.073l-3.693,2.882s3.738,7.411,1.459,12.5c0,0-.3-10.953-2.258-11.781,0,0-3.233,2.853-3.726,4.019,0,0,2.56,5.381.97,8.218,0,0-.974-7.3-1.773-7.337,0,0-3.22,4.835-3.555,8.153a17.565,17.565,0,0,1,2.776-8.609,9.7,9.7,0,0,0-4.932,2.552s.5-3.416,5.727-3.714c0,0,2.662-3.669,3.371-3.893,0,0-5.193-.432-8.344.962,0,0,2.772-3.224,9.3-1.757l3.648-2.98s-6.84-.933-9.743.1c0,0,3.339-2.853,10.725-.775l3.97-2.372s-5.833-1.256-9.306-.815c0,0,3.669-1.977,10.472.167l2.854-1.276s-4.272-.84-5.523-.974-1.317-.477-1.317-.477a14.817,14.817,0,0,1,8.026.893S870.91,124.164,870.8,123.785Z" transform="translate(-509.125 -123.74)"/><path class="a" d="M791.362,138.831s-15.49-.938-13.676,9.93a2.657,2.657,0,0,0,1.374,2.8s.029-.815,1.594-.534a7.136,7.136,0,0,0,1.683.082,3.494,3.494,0,0,0,2.059-.852h0s4.362-1.8,6.057-8.923c0,0,1.251-1.557,1.2-1.957l-2.617,1.117a4.693,4.693,0,0,1,.192,3.461s-.086-3.392-.587-3.31c-.1,0-1.362.652-1.362.652s1.541,3.29.379,5.682c0,0,.44-4.052-.86-5.442l-1.843,1.076s1.8,3.4.579,6.168c0,0,.314-4.252-.966-5.907l-1.667,1.317s1.688,3.351.66,5.646c0,0-.135-4.949-1.023-5.32a10.225,10.225,0,0,0-1.684,1.818s1.158,2.446.44,3.71c0,0-.44-3.3-.815-3.31a11.06,11.06,0,0,0-1.606,3.669,7.971,7.971,0,0,1,1.255-3.893,4.386,4.386,0,0,0-2.23,1.154s.228-1.541,2.589-1.679a11.144,11.144,0,0,1,1.525-1.757,9.558,9.558,0,0,0-3.771.436s1.251-1.459,4.2-.815l1.63-1.345a14.066,14.066,0,0,0-4.4.045s1.508-1.288,4.847-.351l1.794-1.072a16.12,16.12,0,0,0-4.207-.363s1.659-.9,4.733.073l1.284-.575s-1.932-.383-2.5-.44-.6-.216-.6-.216a6.681,6.681,0,0,1,3.628.408A16.448,16.448,0,0,0,791.362,138.831Z" transform="translate(-472.011 -132.667)"/><ellipse class="aa" cx="16.391" cy="2.772" rx="16.391" ry="2.772" transform="translate(357.069 259.729)"/><path class="aa" d="M938.793,745.6a4.745,4.745,0,0,0,1.561-2.36,2.1,2.1,0,0,0-1.092-2.4c-1-.383-2.075.314-2.886,1.015s-1.745,1.5-2.8,1.353a4.28,4.28,0,0,0,1.321-4,1.681,1.681,0,0,0-.367-.815c-.558-.6-1.565-.342-2.234.126-2.12,1.492-2.711,4.374-2.723,6.962a13.091,13.091,0,0,1-.037-2.853,2.94,2.94,0,0,0-1.08-2.54,3.223,3.223,0,0,0-1.63-.383,3.385,3.385,0,0,0-2.662.758,2.627,2.627,0,0,0,.1,3.261,10.38,10.38,0,0,0,2.76,2.209,6.114,6.114,0,0,1,1.969,1.879,1.694,1.694,0,0,1,.147.338h5.976a16.62,16.62,0,0,0,3.681-2.552Z" transform="translate(-558.554 -487.633)"/></g></svg>