<svg xmlns="http://www.w3.org/2000/svg" xmlns:xlink="http://www.w3.org/1999/xlink" width="373.653" height="236.738" viewBox="0 0 373.653 236.738"><defs><style>.a,.f{fill:#6c63ff;}.a,.d,.e{opacity:0.1;}.b{fill:#3f3d56;}.c{fill:#fabdbd;}.g{fill:url(#a);}.h{fill:#596c76;}.i{fill:#6159e5;}.j{fill:#00ff9f;}.k{fill:#4740b1;}.l{fill:#ada7ff;}.m{fill:#968ffd;}.n{fill:#e8edf2;}.o{fill:#c5d3dd;}.p{fill:#ed90ff;}</style><linearGradient id="a" x1="1.825" y1="0.301" x2="0.797" y2="1.3" gradientUnits="objectBoundingBox"><stop offset="0" stop-color="#001eff"/><stop offset="1" stop-color="#d600ff"/></linearGradient></defs><g transform="translate(-6.251 -11.952)"><path class="a" d="M307.386,157.1c-22.37-.795-43.675-8.015-64-15.9s-40.495-16.656-62.329-20.842c-14.043-2.693-30.1-3.073-41.418,4.455-10.891,7.258-14.41,19.753-16.3,31.36-1.424,8.731-2.26,17.918,1.638,26.092,2.71,5.675,7.514,10.445,10.839,15.882,11.568,18.913,3.391,42.237-9.142,60.7-5.876,8.665-12.7,16.936-17.24,26.151s-6.636,19.788-2.665,29.2c3.933,9.332,13.31,16.328,23.469,21.253,20.631,10,44.933,12.868,68.647,14.489,52.478,3.591,105.232,2.036,157.849.48,19.473-.577,39.029-1.161,58.184-4.172,10.639-1.673,21.62-4.327,29.345-10.732,9.8-8.133,12.232-21.906,5.662-32.1-11.019-17.106-41.476-21.353-49.187-39.714-4.237-10.1.114-21.36,6.277-30.731,13.217-20.1,35.369-37.74,36.534-60.721.8-15.782-9.847-31.588-26.313-39.057-17.258-7.829-41.193-6.844-53.919,6.114C350.183,152.637,327.139,157.77,307.386,157.1Z" transform="translate(-85.742 -106.646)"/><path class="b" d="M575.813,611.591c.214,2.765,1.279,5.627,3.519,7.258s5.8,1.6,7.514-.591a8.406,8.406,0,0,0,1.248-2.713c1.441-4.555,2.464-9.54.885-14.05-3.564-.232-7.694-1.908-10.369,1.037A12.284,12.284,0,0,0,575.813,611.591Z" transform="translate(-394.017 -422.188)"/><path class="c" d="M589.11,526.988c-.474,4.02-1.279,8.022-1.2,12.07.031,1.562.2,3.111.2,4.68A23.067,23.067,0,0,1,585,555.34a3.892,3.892,0,0,1-.85,1.1,2.73,2.73,0,0,1-2.972.1,5.848,5.848,0,0,1-2.112-2.292c-2.575-4.41-2.648-9.771-3.667-14.773-.781-3.826-2.15-7.535-2.644-11.406-.321-2.492-.273-5.032-.785-7.493-.156-.743-.591-1.86-.878-2.955a4.443,4.443,0,0,1-.138-2.6c.55-1.351,2.35-.826,3.522-.743a81.071,81.071,0,0,0,12.394-.031,1.065,1.065,0,0,1,1.434.743,16.774,16.774,0,0,1,.75,2.765A30.722,30.722,0,0,1,589.11,526.988Z" transform="translate(-390.772 -365.454)"/><g class="d" transform="translate(180.048 148.656)"><path d="M606.7,514.478a3.043,3.043,0,0,0-.639,0c-1.977.159-3.958.238-5.935.249Q603.417,514.734,606.7,514.478Z" transform="translate(-590.004 -514.34)"/><path d="M581.893,556.541a5.848,5.848,0,0,1-2.112-2.292c-2.575-4.41-2.648-9.771-3.667-14.773-.781-3.826-2.15-7.535-2.644-11.406-.321-2.492-.273-5.032-.785-7.493-.156-.743-.591-1.86-.878-2.955a4.443,4.443,0,0,1-.138-2.6,1.472,1.472,0,0,1,1.383-.9c-.874-.059-1.728.045-2.074.9a4.443,4.443,0,0,0,.138,2.6c.287,1.1.722,2.212.878,2.955.512,2.461.463,5,.785,7.493.494,3.875,1.863,7.583,2.644,11.406,1.02,5,1.092,10.369,3.667,14.773a5.848,5.848,0,0,0,2.112,2.292,3.069,3.069,0,0,0,1.811.366A3.187,3.187,0,0,1,581.893,556.541Z" transform="translate(-570.833 -514.111)"/></g><path class="c" d="M636.38,535.3c-2.074,4.148-1.728,10.023-1.728,10.023.346,13.826-5.185,42.859-5.185,42.859h-4.839s-.691-32.144,0-34.909-.346-12.443-1.383-25.923A69.194,69.194,0,0,1,625.7,504.26c.387-1.383.657-2.139.657-2.139s7.95-11.752,12.443-6.221c1.037,1.286,1.586,3.882,1.777,7.158C641.191,513.868,637.969,532.118,636.38,535.3Z" transform="translate(-424.973 -352.569)"/><path class="e" d="M650.706,503.061c-.19-3.277-.733-5.876-1.777-7.158a3.56,3.56,0,0,0-3.394-1.441,3.684,3.684,0,0,1,2.357,1.441c1.037,1.286,1.586,3.882,1.777,7.158.615,10.811-2.606,29.061-4.2,32.244-2.074,4.148-1.728,10.023-1.728,10.023.346,13.825-5.185,42.859-5.185,42.859H639.6s5.53-29.033,5.185-42.859c0,0-.346-5.876,1.728-10.023C648.1,532.123,651.321,513.873,650.706,503.061Z" transform="translate(-435.103 -352.574)"/><path class="b" d="M618.017,754.8a4.494,4.494,0,0,0-.989,1.078c-.619,1.168.259,2.565,1.2,3.494s2.074,1.925,2.074,3.249a3.24,3.24,0,0,1-1.707,2.544c-.484.3-1.092.691-.992,1.265a1.187,1.187,0,0,0,.183.4,5.35,5.35,0,0,0,3.536,2.143,15.948,15.948,0,0,0,4.238.035.853.853,0,0,0,.581-.2.788.788,0,0,0,.156-.477,6.208,6.208,0,0,1,.346-2.167c.449-.9,1.483-1.362,2.074-2.171a4.825,4.825,0,0,0,.4-3.989,16.453,16.453,0,0,0-4.538-8.3C621.9,749.382,619.8,753.114,618.017,754.8Z" transform="translate(-420.878 -520.445)"/><path class="b" d="M449.792,225.466c1.929-2.883,1.427-6.913-.543-9.781s-5.136-4.673-8.4-5.838a23.652,23.652,0,0,0-13.784-.926c-3.6.937-6.837,2.9-10.231,4.41a44,44,0,0,1-19.107,3.8c-7.3-.2-15.291-2.074-21.412,1.915-11.206,7.289-6.221,27.129-16.822,35.255-2.858,2.191-6.456,3.149-9.636,4.839s-6.194,4.632-6.118,8.233a9.579,9.579,0,0,0,1.728,4.839,22.393,22.393,0,0,0,18.848,10.127,24,24,0,0,0,18.993-10.12c1.075-1.524,2.022-3.221,3.581-4.237,3.111-2.039,7.21-.612,10.922-.308a17.71,17.71,0,0,0,18.177-13.67c.691-3.474.57-7.625,3.366-9.806,2.257-1.759,5.433-1.383,8.3-1.683,5.233-.543,9.363-3.8,12.2-8.06,1.3-1.953,1.455-4.286,3.232-5.824C445,226.942,447.96,228.19,449.792,225.466Z" transform="translate(-242.181 -165.332)"/><g class="d" transform="translate(120.563 42.94)"><path d="M459.759,233.354a43.817,43.817,0,0,0,9.045-.691c-.823.024-1.652.024-2.478,0-5.727-.159-11.883-1.341-17.227.083C452.625,232.78,456.272,233.257,459.759,233.354Z" transform="translate(-431.69 -223.826)"/><path d="M415.953,380.958c-1.559,1.016-2.506,2.713-3.581,4.238a24.281,24.281,0,0,1-13.642,9.4c.4.017.809.028,1.217.024a23.99,23.99,0,0,0,18.993-10.12c1.075-1.524,2.022-3.221,3.581-4.237l.27-.166C420.35,379.765,417.954,379.648,415.953,380.958Z" transform="translate(-398.73 -320.559)"/><path d="M598.648,215.655c-1.967-2.855-5.136-4.673-8.4-5.838a23.651,23.651,0,0,0-13.784-.926c-.1.024-.2.055-.3.083a26.459,26.459,0,0,1,7.521,1.535c3.266,1.165,6.436,2.983,8.4,5.838s2.471,6.913.543,9.781c-1.832,2.734-4.794,1.486-6.733,3.169-1.777,1.538-1.929,3.871-3.232,5.824a17.773,17.773,0,0,1-10.079,7.673c1.455-.173,2.99-.152,4.441-.3,5.233-.543,9.363-3.8,12.2-8.06,1.3-1.953,1.455-4.286,3.232-5.824,1.939-1.683,4.9-.436,6.733-3.169C601.123,222.554,600.622,218.51,598.648,215.655Z" transform="translate(-512.491 -208.252)"/><path d="M521.655,309.231c-2.845.3-6.021-.076-8.3,1.683-2.8,2.181-2.661,6.332-3.367,9.806A17.746,17.746,0,0,1,498,333.664l.411.038a17.71,17.71,0,0,0,18.177-13.67c.691-3.474.57-7.625,3.367-9.806a6.242,6.242,0,0,1,2.146-1.037C521.946,309.193,521.8,309.218,521.655,309.231Z" transform="translate(-463.689 -274.302)"/></g><path class="c" d="M568.527,173.734s-8.3,16.591-11.06,22.812-28,15.554-31.453,15.9a4.452,4.452,0,0,0-2.468,1.189,13.6,13.6,0,0,0-3.062,4.687s1.383,9.332-.346,24.886c-.035.3-.066.6-.093.892-1.507,14.8,1.649,18.291,1.649,18.291s-33.527,12.789-32.49-3.8a75.18,75.18,0,0,0-.045-12.229,51.348,51.348,0,0,0-1.984-9.629c-.819-2.865-1.8-6.007-2.81-10.286a45.12,45.12,0,0,0-1.922-6.273c-.024-.062-.048-.124-.069-.183-1.728-4.289-3.456-5.675-4.445-6.125a14.941,14.941,0,0,1-2.654-1.493,139.614,139.614,0,0,1-16.152-13.577c-8.3-8.3-16.591-28-16.591-28s-2.419-11.406,3.111-20.738,3.111,18.319,3.111,18.319,10.023,13.48,12.443,19.7a10.4,10.4,0,0,0,4.839,5.689,57.377,57.377,0,0,1,7.652,4.784,44.683,44.683,0,0,0,5.147,3.36c3.864,2.074,8.492,4.414,12.35,5.029a11.642,11.642,0,0,0,1.822.156,1.887,1.887,0,0,0,1.521-.691c1.037-1.22,1.013-3.847.774-6.007a30.528,30.528,0,0,0-.567-3.328s11.233-7.086,10.888,1.555a9.658,9.658,0,0,0,.263,2.841,4.925,4.925,0,0,0,3.349,3.664,8.3,8.3,0,0,0,4.148.135,4.054,4.054,0,0,0,1.224-.418c1.037-.691,11.406-3.8,14.517-4.148s18.664-7.95,18.664-7.95l16.936-23.5s-.346-13.825,6.567-19.356S568.527,173.734,568.527,173.734Z" transform="translate(-306.485 -125.973)"/><g class="d" transform="translate(135.515 24.704)"><path d="M667.026,391.662a68.913,68.913,0,0,0-.4,8.364c.035-1.825.156-3.909.4-6.291.028-.29.059-.591.093-.892a135.542,135.542,0,0,0,.864-16.034,138.833,138.833,0,0,1-.864,13.96C667.1,391.071,667.054,391.372,667.026,391.662Z" transform="translate(-588.981 -300.314)"/><path d="M594.946,289.07c-.232.135-.346.218-.346.218a29.607,29.607,0,0,1,.664,4.493A21.2,21.2,0,0,0,594.946,289.07Z" transform="translate(-541.852 -242.9)"/><path d="M461.725,181.174c.169-2.419.422-6.757.373-10.615-.059,5.157-.518,10.417-.518,10.417Z" transform="translate(-454.809 -165.351)"/><path d="M578.54,466.53a2.272,2.272,0,0,1-.024.4c-1.037,16.591,32.49,3.8,32.49,3.8a5.626,5.626,0,0,1-.874-1.756C605.081,470.778,579.7,479.135,578.54,466.53Z" transform="translate(-531.312 -359.023)"/><path d="M717.1,176.474s-8.3,16.591-11.06,22.812-28,15.554-31.453,15.9a4.452,4.452,0,0,0-2.468,1.189,13.6,13.6,0,0,0-3.062,4.687s.083.563.183,1.635a12.849,12.849,0,0,1,2.879-4.248,4.452,4.452,0,0,1,2.468-1.189c3.456-.346,28.688-9.678,31.453-15.9s11.06-22.812,11.06-22.812,5.845-17.748,5.2-23.057C721.773,162.292,717.1,176.474,717.1,176.474Z" transform="translate(-590.576 -155.49)"/><path d="M489.148,273.722a51.351,51.351,0,0,0-1.984-9.629c-.819-2.865-1.8-6.007-2.81-10.286a45.128,45.128,0,0,0-1.922-6.273c-.024-.062-.048-.124-.069-.183-1.728-4.289-3.456-5.675-4.445-6.125a14.942,14.942,0,0,1-2.654-1.493,139.615,139.615,0,0,1-16.152-13.577c-8.3-8.3-16.591-28-16.591-28a31.252,31.252,0,0,1-.512-5.039,33.318,33.318,0,0,0,.512,7.113s8.3,19.7,16.591,28a139.614,139.614,0,0,0,16.152,13.577,14.942,14.942,0,0,0,2.675,1.493c.985.449,2.71,1.835,4.445,6.125.021.059.045.121.069.183a45.118,45.118,0,0,1,1.911,6.273c1.013,4.279,1.991,7.421,2.81,10.286a51.351,51.351,0,0,1,1.984,9.629c.145,1.445.232,3.017.256,4.787A60.2,60.2,0,0,0,489.148,273.722Z" transform="translate(-441.989 -180.114)"/></g><path class="f" d="M599.685,337.225a20.593,20.593,0,0,0-1.383,2.724,16.453,16.453,0,0,0-.622,4.569,36.687,36.687,0,0,1-.982,6.4,7.082,7.082,0,0,1-.346,1.134,3,3,0,0,1-.4.691,2.949,2.949,0,0,1-.643.584,7.544,7.544,0,0,1-1.172.639c-4.811,2.247-10.058,4.231-15.308,3.456a22.277,22.277,0,0,1-6.37-2.143c-1.9-.923-4.051-2.018-6.021-1.251h0a3.031,3.031,0,0,1-.964.3.919.919,0,0,1-.194-.017c-.65-.124-.65-2.316-.8-2.962-.567-2.482-.653-4.493-.992-6.65a21.817,21.817,0,0,0-.833-3.515,41.507,41.507,0,0,1-1.8-13.024c0-.218-1.555,0-2.074-.021-.131,0-.2-.021-.173-.066a.689.689,0,0,1,.1-.118,1.58,1.58,0,0,1,.619-.308l.408-.121c2.136-.6,4.493-.857,6.09-2.361,1.659-1.552,2.074-4.03,2-6.3a37.477,37.477,0,0,1-.318-3.968,11.643,11.643,0,0,0,1.822.156,1.887,1.887,0,0,0,1.521-.691,27.306,27.306,0,0,1,1.493,3.456,23.88,23.88,0,0,0,1.9,4.272,7.234,7.234,0,0,0,6.47,3.315,6.009,6.009,0,0,0,5.35-4.666c.4-2.195-.525-5.354-.5-7.635a8.3,8.3,0,0,0,4.148.135,3.746,3.746,0,0,1,.149.432c.778,2.668,1.815,5.731,4.424,6.678,1.687.608,3.681.152,5.24,1.037a3.362,3.362,0,0,1,.346.228,3.827,3.827,0,0,1,.916.971,7.808,7.808,0,0,1,1.109,3.484A19.327,19.327,0,0,1,599.685,337.225Z" transform="translate(-382.78 -233.927)"/><path class="e" d="M605.71,288.92a11.779,11.779,0,0,1-10.583-1.068,30.528,30.528,0,0,0-.567-3.328s11.233-7.086,10.888,1.555A9.658,9.658,0,0,0,605.71,288.92Z" transform="translate(-406.311 -213.432)"/><circle class="c" cx="11.752" cy="11.752" r="11.752" transform="translate(183.406 52.082)"/><path class="g" d="M557.06,343.547s22.121-14.517,92.976,1.037,111.295,3.111,111.295,3.111l.346,14.862s-78.805,8.641-109.221,0-73.368-14.662-88.531-1.282Z" transform="translate(-381.773 -249.816)"/><path class="g" d="M228.03,374.539s-22.121,14.517-92.976-1.037-66.708-3.111-66.708-3.111L68,355.529s34.218-8.641,64.634,0,73.368,14.662,88.531,1.282Z" transform="translate(-61.749 -259.172)"/><path class="b" d="M564.42,238.441c-.346-2.157-.878-4.873.926-6.107a3.837,3.837,0,0,1,2.14-.553c3.736-.038,7.307,2.565,10.97,1.8a6.183,6.183,0,0,0,2.419-11.015,12.424,12.424,0,0,0-5.026-1.822c-4.635-.954-9.474-1.9-14.05-.691s-8.758,5.316-8.392,10.023a14.159,14.159,0,0,0,2.52,6.221c.912,1.459,4.466,8.3,6.19,8.4C564.551,244.843,564.658,239.852,564.42,238.441Z" transform="translate(-379.368 -172.662)"/><path class="f" d="M604.411,461.7s-23.849,5.876-31.8,0c0,0-3.456,13.48-2.419,20.393,0,0,16.936,1.037,18.664,2.074,0,0,.346-2.765,2.074-1.383,0,0,5.876-6.913,16.591-.691C607.521,482.093,609.6,465.848,604.411,461.7Z" transform="translate(-390.239 -331.159)"/><path class="e" d="M594.077,227.494a6.858,6.858,0,0,0-.771-.484,6.17,6.17,0,0,1-3.384,10.117c-3.664.76-7.234-1.842-10.97-1.8a3.837,3.837,0,0,0-2.14.553c-1.8,1.234-1.275,3.951-.93,6.107.228,1.41.135,6.4-2.292,6.266h-.042c.667.812,1.289,1.362,1.77,1.383,2.419.135,2.52-4.839,2.292-6.266-.346-2.157-.874-4.873.93-6.107a3.837,3.837,0,0,1,2.14-.553c3.736-.038,7.307,2.565,10.97,1.8a6.183,6.183,0,0,0,2.419-11.015Z" transform="translate(-392.563 -177.586)"/><g transform="matrix(0.883, -0.469, 0.469, 0.883, 16.125, 187.09)"><path class="h" d="M222.747,75.484h-3.8V70.106h3.8a1.581,1.581,0,0,1,1.581,1.581V73.9A1.581,1.581,0,0,1,222.747,75.484Z" transform="translate(-145.024 -59.453)"/><path class="f" d="M76.236,226.782h31.612v37.057H76.236Z" transform="translate(-23.999 -192.318)"/><path class="i" d="M259.942,226.782h3.694v37.057h-3.694Z" transform="translate(-179.786 -192.318)"/><path class="i" d="M55.435,195.472a2.575,2.575,0,0,0,2.575,2.575H90.795a2.575,2.575,0,1,0,0-5.15H58.01a2.575,2.575,0,0,0-2.575,2.575Z" transform="translate(-6.359 -163.583)"/><path class="j" d="M116.314,226.781v15.893a2.636,2.636,0,1,0,5.271,0V234.01a2.636,2.636,0,1,1,5.271,0v1.768a2.636,2.636,0,1,0,5.271,0v-9H116.314Z" transform="translate(-57.986 -192.317)"/><path class="i" d="M55.435,473.191a2.575,2.575,0,0,0,2.575,2.575H90.795a2.575,2.575,0,0,0,0-5.15H58.01a2.575,2.575,0,0,0-2.575,2.575Z" transform="translate(-6.359 -399.096)"/><path class="k" d="M267.753,192.9h-3.647a2.575,2.575,0,0,1,0,5.15h3.647a2.575,2.575,0,1,0,0-5.15Z" transform="translate(-183.318 -163.583)"/><path class="k" d="M267.753,470.616h-3.647a2.575,2.575,0,1,1,0,5.149h3.647a2.575,2.575,0,1,0,0-5.149Z" transform="translate(-183.318 -399.095)"/><path class="l" d="M153.3,50.637H141.533V37.029a1.763,1.763,0,0,1,1.763-1.763h8.24a1.763,1.763,0,0,1,1.763,1.763V50.637Z" transform="translate(-79.373 -29.908)"/><path class="m" d="M187.95,35.266h-3.477a1.763,1.763,0,0,1,1.763,1.763V50.637h3.477V37.029A1.763,1.763,0,0,0,187.95,35.266Z" transform="translate(-115.787 -29.908)"/><path class="n" d="M118.5,145a14.174,14.174,0,0,0-7.6-8.584H99.139a14.175,14.175,0,0,0-7.6,8.584Z" transform="translate(-36.978 -115.681)"/><path class="o" d="M199.55,136.411h-3.477a14.175,14.175,0,0,1,7.6,8.584h3.477A14.174,14.174,0,0,0,199.55,136.411Z" transform="translate(-125.624 -115.681)"/><path class="n" d="M316.748,19.7a5.153,5.153,0,0,0-4.358-5.091,5.151,5.151,0,1,0-9.775-.755,3.445,3.445,0,0,1-2.64,4.183l-7.9,1.22a.449.449,0,0,0,0,.887l7.9,1.22a3.47,3.47,0,0,1,2.63,4.224,5.152,5.152,0,1,0,9.785-.8A5.153,5.153,0,0,0,316.748,19.7Z" transform="translate(-206.71 -6.362)"/><g transform="translate(47.936 -0.001)"><path class="b" d="M88.15,55.437a3.719,3.719,0,0,0-3.715-3.715h-2.1a15.318,15.318,0,0,0-7.267-8.156V40.72h2.658A2.723,2.723,0,0,0,80.444,38V35.782a2.723,2.723,0,0,0-2.72-2.72H75.066V30.67a2.906,2.906,0,0,0-2.9-2.9h-8.24a2.906,2.906,0,0,0-2.9,2.9v12.9a15.318,15.318,0,0,0-7.267,8.156h-2.1A3.715,3.715,0,0,0,51.1,59.11V93.97a3.715,3.715,0,0,0,.553,7.388H84.436a3.715,3.715,0,0,0,.553-7.388V59.111a3.72,3.72,0,0,0,3.161-3.673Zm-10.427-20.1a.441.441,0,0,1,.441.441V38a.441.441,0,0,1-.441.441H75.066v-3.1Zm-13.8-5.295h8.24a.624.624,0,0,1,.623.623V43.138H63.3V30.67A.624.624,0,0,1,63.923,30.047ZM62.414,45.418H73.672a13.039,13.039,0,0,1,6.192,6.3H56.223A13.039,13.039,0,0,1,62.414,45.418Zm-12.2,10.02A1.437,1.437,0,0,1,51.651,54H84.436a1.435,1.435,0,0,1,0,2.87H51.651A1.437,1.437,0,0,1,50.216,55.437Zm3.161,38.492V59.152h3.811v6.34a1.14,1.14,0,0,0,2.28,0v-6.34H73v7.857a1.5,1.5,0,1,1-2.992,0V65.241a3.776,3.776,0,1,0-7.551,0V73.9a1.5,1.5,0,1,1-2.992,0V70.052a1.14,1.14,0,0,0-2.28,0V73.9a3.776,3.776,0,0,0,7.551,0V65.241a1.5,1.5,0,1,1,2.992,0v1.768a3.776,3.776,0,1,0,7.551,0V59.152h7.428V93.929H53.377Zm32.494,3.715a1.437,1.437,0,0,1-1.435,1.435H51.651a1.435,1.435,0,0,1,0-2.87H84.436A1.437,1.437,0,0,1,85.871,97.644Z" transform="translate(-47.936 -23.547)"/><path class="b" d="M311.528,13.342a6.252,6.252,0,0,0-4.077-5.894,6.3,6.3,0,0,0-5.78-7.437A6.241,6.241,0,0,0,296.959,1.7a6.3,6.3,0,0,0-1.812,6.058,2.3,2.3,0,0,1-.295,1.783,2.276,2.276,0,0,1-1.443,1.012l-7.871,1.215a1.589,1.589,0,0,0,0,3.14l7.871,1.215a2.245,2.245,0,0,1,1.417.99,2.409,2.409,0,0,1,.309,1.855,6.3,6.3,0,0,0,5.727,7.7q.2.013.4.013a6.265,6.265,0,0,0,4.054-1.48,1.14,1.14,0,0,0-1.47-1.743A4,4,0,0,1,301,24.4a4.016,4.016,0,0,1-3.649-4.912,4.67,4.67,0,0,0-.61-3.6,4.507,4.507,0,0,0-2.9-2l-.059-.011-3.479-.537,3.48-.537.059-.011a4.584,4.584,0,0,0,3.515-5.564,4.029,4.029,0,0,1-.11-.94,4.012,4.012,0,0,1,4.274-4,4.054,4.054,0,0,1,3.743,3.772,3.994,3.994,0,0,1-.294,1.758,1.14,1.14,0,0,0,.88,1.561,4.012,4.012,0,0,1,0,7.929,1.14,1.14,0,0,0-.88,1.561,3.983,3.983,0,0,1,.3,1.384,1.14,1.14,0,0,0,2.278-.079,6.31,6.31,0,0,0-.1-.936,6.252,6.252,0,0,0,4.078-5.894Z" transform="translate(-248.287 0.001)"/></g></g><g transform="matrix(-0.883, -0.469, 0.469, -0.883, 303.32, 247.935)"><path class="h" d="M4.787,0H0V6.78H4.787A1.993,1.993,0,0,0,6.78,4.787V1.993A1.993,1.993,0,0,0,4.787,0Z" transform="translate(32.765 77.882)"/><path class="f" d="M0,46.716H39.853V0H0Z" transform="translate(5.422 7.928)"/><path class="i" d="M0,46.716H4.657V0H0Z" transform="translate(40.618 7.928)"/><path class="i" d="M0,3.246A3.246,3.246,0,0,1,3.246,0H44.577a3.246,3.246,0,1,1,0,6.492H3.246A3.246,3.246,0,0,1,0,3.246Z" transform="translate(1.437 54.645)"/><path class="p" d="M0,23.358V3.323a3.323,3.323,0,1,1,6.645,0V14.245a3.323,3.323,0,1,0,6.645,0V12.016a3.323,3.323,0,1,1,6.645,0V23.358H0Z" transform="translate(13.101 31.286)"/><path class="i" d="M0,3.246A3.246,3.246,0,0,1,3.246,0H44.577a3.246,3.246,0,1,1,0,6.492H3.246A3.246,3.246,0,0,1,0,3.246Z" transform="translate(1.437 1.437)"/><path class="k" d="M4.6,6.492H0A3.246,3.246,0,0,0,3.246,3.246,3.246,3.246,0,0,0,0,0H4.6a3.246,3.246,0,1,1,0,6.492Z" transform="translate(41.416 54.645)"/><path class="k" d="M4.6,6.492H0A3.246,3.246,0,0,0,3.246,3.246,3.246,3.246,0,0,0,0,0H4.6a3.246,3.246,0,1,1,0,6.492Z" transform="translate(41.416 1.437)"/><path class="l" d="M14.832,0H0V17.156a2.222,2.222,0,0,0,2.222,2.222H12.61a2.222,2.222,0,0,0,2.222-2.222V0Z" transform="translate(17.932 71.959)"/><path class="m" d="M4.383,19.378H0a2.222,2.222,0,0,0,2.222-2.222V0H6.605V17.156A2.222,2.222,0,0,1,4.383,19.378Z" transform="translate(26.159 71.959)"/><path class="n" d="M33.988,0A17.869,17.869,0,0,1,24.41,10.822H9.578A17.869,17.869,0,0,1,0,0Z" transform="translate(8.354 61.136)"/><path class="o" d="M4.383,10.822H0A17.87,17.87,0,0,0,9.578,0h4.383A17.869,17.869,0,0,1,4.383,10.822Z" transform="translate(28.382 61.136)"/><path class="n" d="M31.588,15.385A6.5,6.5,0,0,1,26.094,21.8a6.494,6.494,0,1,1-12.323.952,4.343,4.343,0,0,0-3.328-5.273L.479,15.943a.566.566,0,0,1,0-1.118l9.964-1.538a4.374,4.374,0,0,0,3.316-5.324,6.495,6.495,0,1,1,12.335,1A6.5,6.5,0,0,1,31.588,15.385Z" transform="translate(46.701 65.887)"/><g transform="translate(0 0)"><path class="b" d="M50.7,57.89a4.688,4.688,0,0,1-4.683,4.683H43.363A19.311,19.311,0,0,1,34.2,72.855v3.59h3.35a3.433,3.433,0,0,1,3.429,3.429v2.795A3.433,3.433,0,0,1,37.552,86.1H34.2v3.016a3.663,3.663,0,0,1-3.659,3.659H20.154A3.663,3.663,0,0,1,16.5,89.114V72.855A19.311,19.311,0,0,1,7.334,62.573H4.683a4.683,4.683,0,0,1-.7-9.313V9.313A4.683,4.683,0,0,1,4.683,0H46.014a4.683,4.683,0,0,1,.7,9.313V53.26A4.69,4.69,0,0,1,50.7,57.89ZM37.552,83.225a.556.556,0,0,0,.556-.556V79.874a.556.556,0,0,0-.556-.556H34.2v3.906ZM20.155,89.9H30.542a.786.786,0,0,0,.786-.786V73.4H19.369V89.114A.786.786,0,0,0,20.155,89.9Zm-1.9-19.378H32.444a16.438,16.438,0,0,0,7.806-7.948h-29.8A16.438,16.438,0,0,0,18.253,70.522ZM2.874,57.89A1.811,1.811,0,0,0,4.683,59.7H46.014a1.809,1.809,0,0,0,0-3.618H4.683A1.811,1.811,0,0,0,2.874,57.89ZM6.859,9.365V53.208h4.8V45.215a1.437,1.437,0,0,1,2.874,0v7.993H31.6V43.3a1.886,1.886,0,1,0-3.772,0v2.229a4.76,4.76,0,0,1-9.519,0V34.609a1.886,1.886,0,1,0-3.772,0v4.858a1.437,1.437,0,0,1-2.874,0V34.609a4.76,4.76,0,0,1,9.519,0V45.531a1.886,1.886,0,1,0,3.772,0V43.3a4.76,4.76,0,1,1,9.519,0v9.905h9.364V9.365H6.859ZM47.823,4.682a1.811,1.811,0,0,0-1.809-1.809H4.683a1.809,1.809,0,1,0,0,3.618H46.014A1.811,1.811,0,0,0,47.823,4.682Z" transform="translate(0 0)"/><path class="b" d="M34.462,16.821a7.882,7.882,0,0,1-5.14,7.43,7.941,7.941,0,0,1-7.287,9.375A7.868,7.868,0,0,1,16.1,31.494a7.942,7.942,0,0,1-2.285-7.638,2.9,2.9,0,0,0-.372-2.248,2.87,2.87,0,0,0-1.819-1.276L1.7,18.8a2,2,0,0,1,0-3.958l9.922-1.532a2.83,2.83,0,0,0,1.787-1.248,3.037,3.037,0,0,0,.39-2.339A7.937,7.937,0,0,1,21.016.016Q21.27,0,21.523,0a7.9,7.9,0,0,1,5.111,1.866,1.437,1.437,0,0,1-1.853,2.2A5.043,5.043,0,0,0,21.2,2.884a5.063,5.063,0,0,0-4.6,6.192,5.887,5.887,0,0,1-.769,4.534,5.682,5.682,0,0,1-3.653,2.52l-.074.014-4.386.677L12.1,17.5l.075.013a5.779,5.779,0,0,1,4.431,7.015,5.079,5.079,0,0,0-.139,1.184,5.058,5.058,0,0,0,5.388,5.047A5.111,5.111,0,0,0,26.573,26a5.035,5.035,0,0,0-.371-2.216,1.437,1.437,0,0,1,1.109-1.967,5.058,5.058,0,0,0,0-10A1.437,1.437,0,0,1,26.2,9.856a5.021,5.021,0,0,0,.376-1.745,1.437,1.437,0,0,1,2.872.1,7.955,7.955,0,0,1-.129,1.179,7.881,7.881,0,0,1,5.14,7.43Z" transform="translate(45.264 64.451)"/></g></g></g></svg>