<svg xmlns="http://www.w3.org/2000/svg" width="364" height="60" viewBox="0 0 364 60"><defs><style>.a{fill:#00ff9f;}.b{fill:#00b8ff;}.c{fill:#fff;font-size:30px;font-family:Metropolis-Bold, Metropolis;font-weight:700;}</style></defs><g transform="translate(-57.681 -867)"><g transform="translate(57.681 867)"><path class="a" d="M18,0H339a18,18,0,0,1,18,18v0a18,18,0,0,1-18,18H0a0,0,0,0,1,0,0V18A18,18,0,0,1,18,0Z" transform="translate(0 24)"/><path class="b" d="M18,0H357a0,0,0,0,1,0,0V18a18,18,0,0,1-18,18H18A18,18,0,0,1,0,18v0A18,18,0,0,1,18,0Z" transform="translate(7)"/><rect width="350" height="46" rx="18" transform="translate(7 7)"/></g><text class="c" transform="translate(238.681 906)"><tspan x="-147.885" y="0">Impression en cours</tspan></text></g></svg>