<svg xmlns="http://www.w3.org/2000/svg" width="364" height="364" viewBox="0 0 364 364"><defs><style>.a{fill:#f700f7;}.b{fill:#00f7f7;}.c{fill:#ffcf93;}.d{fill:none;stroke:#000;stroke-linecap:round;stroke-linejoin:round;stroke-width:2px;}</style></defs><g transform="translate(-118 -298)"><rect class="a" width="343" height="343" rx="171.5" transform="translate(118 319)"/><rect class="b" width="343" height="343" rx="171.5" transform="translate(139 298)"/><rect class="c" width="344" height="344" rx="172" transform="translate(128 308)"/><g transform="translate(196.339 375.548)"><path class="d" d="M1059.954,493.186c3.224,1.408,5.478.262,8.636-1.42,7.4-3.94,12.582-.108,12.584,8.211q.006,28.011,0,56.023" transform="translate(-874.981 -367.537)"/><path class="d" d="M689.4,606.183q-28.861,0-57.721.014c-4.835.008-9.83.826-13.309-4.155,1.21-2.906-.047-7.192,3.749-10.542,2.086-1.84-4.468-3.5-3.057-6.484,1.732-3.656,2.473-8.137,6.966-10.007-4.747-3.811-5.853-9.6-4.132-13.644,2.114-4.965,0-8.66-.672-14.089,6.843,2.671,10.055-2.988,15.473-7.921.22,11.308,3.155,19.865,5.114,28.641.626,2.805-2.629,4.61-2.973,6.425-.684,3.607-4.642,5.739-3.765,9.691" transform="translate(-607.137 -397.347)"/><path class="d" d="M646.007,244.013c-5.187-3.825-2.971-6.71,1.721-7.5,12.187-2.043,12.234-1.761,12.728-15.084-6.665.643-13.855,2.407-17.378-6.277-5.911,4.16.565,13.083-7.285,15.38-2.818-1.1-3.763-3.726-5.233-6.1-3.007-.2-4.775,2.562-5.535,4.4-1.276,3.079,1.076,6.16,3.226,8.319,6.053,6.076,6.446,10.823.768,16.187-.455.43-1.809-.8-1.72.582-.212,3.677,4.768,7.511-1.418,10.636-4.107-3.323-9.422-2.843-14.677-2.719" transform="translate(-602.791 -200.701)"/><path class="d" d="M687.034,333.809c2.605,3.649-2.375,11.09,5.985,11.984-.588,2.733-1.195,5.554-1.842,8.558l-5.7-1c-6.067,6.356-1.516,15.155-5.229,22.046" transform="translate(-644.667 -272.672)"/><path class="d" d="M937.581,351.068c6.666.544,8.728,7.227,14.134,9.576-2.265,6.069-5.983,7.706-11.592,7.516-10.455-.353-20.934,1.837-31.4-.116-.566.567-1.669,1.187-1.618,1.691.949,9.367-4.093,15.4-11.115,20.38" transform="translate(-775.527 -283.14)"/><path class="d" d="M888.668,564.158c-7.177.953-8.02-.012-5.746-7.43-7.251,1.9-12.886-4.191-20.67-2.331-6.506,1.555-13.7-.371-17.8,7.174-1.366,2.518-4.339,1.628-6.716,1.738" transform="translate(-740.195 -406.253)"/><path class="d" d="M1006.915,335.312c7.941-10.931,15.469-13.576,26.353-10.317,5.326,1.595,7.519,3.151,6.214,9.532-1.266,6.189,1.107,8.607,6.854,12.044l-9.4,13.682-8.639-9.065c-4.564,11.592-17.257,8.52-26.394,14.952.775,3.024-1.465,6.93,2.962,11.139,2.267,2.155-2.43,8.109,1.82,12.58,2.723,2.865,4.546,3.816,8.113,2.217-3.646-9.84,4.192-15.655,8.347-22.753,1.034-1.767,3.459-1.572,4.955-.021,2.179,2.258,4.819,2.6,7.678,2.509" transform="translate(-839.768 -266.536)"/><path class="d" d="M940.87,516.227l17.729-2.473c-5.722-6.957-9.475-14.752-16.177-20.445-.42,0-1.263-.244-1.51.037-4.207,4.761-7.4,11.583-15.538,4.457-1.923-1.683-6.573-.249-9.968-.249" transform="translate(-787.305 -369.357)"/><path class="d" d="M757.883,399.806c2.53-8.849,2.615-9.078-6.847-12.582-2.577-.955-2.9-3.083-3.106-4.431-.325-2.121-1.812-2.865-2.771-4.213-9.407,3.941-11.414,2.859-11.043-5.937" transform="translate(-677.318 -296.227)"/><path class="d" d="M717.292,178.472c1.51.636,3.157.373,2.716,3.42-1.244,8.606-1.815,17.2-5.063,25.519-1.923,4.923.583,10.638-1.527,16.191-1.036,2.727-2.816,4.872-3.474,7.625-4.843-.445-8.568-2.7-12.39-5.369-4.6,2.835-7.172,8.318-13,10.962-1.5-5.683-.142-10.115,3.025-14.207" transform="translate(-646.913 -178.452)"/><path class="d" d="M1023.277,584.073c2.721,2.177,6.517,2.985,4.541,8.593-1.69,4.8,3.228,9.223,4.165,14.286,1.026,5.552,3.744,10.792,5.725,16.168" transform="translate(-852.735 -424.47)"/><path class="d" d="M996.293,599.175c-5.4,13.806-2.788,28.253-3.4,42.442" transform="translate(-834.239 -433.63)"/><path class="d" d="M777.328,379.076c2.242.455,4.586-.764,6.813.818,10.7,7.607,21.477,6.64,32.253.063.412-.251,1.112-.032,1.678-.032" transform="translate(-703.554 -300.114)"/><path class="d" d="M932.552,622.907c.7,11.306-4.7,21.831-4.245,33.105" transform="translate(-795.114 -448.025)"/><path class="d" d="M689.226,517.611l-6.708-5.327c-4.623,1.241-7.549,3.289-6.927,8.728,1.585,13.866-2.727,19.133-16.923,21.215" transform="translate(-631.58 -380.926)"/><path class="d" d="M728.131,327.336c6.78.583,7.444,1.644,4.244,6.791-5.407,8.7-6.939,9.309-12.736,5.1-.825-.6-2-.943-2.5-1.732-5.738-9.141-5.711-9.157-15.326-4.215" transform="translate(-657.752 -268.746)"/><path class="d" d="M709.143,640.167c-.462,2.526.33,5-.7,7.695a20.412,20.412,0,0,0,1.554,18.62" transform="translate(-660.835 -458.494)"/><path class="d" d="M664.009,640.167l3.5,12.476c-7.018-.386-11.111-10.3-19.626-5.685" transform="translate(-625.037 -458.494)"/><path class="d" d="M710.486,179.29c-4.539,1.009-2.7,6.609-6.691,8.68-7.026,3.649-12.436-2.244-18.779-2.068-1.544.043-1.116-2.827-.737-4.032,1.054-3.352,3.433-4.364,6.684-2.58" transform="translate(-646.897 -178.42)"/><path class="d" d="M880.33,316.669c3.379.91,4.042,5.313,8.387,5.316a21.75,21.75,0,0,0,6.117-8.037c3.811,1.8,6.172,7.7,11.906,3.888.9,7.374,7,14.431-.3,21.02-6.454-.56-5.836-6.261-8.013-9.488-6.342.786-8.819,4.239-7.908,10.219a13.349,13.349,0,0,1-2.72,10.048c-8.588,10.613-9.176,22.683-6.211,34.842.846,3.469.385,6.383.3,9.433-.179,6.717,2.247,9.191,8.62,7.622a26.812,26.812,0,0,0,5.079-1.717c1.833-.869,3.517-2.05,5.313-3.124,4.564,5.376,10.236,6.44,16.777,3.164" transform="translate(-765.811 -260.625)"/><path class="d" d="M1040.573,570.489c-2.83-2.263-5.615-4.586-8.5-6.779-6.535-4.972-9.193-4.653-15.27,1.686" transform="translate(-848.809 -410.037)"/><path class="d" d="M685.583,495.406c-2-3.113-.967-6.225.6-9.945l-16.729-2.788" transform="translate(-638.123 -362.966)"/><path class="d" d="M783.862,474.94c-4.93.037-8.78.37-10.759-6.629-1.244-4.4-2.76-10.206-7.071-13.741-3.475-.534-3.512,4.445-7.32,3.251,2.2,7.486,2.506,14.63,9.022,18.817" transform="translate(-692.262 -345.895)"/><path class="d" d="M656.769,446c-6.982,1.11-8.613,7.028-7.316,11.8,2.41,8.857-1.209,13.782-7.967,17.907-1.614.985-3.337,1.85-2.542,4.251" transform="translate(-619.495 -340.719)"/><path class="d" d="M861.469,573.255c4.81,3.376,9.62-.181,14.128-.015,6.4,4.394,6.674,11.84,9.49,17.91,1.225,2.639,2.293,4.263,5.243,4.174" transform="translate(-754.59 -417.896)"/><path class="d" d="M1062.8,448.154c-2.559,3.1-3.273,7.584-7.61,9.407-2.855,1.2-2.6,4.065-2.629,6.721-.024,2.266.264,5.116-.929,6.689-5.191,6.849-.743,11.806,2.532,17.4l6.091-4.568" transform="translate(-868.49 -342.028)"/><path class="d" d="M765.842,506.4c-4.924,3.074-.531,9.255-4.651,12.28,7.67,8.421,16.47,5.237,25.024,3.848" transform="translate(-693.766 -377.36)"/><path class="d" d="M914.45,428.737c-1.831,1.255.235,5.385-5.153,4.822-3.437-.359-7.459,4.878-11.489,7.8-4.669-.984-9.173-4.517-14.765-4.136" transform="translate(-767.675 -330.251)"/><path class="d" d="M604.333,251.761c-7.537-.528-9.373,3.978-8.427,10.176,1.8,11.769,3.9,23.319,11.667,33.236,4.9,6.263,3.084,14.213-3.61,22.4,8.779.633,6.209,6.423,5.463,11.431" transform="translate(-593.373 -222.88)"/><path class="d" d="M708.29,542.691l12.678-5.851c3.268,2.739.988,4.769.8,6.689-.4,4.109,1.99,6.375,5.151,5.727,4.538-.929,9.859,1,13.628-3.17" transform="translate(-661.678 -395.821)"/><path class="d" d="M725.532,413.634c3.609,1.014,6.349,7.507,11.243,1.879.079-.091,3.279,2.531,4.98,3.853-3.429,7.549-11.856,5.344-17.325,9.187-3.685,2.59-3.616,4.271-2.239,7.124,1.963,4.066,3.685,7.949-.055,11.91" transform="translate(-669.583 -321.09)"/><path class="d" d="M820.477,484.83c.826,4.172-.236,8.877,4.134,12.036a3.827,3.827,0,0,1,.969,4.948c-3.555,5.356-1.6,10.865.081,16.092,2.309,7.177-1.765,13.565-1.788,20.4" transform="translate(-729.726 -364.274)"/><path class="d" d="M636.168,202.032c-2.485-6.3-7.4-4.088-11.924-3.21-1.473,2.644.263,5.467.133,8.307-.038.821,1.71,2.2,1.508,2.468-7.45,9.783,2.083,19.946-.726,29.791a46.171,46.171,0,0,0-.875,5.086" transform="translate(-609.929 -190.128)"/><path class="d" d="M971.125,538.767c1.053,3.781,1.539,6.8-.308,11.258-2.333,5.638-1.38,12.942,1.127,19.311,1.266,3.216,3.564,4.406,6.82,4.233" transform="translate(-820.106 -396.99)"/><path class="d" d="M771.471,593.94c-2.766-1.29-4.736-4.57-9.277-2.961-5.446,9.857-6.879,19.875,2.487,29.275" transform="translate(-691.754 -428.395)"/><path class="d" d="M943.11,599.175c-1.309,8.39,3.234,11.959,11.884,9.337" transform="translate(-803.974 -433.63)"/><path class="d" d="M595.687,217.306c-6.577,3.659-7.045,9.015-4.244,15.28" transform="translate(-589.82 -202.007)"/><path class="d" d="M806.931,431.488c3.681,1.989,6.47,3.442,8.683-2.474,3.259-8.711,3.818-8.5.853-12.535-13.048.972-8.247,13.982-12.932,20.331-5.19-1.407-3.955-6.487-6.79-8.718" transform="translate(-715.331 -322.816)"/><path class="d" d="M1084.419,519.349c-.439,7.1-2.259,14.262.878,21.208.048.106.6.114.806-.01a4.907,4.907,0,0,0,.862-.826" transform="translate(-889.26 -385.212)"/><path class="d" d="M887.606,586.23c-2.876,3.568-4.933,8.466-11.035,6.791" transform="translate(-763.75 -425.778)"/><path class="d" d="M928.375,422.264c3.482,1.523,7.608,1.761,10.138,5.669-.314,3.668-5.941,7.912-.1,12.054l-6.5,8.686c-2.615-1.7-3-4.608-3.791-6.722-5.085-1.384-8.808,3.093-14.866,1,4.159,7.726-6.005,14.4.682,21.757" transform="translate(-784.995 -326.324)"/><path class="d" d="M792.43,519.349l5.093,11.884" transform="translate(-712.714 -385.212)"/><path class="d" d="M904.617,568.423l3.353-5.953c5.138,7.408,7.283,15.168,16.17,13.593" transform="translate(-780.761 -411.367)"/><path class="d" d="M1083.179,575.443c-4.174,7.923.116,14.491,3.4,21.221" transform="translate(-888.021 -419.236)"/><path class="d" d="M665.668,351.068c-1.132,1.7-1.9,3.945-3.467,4.985-3.91,2.593-4.833,5.269-4.536,10.316.487,8.3,1.485,15.994,6.306,22.9" transform="translate(-630.94 -283.14)"/><path class="d" d="M837.737,461.1c5.411,5.4,4.75,11.109.849,16.977" transform="translate(-740.195 -349.879)"/><path class="d" d="M867.677,316.549c-1.7,5.942-3.153,11.969-5.193,17.79-1.055,3.011-.773,5.064,1.8,6.826" transform="translate(-754.856 -262.203)"/><path class="d" d="M1113.89,415.792v9.337" transform="translate(-907.696 -322.399)"/><path class="d" d="M997.993,573.286c-1.4,3.47-5.431,7.418,1.7,9.337" transform="translate(-835.939 -417.927)"/><path class="d" d="M732.022,493.46c6.579,1.425,5.922,6.916,4.7,10.913a30.76,30.76,0,0,0-1.3,6.063" transform="translate(-676.073 -369.509)"/><path class="d" d="M856.411,525.373c-3.809.805-7.686,2.337-10.225-2.526-2.251-4.311-5.673-.057-8.449-.869" transform="translate(-740.195 -386.142)"/><path class="d" d="M723.25,394.217c-3.4,8-3.4,8-8.488,7.64" transform="translate(-665.604 -309.312)"/><path class="d" d="M727.707,579.758c.974,5.817,8,5.583,10.186,10.186" transform="translate(-673.456 -421.853)"/><path class="d" d="M680.243,515.035c3.121,3.393-.548,8.725,3.4,11.884" transform="translate(-644.667 -382.595)"/><path class="d" d="M993.073,568.971c3.629,1.543,8.316.335,11.035,4.244" transform="translate(-834.414 -415.31)"/></g></g></svg>