<svg xmlns="http://www.w3.org/2000/svg" width="364" height="363.98" viewBox="0 0 364 363.98">
  <g id="Groupe_83" data-name="Groupe 83" transform="translate(-2915 -13216)">
    <g id="Groupe_49" data-name="Groupe 49" transform="translate(2898 13200.48)">
      <path id="Rectangle_16" data-name="Rectangle 16" d="M188.47,36.52h0A171.506,171.506,0,0,1,360,208.03V208A171.5,171.5,0,0,1,188.5,379.5h0A171.5,171.5,0,0,1,17,208h0A171.5,171.5,0,0,1,188.45,36.52Z" fill="#f700f7"/>
      <path id="Rectangle_17" data-name="Rectangle 17" d="M209.47,15.52h0A171.506,171.506,0,0,1,381,187.03V187A171.5,171.5,0,0,1,209.5,358.5h0A171.5,171.5,0,0,1,38,187h0A171.5,171.5,0,0,1,209.45,15.52Z" fill="#00f7f7"/>
    </g>
    <path id="Rectangle_19" data-name="Rectangle 19" d="M199,25.52h0a172,172,0,0,1,172,172h0a172,172,0,0,1-172,172h0a172,172,0,0,1-172-172h0a172,172,0,0,1,172-172Z" transform="translate(2898 13200.48)" fill="#00b8ff"/>
    <path id="Tracé_397" data-name="Tracé 397" d="M189.26,137.48s14.67-3.57,18.24,0a21.73,21.73,0,0,0,5.72,3.59,71.584,71.584,0,0,0,8.17,3.15s6.74,2.18,13.14,5,12.44,6.15,11.05,8.53c-2.77,4.76.8,23,12.1,19.43a93.06,93.06,0,0,0,20.83-9.91" transform="translate(2898 13200.48)" fill="none" stroke="#000" stroke-linecap="round" stroke-width="2"/>
    <path id="Tracé_398" data-name="Tracé 398" d="M239.34,140.75s-4,4.51-4.81,8.43-6.35,1.41-6.35,1.41-3,1.91-2.53,4.89" transform="translate(2898 13200.48)" fill="none" stroke="#000" stroke-linecap="round" stroke-width="2"/>
    <path id="Tracé_399" data-name="Tracé 399" d="M204.83,136.29a3.84,3.84,0,0,1-.64-1c-.14-.31,0-.57-.13-.89-.32-1.08-1.88-.75-2.73-.75a1.62,1.62,0,0,1-1.12-.21,2.18,2.18,0,0,1-.67-1.06c-.15-.47-.13-1-.29-1.47a10.807,10.807,0,0,0-.67-1.42" transform="translate(2898 13200.48)" fill="none" stroke="#000" stroke-linecap="round" stroke-miterlimit="10" stroke-width="2"/>
    <path id="Tracé_400" data-name="Tracé 400" d="M194.71,136.59v-1.34c0-.4.12-.84-.16-1.14a4.59,4.59,0,0,0-1.33-.79c-.43-.22-.76-.66-1.19-.87a.582.582,0,0,1-.33-.07,1.59,1.59,0,0,1-.49-.7,3.56,3.56,0,0,1-.53-1.35q0-.66,0-1.32a12.993,12.993,0,0,0,.15-1.35" transform="translate(2898 13200.48)" fill="none" stroke="#000" stroke-linecap="round" stroke-miterlimit="10" stroke-width="2"/>
    <path id="Tracé_401" data-name="Tracé 401" d="M190.84,130l-.14.1c-.33-.13-.56-.52-.89-.69a2.13,2.13,0,0,0-1.2-.3,4.41,4.41,0,0,1-1.78-.14,7.618,7.618,0,0,0-1-.44c-.26-.07-.5-.24-.76-.3a9.539,9.539,0,0,0-2,0" transform="translate(2898 13200.48)" fill="none" stroke="#000" stroke-linecap="round" stroke-miterlimit="10" stroke-width="2"/>
    <path id="Tracé_402" data-name="Tracé 402" d="M189.51,137.48h-4.32a1.086,1.086,0,0,0-.83.22,2.52,2.52,0,0,0-.37,1.09,12.919,12.919,0,0,0,0,1.76c0,.65.56.91.76,1.47a1.28,1.28,0,0,1-.24,1.41c-.31.37-.78.52-1.09.89s-.37.58-.76.75a22.357,22.357,0,0,0-2.09,1.34" transform="translate(2898 13200.48)" fill="none" stroke="#000" stroke-linecap="round" stroke-miterlimit="10" stroke-width="2"/>
    <path id="Tracé_403" data-name="Tracé 403" d="M225.8,145.51c-.16-.84,1.18-1.52,1.79-1.79a2.54,2.54,0,0,1,1.34-.15c.27.05.47.25.74.31a5.24,5.24,0,0,0,1.19.15,1.76,1.76,0,0,0,1.12-.37,8.2,8.2,0,0,0,1.1-.84c.18-.17.27-.42.45-.59s.42-.27.6-.44" transform="translate(2898 13200.48)" fill="none" stroke="#000" stroke-linecap="round" stroke-miterlimit="10" stroke-width="2"/>
    <path id="Tracé_404" data-name="Tracé 404" d="M226.84,143.9c-.22-.19-.2-.63-.33-.89s-.41-.53-.57-.82-.09-.89-.29-1.34a2.16,2.16,0,0,1,0-1.71,4.24,4.24,0,0,1,1.55-1.57,6.308,6.308,0,0,1,.82-.52c.42-.21.89,0,1.28-.23a2.39,2.39,0,0,0,1-1.95,15,15,0,0,1,1-2.5,10.615,10.615,0,0,0,.29-1.07,3.15,3.15,0,0,0,.19-.93" transform="translate(2898 13200.48)" fill="none" stroke="#000" stroke-linecap="round" stroke-miterlimit="10" stroke-width="2"/>
    <path id="Tracé_405" data-name="Tracé 405" d="M230.71,135.57a2.75,2.75,0,0,0,1.19-.26,5.119,5.119,0,0,1,1.2-.34c.49-.05,1,0,1.51,0h2c.87,0,1.59-.07,2.23.59" transform="translate(2898 13200.48)" fill="none" stroke="#000" stroke-linecap="round" stroke-miterlimit="10" stroke-width="2"/>
    <path id="Tracé_406" data-name="Tracé 406" d="M278.61,167.23a7,7,0,0,0,.75-.6c.2-.2.39-.49.67-.58a6.63,6.63,0,0,1,4,.4c.51.17.63.43.9.88.46.76,1,1.48,1.39,2.27a17.151,17.151,0,0,0,1.25,1.86A8,8,0,0,0,288.9,173c.63.6,1.28,1.18,1.89,1.8a18.092,18.092,0,0,1,2.37,3.14c.84,1.3,1.59,2.65,3,3.36a16.47,16.47,0,0,0,2.85,1,7.58,7.58,0,0,0,2.22.31,2.68,2.68,0,0,0,.89-.1,2.52,2.52,0,0,1,.58-.21" transform="translate(2898 13200.48)" fill="none" stroke="#000" stroke-linecap="round" stroke-miterlimit="10" stroke-width="2"/>
    <path id="Tracé_407" data-name="Tracé 407" d="M284.58,166.81a1.69,1.69,0,0,0,1.18-.44,13.763,13.763,0,0,1,1.49-.74,20.061,20.061,0,0,0,3.14-1.67,2.88,2.88,0,0,0,.86-3.24,4.8,4.8,0,0,0-.54-.93,8.5,8.5,0,0,1-.54-1.32,6.371,6.371,0,0,1-.39-1.66,7.062,7.062,0,0,1,0-1.72,2.921,2.921,0,0,1,.43-.77c.19-.34.27-.7.44-1" transform="translate(2898 13200.48)" fill="none" stroke="#000" stroke-linecap="round" stroke-miterlimit="10" stroke-width="2"/>
    <path id="Tracé_408" data-name="Tracé 408" d="M266.11,173c-.29.07-.4-.14-.62-.29s-.58-.34-.87-.56c-.67-.51-1.45-.83-2.08-1.38s-.79-.77-.59-1.53c.15-.58.41-.69.74-1.17a6.817,6.817,0,0,1,.45-.73c.17-.21.4-.38.59-.58a5.45,5.45,0,0,0,1-1.53,2.43,2.43,0,0,0,.3-1.15v-1.49" transform="translate(2898 13200.48)" fill="none" stroke="#000" stroke-linecap="round" stroke-miterlimit="10" stroke-width="2"/>
    <path id="Tracé_409" data-name="Tracé 409" d="M269.78,172.29c.34.33.09,1.16.17,1.59a3.741,3.741,0,0,0,.43,1c.13.24.16.5.29.74s.31.42.42.67.12.42.21.62a13.55,13.55,0,0,0,1,2,20.651,20.651,0,0,0,2.42,3.08,9.567,9.567,0,0,0,1.3,1,11.086,11.086,0,0,0,1.42,1,20.532,20.532,0,0,0,2.32,1,7.891,7.891,0,0,0,1.62.6,2,2,0,0,1,1.39.89,4,4,0,0,1,.67,1.79,4.7,4.7,0,0,1,0,1.63,10.123,10.123,0,0,1-.84,1.76,7.609,7.609,0,0,1-1.07,2" transform="translate(2898 13200.48)" fill="none" stroke="#000" stroke-linecap="round" stroke-miterlimit="10" stroke-width="2"/>
    <path id="Tracé_410" data-name="Tracé 410" d="M276.2,183.3c-1.29,0-2.58-.05-3.87,0a4.46,4.46,0,0,0-.89.14,2.348,2.348,0,0,0-.43.19c-.3.13-.63.13-.92.26s-.4.37-.51.74a1.77,1.77,0,0,1-.37.6c-.27.37-.45.78-.74,1.15a3.59,3.59,0,0,0-.63,1.19c-.08.21-.18.43-.24.64s0,.43-.17.59" transform="translate(2898 13200.48)" fill="none" stroke="#000" stroke-linecap="round" stroke-miterlimit="10" stroke-width="2"/>
    <path id="Tracé_411" data-name="Tracé 411" d="M272.18,178.09h-3c-.78,0-1.46.27-2.25.29a6.3,6.3,0,0,0-1.67.3c-.41.14-.71.45-1.12.57a5.8,5.8,0,0,0-1.25.55c-.32.18-.82.34-1,.7a3.63,3.63,0,0,0-.08,2.21c.18.51.58,1,.81,1.49s.33.74.51,1.12a5,5,0,0,1,.67,2.2q0,.345,0,.69c0,.23-.31.57-.3.89" transform="translate(2898 13200.48)" fill="none" stroke="#000" stroke-linecap="round" stroke-miterlimit="10" stroke-width="2"/>
    <path id="Tracé_412" data-name="Tracé 412" d="M254.66,177.47c0,.26-.28.43-.45.59a2.09,2.09,0,0,0-.53.76,6.381,6.381,0,0,0-.81,2.07,5.742,5.742,0,0,1-.18,1.49,11.15,11.15,0,0,1-.71,2.23" transform="translate(2898 13200.48)" fill="none" stroke="#000" stroke-linecap="round" stroke-miterlimit="10" stroke-width="2"/>
    <path id="Tracé_413" data-name="Tracé 413" d="M252.87,177.2a3.56,3.56,0,0,1-2.67.74,23.362,23.362,0,0,0-4.16.63c-1.58.28-3.18.46-4.74.82a7.75,7.75,0,0,1-1.84.34H237.4" transform="translate(2898 13200.48)" fill="none" stroke="#000" stroke-linecap="round" stroke-miterlimit="10" stroke-width="2"/>
    <path id="Tracé_414" data-name="Tracé 414" d="M245.73,157.41c.1-.69.16-1.41.3-2.09.08-.39.19-.44.45-.72s.36-.53.59-.76.52-.49.75-.77a5.14,5.14,0,0,1,.59-.72c.22-.21.49-.33.71-.54a6.641,6.641,0,0,1,.89-.95c.32-.21.61-.44.92-.66a9.1,9.1,0,0,0,1-.81c.61-.5,1.27-.88,1.87-1.4s1.63-1.11,2.42-1.7a23.5,23.5,0,0,0,1.81-1.66l1.26-1.13c.32-.28.74-.47,1-.75a6.71,6.71,0,0,0,1.27-2.18c.46-1.12,1.07-2.18,1.64-3.25a14.164,14.164,0,0,0,.62-1.31,19.381,19.381,0,0,0,.86-5.09c.24-1.85.41-3.71.72-5.54a16,16,0,0,0,.18-2.5,10.391,10.391,0,0,0-.23-1.93c-.08-.44-.13-.88-.2-1.32a10.707,10.707,0,0,0-.5-1.76c-.6-1.78-1.39-3.47-2-5.24a22.623,22.623,0,0,0-.9-2.37,15.79,15.79,0,0,1-.91-2.4c-.24-.72-.67-1.34-.9-2.07a17.348,17.348,0,0,1-.6-1.85,7.63,7.63,0,0,1,.45-4.09,18,18,0,0,1,1.34-3.42,10.322,10.322,0,0,1,1.05-1.23,8.615,8.615,0,0,1,.74-.86" transform="translate(2898 13200.48)" fill="none" stroke="#000" stroke-linecap="round" stroke-miterlimit="10" stroke-width="2"/>
    <path id="Tracé_415" data-name="Tracé 415" d="M263.41,114.28c.31.38,1.51-.75,1.78-.9a6,6,0,0,1,2-.86,3.33,3.33,0,0,1,2.09.26c.46.25.83.73,1.33.87a3.25,3.25,0,0,0,2.84-1c.87-.7,1.1-2,1.59-3" transform="translate(2898 13200.48)" fill="none" stroke="#000" stroke-linecap="round" stroke-miterlimit="10" stroke-width="2"/>
    <path id="Tracé_416" data-name="Tracé 416" d="M272,103.83a3.08,3.08,0,0,0,.59,1.63l1,1.9c.17.32.45.58.61.9a5.241,5.241,0,0,0,.29.64,13.608,13.608,0,0,0,1.57,1.56,14.653,14.653,0,0,0,1.19,1.05c.46.36,1.4,1.3,1.39,1.92s-.56,1.25-.79,1.86a6.759,6.759,0,0,0-.53,1.63" transform="translate(2898 13200.48)" fill="none" stroke="#000" stroke-linecap="round" stroke-miterlimit="10" stroke-width="2"/>
    <path id="Tracé_417" data-name="Tracé 417" d="M273,106.21c.55,0,1.11-.76,1.55-1,.78-.5,1.72-.74,2.47-1.27a12.4,12.4,0,0,0,1.42-1,2.44,2.44,0,0,0,.95-1.32" transform="translate(2898 13200.48)" fill="none" stroke="#000" stroke-linecap="round" stroke-miterlimit="10" stroke-width="2"/>
    <path id="Tracé_418" data-name="Tracé 418" d="M265.49,123.94c.51.09.87-.25,1.26-.51s1-.67,1.46-1a6,6,0,0,1,1.31-.47c.54-.19.82-.74,1.33-1" transform="translate(2898 13200.48)" fill="none" stroke="#000" stroke-linecap="round" stroke-miterlimit="10" stroke-width="2"/>
    <path id="Tracé_419" data-name="Tracé 419" d="M265.1,126.92a12,12,0,0,1-3.44-.22,13.792,13.792,0,0,1-2-.71,6.659,6.659,0,0,1-.86-.39,6.509,6.509,0,0,1-.82-.84c-.53-.54-1.17-.85-1.51-1.56a4,4,0,0,1-.5-1.82,7.42,7.42,0,0,1,0-1.7c.05-.22.21-.4.26-.62s.05-.38.08-.56a7.433,7.433,0,0,0,.08-1.25" transform="translate(2898 13200.48)" fill="none" stroke="#000" stroke-linecap="round" stroke-miterlimit="10" stroke-width="2"/>
    <path id="Tracé_420" data-name="Tracé 420" d="M262.32,126.77c-.15.2-.56.2-.78.26a3.14,3.14,0,0,0-.8.27c-.74.4-.65,1.13-.65,1.85" transform="translate(2898 13200.48)" fill="none" stroke="#000" stroke-linecap="round" stroke-miterlimit="10" stroke-width="2"/>
    <path id="Tracé_421" data-name="Tracé 421" d="M257.91,144.42c.3,0,.58.81.78,1a13.522,13.522,0,0,0,1,1.2,2.27,2.27,0,0,0,1.1.44c.76.15,1.61.05,2.38.14a54.23,54.23,0,0,0,8.32.79,9.1,9.1,0,0,0,.91-.16,5.861,5.861,0,0,0,1.16-.25,6.25,6.25,0,0,0,2.75-1.23c.53-.48,1.16-.88,1.73-1.31a2.54,2.54,0,0,0,.92-1c.14-.35.17-.75.34-1.08a2.42,2.42,0,0,1,1.26-1" transform="translate(2898 13200.48)" fill="none" stroke="#000" stroke-linecap="round" stroke-miterlimit="10" stroke-width="2"/>
    <path id="Tracé_422" data-name="Tracé 422" d="M283.52,139.86a3.76,3.76,0,0,1,1.78.59c1,.48,1.86,1.05,2.86,1.49.67.3,1.33.61,2,.87a17.761,17.761,0,0,0,1.89.69c.38.09.77.09,1.16.19l.79.22a25.348,25.348,0,0,0,3.34.68,17.628,17.628,0,0,0,2.41,0c.42,0,.83-.1,1.25-.14a5.62,5.62,0,0,0,1.68-.75" transform="translate(2898 13200.48)" fill="none" stroke="#000" stroke-linecap="round" stroke-miterlimit="10" stroke-width="2"/>
    <path id="Tracé_423" data-name="Tracé 423" d="M290.23,142.86a1.74,1.74,0,0,0,1.7-.89,2.17,2.17,0,0,0,.39-.83,4.469,4.469,0,0,1,.3-.94,5.8,5.8,0,0,0,.44-1.86v-3a9.09,9.09,0,0,1,.07-2,14.916,14.916,0,0,1,.42-1.81,9.388,9.388,0,0,1,.24-1.05c.19-.38.4-.76.61-1.12a5.94,5.94,0,0,1,1.49-2" transform="translate(2898 13200.48)" fill="none" stroke="#000" stroke-linecap="round" stroke-miterlimit="10" stroke-width="2"/>
    <path id="Tracé_424" data-name="Tracé 424" d="M275.67,147.12c.08-.74-1.3-1.42-1.79-1.79a15.419,15.419,0,0,0-2.38-1.63" transform="translate(2898 13200.48)" fill="none" stroke="#000" stroke-linecap="round" stroke-miterlimit="10" stroke-width="2"/>
    <path id="Tracé_425" data-name="Tracé 425" d="M264.45,147.69a9.392,9.392,0,0,1-.75,1.8,4,4,0,0,0-.15,1.55c0,.34.25.63.3,1a3.37,3.37,0,0,0,.15,1,8.172,8.172,0,0,1,.75,1.58" transform="translate(2898 13200.48)" fill="none" stroke="#000" stroke-linecap="round" stroke-miterlimit="10" stroke-width="2"/>
    <path id="Tracé_426" data-name="Tracé 426" d="M253.17,148.29a3.49,3.49,0,0,1-1.7-1.65c-.16-.37-.26-.81-.38-1.19-.24-.8-.5-1.63-.68-2.45a13.409,13.409,0,0,1-.52-3.08,6.779,6.779,0,0,1,.16-.88,3.9,3.9,0,0,1,.29-1.31" transform="translate(2898 13200.48)" fill="none" stroke="#000" stroke-linecap="round" stroke-miterlimit="10" stroke-width="2"/>
    <path id="Tracé_427" data-name="Tracé 427" d="M261.72,141.05c-.24-.25-.65-.15-1-.15h-1.24c-.51,0-1.12.13-1.51-.3" transform="translate(2898 13200.48)" fill="none" stroke="#000" stroke-linecap="round" stroke-miterlimit="10" stroke-width="2"/>
    <path id="Tracé_428" data-name="Tracé 428" d="M213,140.88a2.749,2.749,0,0,1-.93.48c-.37.16-.71.37-1.07.55-.89.45-1.82.81-2.72,1.23s-.94,1.13-1.41,1.88a13.262,13.262,0,0,1-1.28,1.7,7.941,7.941,0,0,0-1.06,1.74,5.57,5.57,0,0,1-2,1.9,3.25,3.25,0,0,0-1.45,2.12c-.12.64-.19,1.29-.28,1.94a5.9,5.9,0,0,1-.62,1.7,9,9,0,0,0-.61,2.18,15.326,15.326,0,0,0-.27,1.65v1.76c-.17,1.75-.75,3.43-1,5.17a24.421,24.421,0,0,0-.18,3.42c0,1.11-.15,2.19-.15,3.3a14,14,0,0,0,.26,3.36,4,4,0,0,0,.79,1.55c.6.81,1.48,1.46,1.63,2.53" transform="translate(2898 13200.48)" fill="none" stroke="#000" stroke-linecap="round" stroke-miterlimit="10" stroke-width="2"/>
    <path id="Tracé_429" data-name="Tracé 429" d="M205.27,147c-.07.39.26.7.51,1a9,9,0,0,0,.79.84,14.3,14.3,0,0,1,1.79,1.51,5.1,5.1,0,0,1,1.35,2.05,11.182,11.182,0,0,0,.17,1.26,5.655,5.655,0,0,1,.27.68,3.259,3.259,0,0,1,0,.7,2.81,2.81,0,0,0,.23.86,5,5,0,0,1,.07,1.5c0,.77.47,1.33.58,2.07a9.913,9.913,0,0,0,.12,1.08,10.227,10.227,0,0,1,.34,1.07" transform="translate(2898 13200.48)" fill="none" stroke="#000" stroke-linecap="round" stroke-miterlimit="10" stroke-width="2"/>
    <path id="Tracé_430" data-name="Tracé 430" d="M158.77,176s3.93,16.17,0,20.1a23.7,23.7,0,0,0-4,6.3,79.514,79.514,0,0,0-3.48,9s-2.4,7.43-5.46,14.47-6.77,13.71-9.4,12.18c-5.24-3.05-25.34.88-21.41,13.33a102.641,102.641,0,0,0,10.93,23" transform="translate(2898 13200.48)" fill="none" stroke="#000" stroke-linecap="round" stroke-width="2"/>
    <path id="Tracé_431" data-name="Tracé 431" d="M154.16,234.2s-5-4.37-9.28-5.3-1.55-7-1.55-7-2.11-3.28-5.39-2.78" transform="translate(2898 13200.48)" fill="none" stroke="#000" stroke-linecap="round" stroke-width="2"/>
    <path id="Tracé_432" data-name="Tracé 432" d="M160.08,193.18a4.48,4.48,0,0,1,1.15-.7c.34-.15.63,0,1-.14,1.2-.35.83-2.07.83-3a1.75,1.75,0,0,1,.23-1.23,2.36,2.36,0,0,1,1.17-.74c.52-.17,1.11-.14,1.62-.32a11.809,11.809,0,0,0,1.57-.74" transform="translate(2898 13200.48)" fill="none" stroke="#000" stroke-linecap="round" stroke-miterlimit="10" stroke-width="2"/>
    <path id="Tracé_433" data-name="Tracé 433" d="M159.75,182h1.48c.43,0,.92.13,1.25-.18a4.92,4.92,0,0,0,.87-1.46c.24-.48.73-.84,1-1.31.05-.11,0-.25.08-.36a1.71,1.71,0,0,1,.77-.55,3.85,3.85,0,0,1,1.48-.58h1.46a12.913,12.913,0,0,0,1.48.17" transform="translate(2898 13200.48)" fill="none" stroke="#000" stroke-linecap="round" stroke-miterlimit="10" stroke-width="2"/>
    <path id="Tracé_434" data-name="Tracé 434" d="M167,177.78l-.11-.16c.14-.36.58-.62.77-1a2.37,2.37,0,0,0,.32-1.32,4.82,4.82,0,0,1,.16-2,6.25,6.25,0,0,0,.48-1c.09-.29.27-.55.34-.84a10.781,10.781,0,0,0,0-2.2" transform="translate(2898 13200.48)" fill="none" stroke="#000" stroke-linecap="round" stroke-miterlimit="10" stroke-width="2"/>
    <path id="Tracé_435" data-name="Tracé 435" d="M158.77,176.3v-4.75a1.148,1.148,0,0,0-.25-.91,2.57,2.57,0,0,0-1.19-.41,12.558,12.558,0,0,0-1.94,0c-.72,0-1,.62-1.62.84a1.42,1.42,0,0,1-1.56-.27c-.4-.34-.57-.86-1-1.2s-.63-.41-.82-.84a24.022,24.022,0,0,0-1.47-2.3" transform="translate(2898 13200.48)" fill="none" stroke="#000" stroke-linecap="round" stroke-miterlimit="10" stroke-width="2"/>
    <path id="Tracé_436" data-name="Tracé 436" d="M149.92,216.29c.93-.17,1.68,1.3,2,2a2.86,2.86,0,0,1,.16,1.48c-.06.29-.28.52-.34.81a5.82,5.82,0,0,0-.17,1.32,1.83,1.83,0,0,0,.42,1.22,9,9,0,0,0,.91,1.22c.2.19.46.3.66.5s.29.45.48.66" transform="translate(2898 13200.48)" fill="none" stroke="#000" stroke-linecap="round" stroke-miterlimit="10" stroke-width="2"/>
    <path id="Tracé_437" data-name="Tracé 437" d="M151.69,217.44c.22-.25.7-.22,1-.36s.58-.46.9-.63,1-.1,1.47-.32a2.39,2.39,0,0,1,1.89,0,4.55,4.55,0,0,1,1.72,1.71,5.828,5.828,0,0,1,.58.91c.23.46,0,1,.26,1.41a2.62,2.62,0,0,0,2.14,1,17,17,0,0,1,2.76,1.12,12.083,12.083,0,0,0,1.18.32,3.69,3.69,0,0,0,1,.2" transform="translate(2898 13200.48)" fill="none" stroke="#000" stroke-linecap="round" stroke-miterlimit="10" stroke-width="2"/>
    <path id="Tracé_438" data-name="Tracé 438" d="M160.87,221.7a3,3,0,0,0,.29,1.31,5.09,5.09,0,0,1,.37,1.32,15.321,15.321,0,0,1,0,1.66v2.26a3,3,0,0,1-.66,2.46" transform="translate(2898 13200.48)" fill="none" stroke="#000" stroke-linecap="round" stroke-miterlimit="10" stroke-width="2"/>
    <path id="Tracé_439" data-name="Tracé 439" d="M126,274.46c.23.29.41.57.66.83s.54.44.64.74a7.23,7.23,0,0,1-.43,4.35c-.19.57-.48.7-1,1-.84.5-1.64,1.06-2.51,1.52s-1.35,1-2,1.38a8.681,8.681,0,0,0-1.68,1.53c-.66.69-1.3,1.4-2,2.08a20.439,20.439,0,0,1-3.45,2.61c-1.43.92-2.93,1.75-3.71,3.3a19.332,19.332,0,0,0-1.06,3.14,8.84,8.84,0,0,0-.34,2.45,3.18,3.18,0,0,0,.11,1,2.3,2.3,0,0,1,.23.65" transform="translate(2898 13200.48)" fill="none" stroke="#000" stroke-linecap="round" stroke-miterlimit="10" stroke-width="2"/>
    <path id="Tracé_440" data-name="Tracé 440" d="M126.46,281.05a1.85,1.85,0,0,0,.48,1.29,16.881,16.881,0,0,1,.82,1.65,21.921,21.921,0,0,0,1.84,3.45,3.16,3.16,0,0,0,3.57.95,5.507,5.507,0,0,0,1-.59,9.224,9.224,0,0,1,1.45-.6,6.831,6.831,0,0,1,1.84-.42,7.458,7.458,0,0,1,1.89,0,3.54,3.54,0,0,1,.85.47c.37.2.77.3,1.15.49" transform="translate(2898 13200.48)" fill="none" stroke="#000" stroke-linecap="round" stroke-miterlimit="10" stroke-width="2"/>
    <path id="Tracé_441" data-name="Tracé 441" d="M119.6,260.7c-.07-.32.16-.44.32-.68s.38-.65.62-1c.57-.74.91-1.61,1.52-2.3s.85-.86,1.68-.65c.65.17.77.46,1.3.82a8.146,8.146,0,0,1,.8.49c.23.2.42.45.64.66a5.85,5.85,0,0,0,1.69,1.14,2.52,2.52,0,0,0,1.26.33h1.64" transform="translate(2898 13200.48)" fill="none" stroke="#000" stroke-linecap="round" stroke-miterlimit="10" stroke-width="2"/>
    <path id="Tracé_442" data-name="Tracé 442" d="M120.42,264.74c-.37.38-1.28.1-1.76.19a3.82,3.82,0,0,0-1.07.48c-.27.13-.55.17-.82.31s-.46.34-.73.46-.47.13-.69.23a15.437,15.437,0,0,0-2.23,1.11,23.5,23.5,0,0,0-3.39,2.66,10.157,10.157,0,0,0-1.1,1.44,18.808,18.808,0,0,0-1.15,1.55c-.49.84-.74,1.71-1.16,2.57a9.15,9.15,0,0,0-.65,1.77,2.28,2.28,0,0,1-1,1.54,4.44,4.44,0,0,1-2,.73,4.9,4.9,0,0,1-1.79,0,12.263,12.263,0,0,1-1.94-.92,8.231,8.231,0,0,1-2.16-1.18" transform="translate(2898 13200.48)" fill="none" stroke="#000" stroke-linecap="round" stroke-miterlimit="10" stroke-width="2"/>
    <path id="Tracé_443" data-name="Tracé 443" d="M108.3,271.82v-4.27a5.271,5.271,0,0,0-.15-1,4.1,4.1,0,0,0-.21-.48c-.15-.32-.14-.69-.29-1a1.114,1.114,0,0,0-.81-.56,1.88,1.88,0,0,1-.66-.41c-.41-.3-.86-.5-1.28-.82a4.28,4.28,0,0,0-1.3-.69c-.23-.08-.48-.2-.71-.26s-.48,0-.65-.19" transform="translate(2898 13200.48)" fill="none" stroke="#000" stroke-linecap="round" stroke-miterlimit="10" stroke-width="2"/>
    <path id="Tracé_444" data-name="Tracé 444" d="M108,266v-3.29c0-.86-.3-1.61-.33-2.48a6.41,6.41,0,0,0-.32-1.84c-.15-.44-.5-.77-.63-1.23a6,6,0,0,0-.61-1.38c-.19-.35-.38-.9-.77-1.06a4,4,0,0,0-2.43-.08c-.57.19-1.08.64-1.64.88s-.82.37-1.23.57a5.46,5.46,0,0,1-2.43.74h-.76c-.25,0-.63-.34-1-.33" transform="translate(2898 13200.48)" fill="none" stroke="#000" stroke-linecap="round" stroke-miterlimit="10" stroke-width="2"/>
    <path id="Tracé_445" data-name="Tracé 445" d="M114.71,248.08c-.28,0-.47-.3-.65-.49a2.3,2.3,0,0,0-.83-.59,7.131,7.131,0,0,0-2.28-.89,6,6,0,0,1-1.64-.2,11.759,11.759,0,0,1-2.46-.78" transform="translate(2898 13200.48)" fill="none" stroke="#000" stroke-linecap="round" stroke-miterlimit="10" stroke-width="2"/>
    <path id="Tracé_446" data-name="Tracé 446" d="M115,246.11a3.94,3.94,0,0,1-.82-2.94,24.589,24.589,0,0,0-.69-4.59c-.31-1.73-.5-3.5-.9-5.22a7.74,7.74,0,0,1-.37-2V229.1" transform="translate(2898 13200.48)" fill="none" stroke="#000" stroke-linecap="round" stroke-miterlimit="10" stroke-width="2"/>
    <path id="Tracé_447" data-name="Tracé 447" d="M136.81,238.25c.76.1,1.55.17,2.31.32.43.09.48.22.79.5s.58.4.84.65a8.23,8.23,0,0,0,.85.82,6.179,6.179,0,0,1,.78.66c.23.24.37.54.6.78a5.9,5.9,0,0,1,1.05,1,12.041,12.041,0,0,0,.73,1c.24.32.57.76.89,1.15.55.67,1,1.4,1.55,2.06.7.81,1.22,1.8,1.86,2.66a24.623,24.623,0,0,0,1.83,2c.41.47.84.92,1.25,1.39s.51.82.82,1.14a7.42,7.42,0,0,0,2.4,1.4c1.23.51,2.41,1.19,3.58,1.81.47.25,1,.48,1.45.69,1.73.72,3.76.71,5.6.94,2,.26,4.09.45,6.1.79a17.088,17.088,0,0,0,2.76.2A11.592,11.592,0,0,0,177,260l1.45-.22a12.308,12.308,0,0,0,1.95-.55c2-.66,3.82-1.53,5.76-2.23a24.137,24.137,0,0,0,2.61-1,19.778,19.778,0,0,1,2.65-1c.79-.25,1.48-.73,2.28-1a18,18,0,0,1,2-.66,8.26,8.26,0,0,1,4.5.5,19.451,19.451,0,0,1,3.78,1.46,12.581,12.581,0,0,1,1.35,1.17,10.3,10.3,0,0,1,.94.81" transform="translate(2898 13200.48)" fill="none" stroke="#000" stroke-linecap="round" stroke-miterlimit="10" stroke-width="2"/>
    <path id="Tracé_448" data-name="Tracé 448" d="M184.33,257.72c-.42.34.83,1.66,1,2a7,7,0,0,1,1,2.18,3.67,3.67,0,0,1-.29,2.29c-.27.51-.81.92-1,1.47-.33,1.22.4,2.23,1.11,3.12s2.2,1.22,3.28,1.76" transform="translate(2898 13200.48)" fill="none" stroke="#000" stroke-linecap="round" stroke-miterlimit="10" stroke-width="2"/>
    <path id="Tracé_449" data-name="Tracé 449" d="M209.16,255.49a3.24,3.24,0,0,0-1.8.65c-.7.36-1.39.77-2.09,1.14-.35.19-.64.49-1,.67a5,5,0,0,0-.71.32,14.8,14.8,0,0,0-1.72,1.73c-.42.43-.79.85-1.16,1.31s-1.42,1.54-2.11,1.53-1.38-.62-2.05-.87a7.57,7.57,0,0,0-1.8-.58" transform="translate(2898 13200.48)" fill="none" stroke="#000" stroke-linecap="round" stroke-miterlimit="10" stroke-width="2"/>
    <path id="Tracé_450" data-name="Tracé 450" d="M206.53,256.63c0,.62.84,1.23,1.15,1.71.55.86.81,1.9,1.39,2.73.38.53.68,1.05,1.08,1.57a2.7,2.7,0,0,0,1.46,1" transform="translate(2898 13200.48)" fill="none" stroke="#000" stroke-linecap="round" stroke-miterlimit="10" stroke-width="2"/>
    <path id="Tracé_451" data-name="Tracé 451" d="M173.68,260a1.827,1.827,0,0,0,.57,1.38,18.711,18.711,0,0,1,1.07,1.61,6.2,6.2,0,0,1,.52,1.44c.21.6.82.91,1.12,1.47" transform="translate(2898 13200.48)" fill="none" stroke="#000" stroke-linecap="round" stroke-miterlimit="10" stroke-width="2"/>
    <path id="Tracé_452" data-name="Tracé 452" d="M170.4,259.58a13,13,0,0,1,.25-3.79,14.746,14.746,0,0,1,.77-2.14,6.893,6.893,0,0,1,.44-1,7.909,7.909,0,0,1,.92-.91c.59-.58.93-1.28,1.72-1.66a4.45,4.45,0,0,1,2-.55,8.339,8.339,0,0,1,1.87,0c.24.06.44.23.68.29a5.454,5.454,0,0,0,.62.09,7,7,0,0,0,1.37.08" transform="translate(2898 13200.48)" fill="none" stroke="#000" stroke-linecap="round" stroke-miterlimit="10" stroke-width="2"/>
    <path id="Tracé_453" data-name="Tracé 453" d="M170.57,256.52c-.22-.16-.22-.61-.29-.86a3.491,3.491,0,0,0-.29-.88c-.45-.82-1.25-.72-2.05-.72" transform="translate(2898 13200.48)" fill="none" stroke="#000" stroke-linecap="round" stroke-miterlimit="10" stroke-width="2"/>
    <path id="Tracé_454" data-name="Tracé 454" d="M154,255.78c0,.34-.89.64-1.11.86-.42.41-.93.64-1.32,1.06a2.38,2.38,0,0,0-.49,1.22c-.17.83-.06,1.77-.15,2.62-.35,3.06-1,6.08-.87,9.16,0,.36.14.66.17,1a6.28,6.28,0,0,0,.28,1.27,6.89,6.89,0,0,0,1.35,3,21.818,21.818,0,0,1,1.45,1.91,2.68,2.68,0,0,0,1,1c.38.16.82.19,1.18.38a2.75,2.75,0,0,1,1.08,1.38" transform="translate(2898 13200.48)" fill="none" stroke="#000" stroke-linecap="round" stroke-miterlimit="10" stroke-width="2"/>
    <path id="Tracé_455" data-name="Tracé 455" d="M156.15,279.87a4.09,4.09,0,0,1-.66,2c-.52,1.07-1.15,2.05-1.64,3.15-.32.74-.67,1.47-.95,2.23a19,19,0,0,0-.77,2.07c-.1.43-.09.86-.2,1.28s-.17.58-.24.87a26.8,26.8,0,0,0-.75,3.69,18,18,0,0,0,0,2.65c0,.47.12.91.15,1.38a6.29,6.29,0,0,0,.84,1.85" transform="translate(2898 13200.48)" fill="none" stroke="#000" stroke-linecap="round" stroke-miterlimit="10" stroke-width="2"/>
    <path id="Tracé_456" data-name="Tracé 456" d="M152.84,287.27a1.93,1.93,0,0,0,1,1.88,2.63,2.63,0,0,0,.92.42,5.37,5.37,0,0,1,1,.33,6.149,6.149,0,0,0,2,.49h3.28a10.273,10.273,0,0,1,2.22.07,17.693,17.693,0,0,1,2,.46c.39.15.79.09,1.16.27s.83.44,1.24.67a6.62,6.62,0,0,1,2.16,1.64" transform="translate(2898 13200.48)" fill="none" stroke="#000" stroke-linecap="round" stroke-miterlimit="10" stroke-width="2"/>
    <path id="Tracé_457" data-name="Tracé 457" d="M156.12,280.36c.82.09,1.56-1.42,2-2a17.378,17.378,0,0,0,1.8-2.62" transform="translate(2898 13200.48)" fill="none" stroke="#000" stroke-linecap="round" stroke-miterlimit="10" stroke-width="2"/>
    <path id="Tracé_458" data-name="Tracé 458" d="M150.41,263a11.331,11.331,0,0,1-2-.82,4.221,4.221,0,0,0-1.7-.17c-.38,0-.7.27-1.08.33a3.649,3.649,0,0,0-1,.17,9.22,9.22,0,0,1-1.74.82" transform="translate(2898 13200.48)" fill="none" stroke="#000" stroke-linecap="round" stroke-miterlimit="10" stroke-width="2"/>
    <path id="Tracé_459" data-name="Tracé 459" d="M146.86,246.44a3.89,3.89,0,0,1,1.82-1.87,11.751,11.751,0,0,1,1.31-.42c.88-.27,1.8-.55,2.69-.75a14.659,14.659,0,0,1,3.4-.57,7.893,7.893,0,0,1,1,.18,4,4,0,0,1,1.44.32" transform="translate(2898 13200.48)" fill="none" stroke="#000" stroke-linecap="round" stroke-miterlimit="10" stroke-width="2"/>
    <path id="Tracé_460" data-name="Tracé 460" d="M154.84,255.86c.27-.26.16-.71.16-1.05v-1.37c0-.46-.14-1.24.33-1.67" transform="translate(2898 13200.48)" fill="none" stroke="#000" stroke-linecap="round" stroke-miterlimit="10" stroke-width="2"/>
    <path id="Tracé_461" data-name="Tracé 461" d="M155,202.2a2.89,2.89,0,0,1-.53-1c-.18-.4-.42-.78-.61-1.17-.5-1-.89-2-1.36-3s-1.25-1-2.06-1.55a13.7,13.7,0,0,1-1.88-1.4,9,9,0,0,0-1.92-1.18,6,6,0,0,1-2.09-2.15,3.53,3.53,0,0,0-2.33-1.59c-.71-.14-1.43-.21-2.14-.31a6.579,6.579,0,0,1-1.87-.69,10,10,0,0,0-2.41-.67,15.89,15.89,0,0,0-1.81-.3l-1.94-.06c-1.93-.18-3.79-.82-5.7-1.08a24.867,24.867,0,0,0-3.76-.2c-1.23,0-2.42-.17-3.64-.16a14.76,14.76,0,0,0-3.7.28,4.39,4.39,0,0,0-1.71.86c-.9.67-1.61,1.64-2.79,1.8" transform="translate(2898 13200.48)" fill="none" stroke="#000" stroke-linecap="round" stroke-miterlimit="10" stroke-width="2"/>
    <path id="Tracé_462" data-name="Tracé 462" d="M145.31,196.67c-.44-.08-.78.28-1.06.56s-2.66,2.54-2.92,2.87c-.53.69,1-.62.34,0a5.67,5.67,0,0,1-2.26,1.48,9.5,9.5,0,0,0-1.39.2c-.24.09-.49.22-.74.29a4,4,0,0,1-.78,0,3.1,3.1,0,0,0-.95.25,5.28,5.28,0,0,1-1.64.08c-.85,0-1.47.52-2.29.64a9.489,9.489,0,0,0-1.18.14c-.4.11-.79.29-1.19.37" transform="translate(2898 13200.48)" fill="none" stroke="#000" stroke-linecap="round" stroke-miterlimit="10" stroke-width="2"/>
    <path id="Tracé_463" data-name="Tracé 463" d="M234.31,164.05s-18,4.38-22.37,0a26.25,26.25,0,0,0-7-4.39,86.724,86.724,0,0,0-10-3.87s-8.26-2.68-16.11-6.08-15.25-7.54-13.55-10.46c3.4-5.83-1-28.2-14.83-23.83a114,114,0,0,0-25.53,12.16" transform="translate(2898 13200.48)" fill="none" stroke="#000" stroke-linecap="round" stroke-width="2"/>
    <path id="Tracé_464" data-name="Tracé 464" d="M165.92,131s4.86-5.53,5.89-10.33S179.6,119,179.6,119s3.64-2.35,3.1-6" transform="translate(2898 13200.48)" fill="none" stroke="#000" stroke-linecap="round" stroke-width="2"/>
    <path id="Tracé_465" data-name="Tracé 465" d="M215.23,165.51a4.94,4.94,0,0,1,.78,1.28c.17.38,0,.7.16,1.08.39,1.33,2.3.93,3.34.92a2,2,0,0,1,1.37.26,2.71,2.71,0,0,1,.83,1.3c.19.58.15,1.23.35,1.81a13.182,13.182,0,0,0,.83,1.74" transform="translate(2898 13200.48)" fill="none" stroke="#000" stroke-linecap="round" stroke-miterlimit="10" stroke-width="2"/>
    <path id="Tracé_466" data-name="Tracé 466" d="M227.63,165.14v1.65c0,.48-.14,1,.2,1.39a5.38,5.38,0,0,0,1.63,1c.52.27.92.82,1.45,1.07.12.05.28,0,.41.09a2,2,0,0,1,.6.85,4,4,0,0,1,.64,1.65c0,.54,0,1.09,0,1.63a16.051,16.051,0,0,0-.19,1.65" transform="translate(2898 13200.48)" fill="none" stroke="#000" stroke-linecap="round" stroke-miterlimit="10" stroke-width="2"/>
    <path id="Tracé_467" data-name="Tracé 467" d="M232.37,173.17l.18-.12c.4.15.68.64,1.08.85a2.76,2.76,0,0,0,1.48.36,5.3,5.3,0,0,1,2.18.18,9.5,9.5,0,0,0,1.17.53c.33.1.62.3.94.37a11.792,11.792,0,0,0,2.45,0" transform="translate(2898 13200.48)" fill="none" stroke="#000" stroke-linecap="round" stroke-miterlimit="10" stroke-width="2"/>
    <path id="Tracé_468" data-name="Tracé 468" d="M234,164.05h5.29a1.257,1.257,0,0,0,1-.27,2.89,2.89,0,0,0,.45-1.33,15.567,15.567,0,0,0,0-2.16c0-.8-.69-1.12-.94-1.8a1.57,1.57,0,0,1,.31-1.73c.37-.46,1-.64,1.33-1.1s.46-.7.93-.91a29.148,29.148,0,0,0,2.56-1.64" transform="translate(2898 13200.48)" fill="none" stroke="#000" stroke-linecap="round" stroke-miterlimit="10" stroke-width="2"/>
    <path id="Tracé_469" data-name="Tracé 469" d="M189.51,154.2c.2,1-1.45,1.87-2.19,2.2a3,3,0,0,1-1.65.18c-.32-.06-.57-.3-.89-.38a7.3,7.3,0,0,0-1.47-.18,2.14,2.14,0,0,0-1.37.46,10.172,10.172,0,0,0-1.35,1c-.22.22-.34.51-.55.73s-.51.33-.74.53" transform="translate(2898 13200.48)" fill="none" stroke="#000" stroke-linecap="round" stroke-miterlimit="10" stroke-width="2"/>
    <path id="Tracé_470" data-name="Tracé 470" d="M188.24,156.18c.27.23.24.77.4,1.09s.5.65.7,1c.29.52.11,1.09.36,1.64a2.66,2.66,0,0,1,0,2.09,5.2,5.2,0,0,1-1.91,1.93,7.391,7.391,0,0,1-1,.64c-.52.25-1.09,0-1.57.28a2.92,2.92,0,0,0-1.17,2.39,18.141,18.141,0,0,1-1.25,3.07c-.14.42-.25.87-.35,1.31a4.2,4.2,0,0,0-.23,1.14" transform="translate(2898 13200.48)" fill="none" stroke="#000" stroke-linecap="round" stroke-miterlimit="10" stroke-width="2"/>
    <path id="Tracé_471" data-name="Tracé 471" d="M183.5,166.39a3.35,3.35,0,0,0-1.46.33,6.379,6.379,0,0,1-1.48.41c-.59.06-1.24,0-1.84,0H176.2c-1.06,0-1.95.08-2.73-.73" transform="translate(2898 13200.48)" fill="none" stroke="#000" stroke-linecap="round" stroke-miterlimit="10" stroke-width="2"/>
    <path id="Tracé_472" data-name="Tracé 472" d="M124.77,127.58a10.509,10.509,0,0,0-.92.73c-.25.25-.48.6-.81.71a8.08,8.08,0,0,1-4.85-.48c-.63-.21-.78-.53-1.11-1.08-.56-.94-1.19-1.82-1.7-2.79a22.136,22.136,0,0,0-1.53-2.28,9.719,9.719,0,0,0-1.7-1.87c-.77-.74-1.56-1.45-2.32-2.21a23.59,23.59,0,0,1-2.9-3.84c-1-1.6-2-3.26-3.67-4.13a20.579,20.579,0,0,0-3.5-1.18,9.66,9.66,0,0,0-2.72-.38,3.32,3.32,0,0,0-1.09.12,2.4,2.4,0,0,1-.72.26" transform="translate(2898 13200.48)" fill="none" stroke="#000" stroke-linecap="round" stroke-miterlimit="10" stroke-width="2"/>
    <path id="Tracé_473" data-name="Tracé 473" d="M117.45,128.09a2.06,2.06,0,0,0-1.44.54,16.4,16.4,0,0,1-1.83.91,24.89,24.89,0,0,0-3.85,2.05,3.51,3.51,0,0,0-1,4,5.6,5.6,0,0,0,.65,1.14,10,10,0,0,1,.67,1.62,7.48,7.48,0,0,1,.47,2,8.671,8.671,0,0,1,0,2.1,4,4,0,0,1-.53.95c-.23.41-.33.86-.54,1.28" transform="translate(2898 13200.48)" fill="none" stroke="#000" stroke-linecap="round" stroke-miterlimit="10" stroke-width="2"/>
    <path id="Tracé_474" data-name="Tracé 474" d="M140.09,120.47c.36-.08.5.17.76.35s.72.42,1.07.69c.82.63,1.78,1,2.56,1.69s1,1,.72,1.87c-.19.72-.51.86-.91,1.44a9,9,0,0,1-.55.9c-.22.25-.5.47-.73.71a6.3,6.3,0,0,0-1.27,1.88,2.87,2.87,0,0,0-.37,1.4v1.83" transform="translate(2898 13200.48)" fill="none" stroke="#000" stroke-linecap="round" stroke-miterlimit="10" stroke-width="2"/>
    <path id="Tracé_475" data-name="Tracé 475" d="M135.59,121.38c-.42-.41-.11-1.43-.21-2a4.15,4.15,0,0,0-.53-1.2c-.15-.29-.18-.61-.34-.9s-.39-.52-.52-.82-.15-.52-.26-.77a16.821,16.821,0,0,0-1.23-2.48,25.589,25.589,0,0,0-3-3.77,11.931,11.931,0,0,0-1.6-1.23c-.59-.41-1.11-.91-1.73-1.28-.93-.55-1.9-.81-2.85-1.28a9.789,9.789,0,0,0-2-.73,2.55,2.55,0,0,1-1.71-1.09,5,5,0,0,1-.82-2.2,5.78,5.78,0,0,1,0-2,13.769,13.769,0,0,1,1-2.16,9.18,9.18,0,0,1,1.32-2.4" transform="translate(2898 13200.48)" fill="none" stroke="#000" stroke-linecap="round" stroke-miterlimit="10" stroke-width="2"/>
    <path id="Tracé_476" data-name="Tracé 476" d="M127.72,107.88c1.58,0,3.17.05,4.75,0a5,5,0,0,0,1.09-.18,2.08,2.08,0,0,0,.53-.23c.36-.16.77-.15,1.12-.32a1.256,1.256,0,0,0,.64-.9,1.83,1.83,0,0,1,.45-.73c.33-.46.55-1,.9-1.42a4.67,4.67,0,0,0,.78-1.46,7.248,7.248,0,0,0,.28-.78c.07-.27,0-.53.22-.73" transform="translate(2898 13200.48)" fill="none" stroke="#000" stroke-linecap="round" stroke-miterlimit="10" stroke-width="2"/>
    <path id="Tracé_477" data-name="Tracé 477" d="M134.17,107.52h3.66c1,0,1.79-.33,2.76-.36a7.56,7.56,0,0,0,2-.37c.49-.16.86-.55,1.37-.69a6.74,6.74,0,0,0,1.53-.68c.39-.22,1-.42,1.18-.86a4.45,4.45,0,0,0,.1-2.7c-.22-.63-.71-1.2-1-1.83-.21-.46-.41-.91-.63-1.37a6,6,0,0,1-.82-2.71v-.83c0-.27.39-.7.37-1.1" transform="translate(2898 13200.48)" fill="none" stroke="#000" stroke-linecap="round" stroke-miterlimit="10" stroke-width="2"/>
    <path id="Tracé_478" data-name="Tracé 478" d="M154.13,115c0-.32.34-.53.55-.73a2.6,2.6,0,0,0,.66-.93,8,8,0,0,0,1-2.53,6.6,6.6,0,0,1,.22-1.83,13.259,13.259,0,0,1,.87-2.74" transform="translate(2898 13200.48)" fill="none" stroke="#000" stroke-linecap="round" stroke-miterlimit="10" stroke-width="2"/>
    <path id="Tracé_479" data-name="Tracé 479" d="M156.32,115.36a4.31,4.31,0,0,1,3.28-.91,29.221,29.221,0,0,0,5.1-.77c1.93-.35,3.9-.56,5.81-1a9.18,9.18,0,0,1,2.26-.41h2.52" transform="translate(2898 13200.48)" fill="none" stroke="#000" stroke-linecap="round" stroke-miterlimit="10" stroke-width="2"/>
    <path id="Tracé_480" data-name="Tracé 480" d="M165.08,139.61c-.12.85-.19,1.74-.36,2.58-.1.47-.24.53-.56.88s-.45.64-.72.92a11.761,11.761,0,0,0-.92.95,6.821,6.821,0,0,1-.73.88c-.27.25-.6.41-.86.66-.41.39-.61.84-1.1,1.17s-.75.54-1.13.81-.85.64-1.28,1c-.75.61-1.56,1.08-2.3,1.72-.9.79-2,1.36-3,2.08a27.5,27.5,0,0,0-2.22,2c-.52.46-1,.94-1.55,1.39s-.91.58-1.27.92a8.31,8.31,0,0,0-1.55,2.67c-.57,1.37-1.32,2.68-2,4a15.777,15.777,0,0,0-.76,1.61c-.8,1.92-.79,4.18-1.06,6.23-.29,2.27-.5,4.55-.87,6.79a19.73,19.73,0,0,0-.22,3.07,13.438,13.438,0,0,0,.27,2.37c.1.53.17,1.08.25,1.62a12.891,12.891,0,0,0,.61,2.16c.74,2.17,1.7,4.25,2.48,6.41a27.647,27.647,0,0,0,1.11,2.91,22.231,22.231,0,0,1,1.12,2.94c.28.89.81,1.65,1.09,2.54a20,20,0,0,1,.74,2.27,9.34,9.34,0,0,1-.56,5,21.381,21.381,0,0,1-1.63,4.2,14.279,14.279,0,0,1-1.29,1.51c-.3.37-.57.7-.91,1.05" transform="translate(2898 13200.48)" fill="none" stroke="#000" stroke-linecap="round" stroke-miterlimit="10" stroke-width="2"/>
    <path id="Tracé_481" data-name="Tracé 481" d="M143.41,192.5c-.38-.48-1.85.92-2.19,1.1a7.45,7.45,0,0,1-2.42,1.05,4.07,4.07,0,0,1-2.55-.32c-.56-.3-1-.9-1.64-1.06-1.35-.37-2.47.44-3.47,1.24s-1.35,2.44-2,3.64" transform="translate(2898 13200.48)" fill="none" stroke="#000" stroke-linecap="round" stroke-miterlimit="10" stroke-width="2"/>
    <path id="Tracé_482" data-name="Tracé 482" d="M127.87,194.69a3.58,3.58,0,0,0-.72-2c-.41-.79-.85-1.56-1.27-2.34-.21-.39-.55-.71-.75-1.1a5.46,5.46,0,0,0-.35-.78,16.668,16.668,0,0,0-1.93-1.92,17.718,17.718,0,0,0-1.46-1.29c-.56-.44-1.71-1.59-1.7-2.35s.69-1.54,1-2.28a9,9,0,0,0,.65-2" transform="translate(2898 13200.48)" fill="none" stroke="#000" stroke-linecap="round" stroke-miterlimit="10" stroke-width="2"/>
    <path id="Tracé_483" data-name="Tracé 483" d="M126.6,191.77c-.68,0-1.36.93-1.9,1.28-1,.61-2.12.9-3,1.55-.59.42-1.16.75-1.74,1.2a3,3,0,0,0-1.16,1.62" transform="translate(2898 13200.48)" fill="none" stroke="#000" stroke-linecap="round" stroke-miterlimit="10" stroke-width="2"/>
    <path id="Tracé_484" data-name="Tracé 484" d="M140.85,180.65c-.61-.11-1.07.3-1.54.63s-1.17.82-1.78,1.19a7.391,7.391,0,0,1-1.61.58c-.66.23-1,.91-1.63,1.24" transform="translate(2898 13200.48)" fill="none" stroke="#000" stroke-linecap="round" stroke-miterlimit="10" stroke-width="2"/>
    <path id="Tracé_485" data-name="Tracé 485" d="M141.34,177a14.53,14.53,0,0,1,4.22.27,16.9,16.9,0,0,1,2.38.86,7.849,7.849,0,0,1,1.06.49,8.131,8.131,0,0,1,1,1c.65.65,1.43,1,1.86,1.91a4.86,4.86,0,0,1,.6,2.23,8.581,8.581,0,0,1,0,2.09c-.07.26-.25.48-.32.76s-.06.45-.1.68a7.86,7.86,0,0,0-.09,1.53" transform="translate(2898 13200.48)" fill="none" stroke="#000" stroke-linecap="round" stroke-miterlimit="10" stroke-width="2"/>
    <path id="Tracé_486" data-name="Tracé 486" d="M144.74,177.18c.18-.24.69-.25,1-.31a4.711,4.711,0,0,0,1-.33c.91-.5.8-1.39.8-2.28" transform="translate(2898 13200.48)" fill="none" stroke="#000" stroke-linecap="round" stroke-miterlimit="10" stroke-width="2"/>
    <path id="Tracé_487" data-name="Tracé 487" d="M145.56,158.76c-.37.05-.71-1-.95-1.23-.45-.46-.71-1-1.19-1.47a2.6,2.6,0,0,0-1.35-.54c-.93-.19-2-.07-2.92-.17-3.4-.39-6.76-1.12-10.19-1-.4,0-.73.16-1.12.19a7.07,7.07,0,0,0-1.42.31,7.65,7.65,0,0,0-3.37,1.51c-.65.58-1.42,1.08-2.12,1.61a3,3,0,0,0-1.13,1.16,13.549,13.549,0,0,1-.42,1.32,2.93,2.93,0,0,1-1.54,1.2" transform="translate(2898 13200.48)" fill="none" stroke="#000" stroke-linecap="round" stroke-miterlimit="10" stroke-width="2"/>
    <path id="Tracé_488" data-name="Tracé 488" d="M118.76,161.13a4.48,4.48,0,0,1-2.19-.72c-1.19-.59-2.29-1.29-3.51-1.83-.82-.36-1.63-.74-2.48-1.06a19.4,19.4,0,0,0-2.31-.85c-.47-.11-1-.11-1.42-.23-.32-.08-.64-.19-1-.27a31.358,31.358,0,0,0-4.1-.84,24.18,24.18,0,0,0-3,0c-.52,0-1,.14-1.54.18a6.9,6.9,0,0,0-2.06.92" transform="translate(2898 13200.48)" fill="none" stroke="#000" stroke-linecap="round" stroke-miterlimit="10" stroke-width="2"/>
    <path id="Tracé_489" data-name="Tracé 489" d="M110.52,157.46a2.12,2.12,0,0,0-2.09,1.09,2.75,2.75,0,0,0-.46,1,7,7,0,0,1-.37,1.15,6.8,6.8,0,0,0-.55,2.28c0,1.22,0,2.43,0,3.65a11.309,11.309,0,0,1-.08,2.47,19.413,19.413,0,0,1-.51,2.22,12.794,12.794,0,0,1-.3,1.29c-.24.46-.49.93-.75,1.38a7.38,7.38,0,0,1-1.82,2.41" transform="translate(2898 13200.48)" fill="none" stroke="#000" stroke-linecap="round" stroke-miterlimit="10" stroke-width="2"/>
    <path id="Tracé_490" data-name="Tracé 490" d="M118.21,161.1c-.1.92,1.59,1.74,2.19,2.19a19.318,19.318,0,0,0,2.91,2" transform="translate(2898 13200.48)" fill="none" stroke="#000" stroke-linecap="round" stroke-miterlimit="10" stroke-width="2"/>
    <path id="Tracé_491" data-name="Tracé 491" d="M137.54,154.75a12.75,12.75,0,0,1,.91-2.2,4.49,4.49,0,0,0,.19-1.9c0-.42-.3-.77-.36-1.19a4.209,4.209,0,0,0-.19-1.17,10.7,10.7,0,0,1-.92-1.93" transform="translate(2898 13200.48)" fill="none" stroke="#000" stroke-linecap="round" stroke-miterlimit="10" stroke-width="2"/>
    <path id="Tracé_492" data-name="Tracé 492" d="M156,150.8a4.27,4.27,0,0,1,2.08,2,13.639,13.639,0,0,1,.47,1.45c.29,1,.61,2,.83,3a15.729,15.729,0,0,1,.63,3.78,7.868,7.868,0,0,1-.19,1.08,4.53,4.53,0,0,1-.36,1.61" transform="translate(2898 13200.48)" fill="none" stroke="#000" stroke-linecap="round" stroke-miterlimit="10" stroke-width="2"/>
    <path id="Tracé_493" data-name="Tracé 493" d="M145.47,159.67c.3.31.8.19,1.18.19h1.52c.52,0,1.38-.16,1.86.36" transform="translate(2898 13200.48)" fill="none" stroke="#000" stroke-linecap="round" stroke-miterlimit="10" stroke-width="2"/>
    <path id="Tracé_494" data-name="Tracé 494" d="M180.77,118.34a4.909,4.909,0,0,1,1-.25c.39-.09.77-.2,1.16-.3,1-.23,2-.42,3-.65s1-.6,1.54-1a10.4,10.4,0,0,1,1.39-.9,5.38,5.38,0,0,0,1.17-.93,6.12,6.12,0,0,1,2.13-1,2.37,2.37,0,0,0,1.58-1.12,9.541,9.541,0,0,0,.31-1,2.34,2.34,0,0,1,.68-.9,3.29,3.29,0,0,0,.67-1.16,4.12,4.12,0,0,0,.29-.88l.06-.94c.18-.93.81-1.82,1.08-2.75a6.17,6.17,0,0,0,.19-1.81c0-.59.17-1.17.16-1.76a3.63,3.63,0,0,0-.28-1.79,2.24,2.24,0,0,0-.85-.82c-.66-.43-1.63-.78-1.79-1.35" transform="translate(2898 13200.48)" fill="none" stroke="#000" stroke-linecap="round" stroke-miterlimit="10" stroke-width="2"/>
    <path id="Tracé_495" data-name="Tracé 495" d="M162.68,145.41c.09-.49-.31-.86-.62-1.17a10.538,10.538,0,0,0-1-1,16.75,16.75,0,0,1-2.19-1.85,6.17,6.17,0,0,1-1.66-2.51,12,12,0,0,0-.21-1.55,6.522,6.522,0,0,1-.33-.83,4.131,4.131,0,0,1,0-.86,3.55,3.55,0,0,0-.29-1.06,5.869,5.869,0,0,1-.08-1.83c0-.94-.58-1.63-.72-2.54a9.879,9.879,0,0,0-.15-1.32c-.12-.44-.32-.87-.41-1.32" transform="translate(2898 13200.48)" fill="none" stroke="#000" stroke-linecap="round" stroke-miterlimit="10" stroke-width="2"/>
    <path id="Tracé_496" data-name="Tracé 496" d="M245.18,292.34s-3.57-14.68,0-18.25a21.5,21.5,0,0,0,3.59-5.71,72.745,72.745,0,0,0,3.16-8.17s2.18-6.74,4.95-13.14S263,234.62,265.41,236c4.76,2.78,23-.79,19.44-12.1a92.9,92.9,0,0,0-9.92-20.82" transform="translate(2898 13200.48)" fill="none" stroke="#000" stroke-linecap="round" stroke-width="2"/>
    <path id="Tracé_497" data-name="Tracé 497" d="M248.46,242.26s4.5,4,8.42,4.81,1.41,6.35,1.41,6.35,1.92,3,4.89,2.52" transform="translate(2898 13200.48)" fill="none" stroke="#000" stroke-linecap="round" stroke-width="2"/>
    <path id="Tracé_498" data-name="Tracé 498" d="M244,276.77a4.161,4.161,0,0,1-1.05.64c-.31.13-.57,0-.88.13-1.09.32-.75,1.88-.75,2.72a1.6,1.6,0,0,1-.21,1.12,2.12,2.12,0,0,1-1.06.67c-.47.16-1,.13-1.47.29a12.478,12.478,0,0,0-1.43.68" transform="translate(2898 13200.48)" fill="none" stroke="#000" stroke-linecap="round" stroke-miterlimit="10" stroke-width="2"/>
    <path id="Tracé_499" data-name="Tracé 499" d="M244.29,286.88H243c-.39,0-.83-.11-1.13.17a4.08,4.08,0,0,0-.79,1.33c-.22.43-.67.75-.87,1.18a.508.508,0,0,1-.08.33,1.58,1.58,0,0,1-.69.5,3.55,3.55,0,0,1-1.35.52h-1.33a12.2,12.2,0,0,0-1.34-.15" transform="translate(2898 13200.48)" fill="none" stroke="#000" stroke-linecap="round" stroke-miterlimit="10" stroke-width="2"/>
    <path id="Tracé_500" data-name="Tracé 500" d="M237.75,290.75l.1.15c-.13.33-.52.56-.7.88a2.24,2.24,0,0,0-.29,1.21,4.26,4.26,0,0,1-.15,1.78,6.747,6.747,0,0,0-.43,1c-.08.27-.25.51-.31.77a10.271,10.271,0,0,0,0,2" transform="translate(2898 13200.48)" fill="none" stroke="#000" stroke-linecap="round" stroke-miterlimit="10" stroke-width="2"/>
    <path id="Tracé_501" data-name="Tracé 501" d="M245.19,292.09v4.32a1.051,1.051,0,0,0,.22.82,2.25,2.25,0,0,0,1.08.37,11.486,11.486,0,0,0,1.76,0c.66,0,.92-.57,1.47-.77a1.29,1.29,0,0,1,1.42.25c.36.3.51.78.89,1.08s.57.38.74.77c.33.75.94,1.37,1.34,2.09" transform="translate(2898 13200.48)" fill="none" stroke="#000" stroke-linecap="round" stroke-miterlimit="10" stroke-width="2"/>
    <path id="Tracé_502" data-name="Tracé 502" d="M253.22,255.8c-.84.15-1.53-1.19-1.8-1.79a2.56,2.56,0,0,1-.14-1.35c.05-.26.25-.47.31-.73a6,6,0,0,0,.15-1.2,1.74,1.74,0,0,0-.38-1.11,7.377,7.377,0,0,0-.83-1.1c-.18-.18-.42-.28-.6-.45s-.27-.42-.43-.6" transform="translate(2898 13200.48)" fill="none" stroke="#000" stroke-linecap="round" stroke-miterlimit="10" stroke-width="2"/>
    <path id="Tracé_503" data-name="Tracé 503" d="M251.61,254.75c-.2.23-.63.2-.9.33s-.52.41-.82.57-.89.09-1.33.29a2.21,2.21,0,0,1-1.71,0,4.2,4.2,0,0,1-1.57-1.56,5.309,5.309,0,0,1-.52-.81c-.21-.43,0-.89-.24-1.29a2.39,2.39,0,0,0-1.94-.95,15.07,15.07,0,0,1-2.5-1c-.35-.11-.72-.21-1.08-.29a3.331,3.331,0,0,0-.93-.18" transform="translate(2898 13200.48)" fill="none" stroke="#000" stroke-linecap="round" stroke-miterlimit="10" stroke-width="2"/>
    <path id="Tracé_504" data-name="Tracé 504" d="M243.28,250.89a2.87,2.87,0,0,0-.27-1.19,5.121,5.121,0,0,1-.34-1.2v-3.56a2.68,2.68,0,0,1,.6-2.23" transform="translate(2898 13200.48)" fill="none" stroke="#000" stroke-linecap="round" stroke-miterlimit="10" stroke-width="2"/>
    <path id="Tracé_505" data-name="Tracé 505" d="M260,207.29a7.7,7.7,0,0,0,0-1,1.91,1.91,0,0,1,0-.89,6.61,6.61,0,0,1,2.88-2.73,1.54,1.54,0,0,1,1.26-.11c.87.16,1.75.24,2.63.45.72.17,1.48.15,2.22.27a8.37,8.37,0,0,0,2.06,0c.87-.09,1.73-.2,2.6-.25a18.381,18.381,0,0,1,3.92.26c1.53.22,3.05.53,4.51-.07a16.942,16.942,0,0,0,2.59-1.53,7.91,7.91,0,0,0,1.69-1.47,2.681,2.681,0,0,0,.5-.74,2,2,0,0,1,.23-.58" transform="translate(2898 13200.48)" fill="none" stroke="#000" stroke-linecap="round" stroke-miterlimit="10" stroke-width="2"/>
    <path id="Tracé_506" data-name="Tracé 506" d="M280,203.13c.08-.47-.2-.79-.44-1.17a13.909,13.909,0,0,1-.74-1.5,20.42,20.42,0,0,0-1.67-3.13,2.86,2.86,0,0,0-3.24-.86,4.68,4.68,0,0,0-.92.53,8,8,0,0,1-1.32.54,5.72,5.72,0,0,1-1.67.39,7.06,7.06,0,0,1-1.72,0,3.4,3.4,0,0,1-.77-.42c-.33-.19-.7-.28-1-.45" transform="translate(2898 13200.48)" fill="none" stroke="#000" stroke-linecap="round" stroke-miterlimit="10" stroke-width="2"/>
    <path id="Tracé_507" data-name="Tracé 507" d="M281.74,215.48c.06.3-.15.41-.29.62s-.35.59-.56.87c-.52.67-.83,1.46-1.38,2.09s-.78.79-1.53.59c-.59-.15-.7-.42-1.18-.74-.24-.17-.5-.26-.73-.45s-.38-.41-.58-.6a5.31,5.31,0,0,0-1.53-1,2.38,2.38,0,0,0-1.14-.29h-1.5" transform="translate(2898 13200.48)" fill="none" stroke="#000" stroke-linecap="round" stroke-miterlimit="10" stroke-width="2"/>
    <path id="Tracé_508" data-name="Tracé 508" d="M280,211.82c.34-.35,1.17-.1,1.6-.18a3.57,3.57,0,0,0,1-.43c.24-.12.5-.15.74-.28s.41-.31.66-.42.43-.12.63-.21a12.7,12.7,0,0,0,2-1,21.109,21.109,0,0,0,3.08-2.41,9.848,9.848,0,0,0,1-1.31,10.99,10.99,0,0,0,1-1.41c.45-.76.67-1.55,1.05-2.33a8.187,8.187,0,0,0,.6-1.61,2,2,0,0,1,.88-1.39,4.1,4.1,0,0,1,1.8-.67,4.41,4.41,0,0,1,1.62,0,12.42,12.42,0,0,1,1.77.84,7.39,7.39,0,0,1,2,1.07" transform="translate(2898 13200.48)" fill="none" stroke="#000" stroke-linecap="round" stroke-miterlimit="10" stroke-width="2"/>
    <path id="Tracé_509" data-name="Tracé 509" d="M291,205.39v3.88a4.261,4.261,0,0,0,.15.88,1.721,1.721,0,0,0,.19.44c.13.29.12.63.26.91a1.031,1.031,0,0,0,.73.52,1.68,1.68,0,0,1,.6.37c.37.27.78.45,1.16.74a3.941,3.941,0,0,0,1.18.63c.21.07.43.18.65.23s.43,0,.58.18" transform="translate(2898 13200.48)" fill="none" stroke="#000" stroke-linecap="round" stroke-miterlimit="10" stroke-width="2"/>
    <path id="Tracé_510" data-name="Tracé 510" d="M291.3,210.65v3c0,.78.27,1.46.29,2.25a6.3,6.3,0,0,0,.3,1.67c.14.41.45.71.57,1.12a5.8,5.8,0,0,0,.55,1.25c.18.32.34.82.7,1a3.6,3.6,0,0,0,2.2.08,16.467,16.467,0,0,0,1.49-.81c.49-.23.75-.33,1.12-.51a5,5,0,0,1,2.21-.67h.68c.22,0,.57.31.9.3" transform="translate(2898 13200.48)" fill="none" stroke="#000" stroke-linecap="round" stroke-miterlimit="10" stroke-width="2"/>
    <path id="Tracé_511" data-name="Tracé 511" d="M285.17,226.94c.26,0,.43.27.6.44a2.17,2.17,0,0,0,.75.54,6.711,6.711,0,0,0,2.07.81,5.291,5.291,0,0,1,1.49.18,10.75,10.75,0,0,1,2.23.71" transform="translate(2898 13200.48)" fill="none" stroke="#000" stroke-linecap="round" stroke-miterlimit="10" stroke-width="2"/>
    <path id="Tracé_512" data-name="Tracé 512" d="M284.9,228.72a3.54,3.54,0,0,1,.75,2.68,23.337,23.337,0,0,0,.62,4.16c.29,1.57.46,3.18.83,4.74a7.191,7.191,0,0,1,.33,1.84c0,.68,0,1.37,0,2.05" transform="translate(2898 13200.48)" fill="none" stroke="#000" stroke-linecap="round" stroke-miterlimit="10" stroke-width="2"/>
    <path id="Tracé_513" data-name="Tracé 513" d="M265.12,235.86c-.69-.09-1.41-.15-2.1-.29-.39-.08-.43-.19-.72-.45s-.52-.37-.76-.6a7.711,7.711,0,0,0-.77-.74,6.73,6.73,0,0,1-.71-.59c-.21-.22-.33-.49-.54-.71a8.924,8.924,0,0,1-1-.9c-.31-.4-.44-.61-.65-.92a9.014,9.014,0,0,0-.82-1c-.5-.61-.88-1.28-1.4-1.88s-1.11-1.63-1.69-2.41a23.59,23.59,0,0,0-1.66-1.82c-.38-.42-.77-.83-1.14-1.26s-.46-.74-.75-1a6.67,6.67,0,0,0-2.17-1.27A35.379,35.379,0,0,1,245,218.3c-.43-.22-.87-.43-1.32-.62a20.162,20.162,0,0,0-5.08-.86c-1.85-.23-3.71-.4-5.54-.71a16.127,16.127,0,0,0-2.51-.18,10.471,10.471,0,0,0-1.93.22c-.43.08-.88.14-1.31.21a10.119,10.119,0,0,0-1.77.49c-1.77.61-3.47,1.39-5.23,2a20.594,20.594,0,0,0-2.37.9,19.37,19.37,0,0,1-2.4.91c-.73.23-1.34.66-2.07.9a18.11,18.11,0,0,1-1.85.6,7.63,7.63,0,0,1-4.09-.46,17.41,17.41,0,0,1-3.43-1.33,11.272,11.272,0,0,1-1.23-1.06c-.3-.24-.57-.46-.85-.73" transform="translate(2898 13200.48)" fill="none" stroke="#000" stroke-linecap="round" stroke-miterlimit="10" stroke-width="2"/>
    <path id="Tracé_514" data-name="Tracé 514" d="M222,218.19c.39-.31-.75-1.51-.9-1.78a6.32,6.32,0,0,1-.85-2,3.24,3.24,0,0,1,.26-2.08c.24-.46.73-.83.87-1.34a3.26,3.26,0,0,0-1-2.83c-.69-.88-2-1.1-3-1.6" transform="translate(2898 13200.48)" fill="none" stroke="#000" stroke-linecap="round" stroke-miterlimit="10" stroke-width="2"/>
    <path id="Tracé_515" data-name="Tracé 515" d="M208.58,216.1a3,3,0,0,0,1.62-.59c.64-.33,1.27-.7,1.91-1,.31-.17.58-.44.89-.61a4.589,4.589,0,0,0,.64-.28A12.942,12.942,0,0,0,215.2,212a11.864,11.864,0,0,0,1.06-1.19c.36-.45,1.3-1.39,1.92-1.39s1.25.57,1.86.79a6.76,6.76,0,0,0,1.63.53" transform="translate(2898 13200.48)" fill="none" stroke="#000" stroke-linecap="round" stroke-miterlimit="10" stroke-width="2"/>
    <path id="Tracé_516" data-name="Tracé 516" d="M211,215.06c0-.56-.76-1.11-1-1.55-.5-.78-.74-1.73-1.27-2.48-.34-.48-.61-.95-1-1.42a2.49,2.49,0,0,0-1.32-1" transform="translate(2898 13200.48)" fill="none" stroke="#000" stroke-linecap="round" stroke-miterlimit="10" stroke-width="2"/>
    <path id="Tracé_517" data-name="Tracé 517" d="M231.65,216.1c.09-.5-.25-.87-.52-1.25s-.66-1-1-1.46a6.209,6.209,0,0,1-.47-1.31c-.19-.54-.75-.82-1-1.33" transform="translate(2898 13200.48)" fill="none" stroke="#000" stroke-linecap="round" stroke-miterlimit="10" stroke-width="2"/>
    <path id="Tracé_518" data-name="Tracé 518" d="M234.62,216.5a11.63,11.63,0,0,1-.22,3.44,13.743,13.743,0,0,1-.7,1.95,6.72,6.72,0,0,1-.4.86,6.519,6.519,0,0,1-.84.82c-.53.53-.84,1.17-1.56,1.51a3.87,3.87,0,0,1-1.82.49,6.9,6.9,0,0,1-1.7,0c-.21-.06-.39-.21-.62-.26s-.37-.06-.55-.09a6.6,6.6,0,0,0-1.25-.07" transform="translate(2898 13200.48)" fill="none" stroke="#000" stroke-linecap="round" stroke-miterlimit="10" stroke-width="2"/>
    <path id="Tracé_519" data-name="Tracé 519" d="M234.48,219.28c.19.14.2.55.25.77a3.851,3.851,0,0,0,.27.81c.41.74,1.14.65,1.86.65" transform="translate(2898 13200.48)" fill="none" stroke="#000" stroke-linecap="round" stroke-miterlimit="10" stroke-width="2"/>
    <path id="Tracé_520" data-name="Tracé 520" d="M249.5,220c0-.31.8-.58,1-.78.37-.37.84-.58,1.19-1a2.09,2.09,0,0,0,.44-1.1c.16-.76.06-1.6.15-2.38a55.259,55.259,0,0,0,.79-8.31c0-.33-.14-.6-.16-.92a5.641,5.641,0,0,0-.26-1.15,6.27,6.27,0,0,0-1.22-2.76c-.48-.53-.88-1.15-1.32-1.72a2.42,2.42,0,0,0-1-.93,10.219,10.219,0,0,1-1.07-.34,2.44,2.44,0,0,1-1-1.25" transform="translate(2898 13200.48)" fill="none" stroke="#000" stroke-linecap="round" stroke-miterlimit="10" stroke-width="2"/>
    <path id="Tracé_521" data-name="Tracé 521" d="M250,208.43a3.66,3.66,0,0,1,.59-1.78c.48-1,1-1.86,1.49-2.86.3-.67.61-1.33.86-2a16.379,16.379,0,0,0,.7-1.88c.09-.39.09-.78.19-1.17s.15-.52.22-.79a27.079,27.079,0,0,0,.68-3.34,17.633,17.633,0,0,0,0-2.41c0-.42-.1-.83-.14-1.25a5.62,5.62,0,0,0-.75-1.68" transform="translate(2898 13200.48)" fill="none" stroke="#000" stroke-linecap="round" stroke-miterlimit="10" stroke-width="2"/>
    <path id="Tracé_522" data-name="Tracé 522" d="M254.4,196.51a1.73,1.73,0,0,0-.25-1.9,2.12,2.12,0,0,0-.65-.65,5.5,5.5,0,0,1-.77-.6,5.31,5.31,0,0,0-1.6-1.06l-2.79-1a9.52,9.52,0,0,1-1.87-.76,15.371,15.371,0,0,1-1.55-1c-.29-.24-.65-.32-.91-.59a11.3,11.3,0,0,1-.84-1,5.91,5.91,0,0,1-1.33-2.08" transform="translate(2898 13200.48)" fill="none" stroke="#000" stroke-linecap="round" stroke-miterlimit="10" stroke-width="2"/>
    <path id="Tracé_523" data-name="Tracé 523" d="M245.31,189.75c-.75-.09-1.42,1.29-1.79,1.78a15.421,15.421,0,0,0-1.63,2.38" transform="translate(2898 13200.48)" fill="none" stroke="#000" stroke-linecap="round" stroke-miterlimit="10" stroke-width="2"/>
    <path id="Tracé_524" data-name="Tracé 524" d="M252.77,213.4a10.069,10.069,0,0,1,1.8.75,3.81,3.81,0,0,0,1.54.15c.35,0,.63-.24,1-.29a3.86,3.86,0,0,0,1-.16,9.84,9.84,0,0,1,1.57-.75" transform="translate(2898 13200.48)" fill="none" stroke="#000" stroke-linecap="round" stroke-miterlimit="10" stroke-width="2"/>
    <path id="Tracé_525" data-name="Tracé 525" d="M256,228.43a3.49,3.49,0,0,1-1.65,1.7,11,11,0,0,1-1.19.38c-.8.24-1.63.49-2.44.67a13,13,0,0,1-3.08.52,6.607,6.607,0,0,1-.89-.15,3.78,3.78,0,0,1-1.31-.3" transform="translate(2898 13200.48)" fill="none" stroke="#000" stroke-linecap="round" stroke-miterlimit="10" stroke-width="2"/>
    <path id="Tracé_526" data-name="Tracé 526" d="M248.76,219.87c-.25.24-.15.65-.15,1v1.24c0,.52.12,1.13-.3,1.52" transform="translate(2898 13200.48)" fill="none" stroke="#000" stroke-linecap="round" stroke-miterlimit="10" stroke-width="2"/>
    <path id="Tracé_527" data-name="Tracé 527" d="M248.58,268.59a2.58,2.58,0,0,1,.48.93c.17.36.38.71.56,1.06.45.9.8,1.83,1.22,2.73s1.14.94,1.88,1.41a11.751,11.751,0,0,1,1.7,1.27,8.049,8.049,0,0,0,1.75,1.07,5.55,5.55,0,0,1,1.9,1.95,3.22,3.22,0,0,0,2.11,1.45c.64.13,1.3.19,1.94.28a5.71,5.71,0,0,1,1.7.63A9.611,9.611,0,0,0,266,282a15.149,15.149,0,0,0,1.64.27l1.76.05c1.75.17,3.44.74,5.18,1a22.862,22.862,0,0,0,3.41.18c1.11,0,2.19.16,3.3.15a13,13,0,0,0,3.36-.26,4.1,4.1,0,0,0,1.56-.78c.81-.6,1.46-1.48,2.52-1.64" transform="translate(2898 13200.48)" fill="none" stroke="#000" stroke-linecap="round" stroke-miterlimit="10" stroke-width="2"/>
    <path id="Tracé_528" data-name="Tracé 528" d="M254.68,276.32c.4.08.7-.25,1-.5a8.89,8.89,0,0,0,.83-.79,13,13,0,0,1,1.52-1.79,5.07,5.07,0,0,1,2-1.35,8.894,8.894,0,0,0,1.26-.18c.22-.08.45-.2.68-.26a3.35,3.35,0,0,1,.71,0,2.889,2.889,0,0,0,.86-.23,4.63,4.63,0,0,1,1.49-.07c.77,0,1.33-.47,2.07-.59a6.608,6.608,0,0,0,1.08-.12c.36-.1.71-.26,1.08-.33" transform="translate(2898 13200.48)" fill="none" stroke="#000" stroke-linecap="round" stroke-miterlimit="10" stroke-width="2"/>
  </g>
</svg>
