<svg xmlns="http://www.w3.org/2000/svg" width="364" height="364" viewBox="0 0 364 364"><defs><style>.a{fill:#f700f7;}.b{fill:#00f7f7;}.c{fill:#a100ff;}.d{fill:none;stroke:#fff;stroke-linecap:round;stroke-linejoin:round;stroke-width:2px;}</style></defs><g transform="translate(-118 -298)"><rect class="a" width="343" height="343" rx="171.5" transform="translate(118 319)"/><rect class="b" width="343" height="343" rx="171.5" transform="translate(139 298)"/><rect class="c" width="344" height="344" rx="172" transform="translate(128 308)"/><g transform="translate(196 387.759)"><path class="d" d="M369.6,386.515c-6.021,4.745-12.784,6.548-19.272,1.943-7.584-5.383-13.616-4.615-19.525,2.163-.927,1.063-2.648,1.433-4.344,2.3-5.128-1.688-9.351-5.349-13.857-9.078L298.774,393.1c-14.086-8.457-14.086-8.457-27.365-.066-4.781-.785-4.162-8.548-9.608-8.194-2.269-.7-3.336.656-4.347,1.916-5.123,6.383-10.166,8.655-17.565,2.322-3.087-2.642-7.811-2.78-13.213-.7-9.552,3.685-20.3,4.479-30.374.439-5.641-2.261-10.713-2.078-16.41-.048-5.149,1.835-10.811,2.231-16.247,3.262" transform="translate(-162.507 -327.193)"/><path class="d" d="M369.455,331.232c-11.143-3.448-21.713-5.464-32.873,1.718-4.777,3.074-11.358-2.268-17.029-3.876-4.941-1.4-8.454-2.721-13.528.978-6.07,4.424-13.315,5.234-20.316-.525-4.251-3.5-9.309-3.576-14.289.712-3.092,2.662-8.031,5.99-11.94,2.1-7.717-7.684-14.034-5.341-20.56,1.173-.839.837-2.081,1.271-3.766,2.262-2.858-1.9-6.067-4.256-9.494-6.239-3.626-2.1-6.907-3.231-11.3-.186-9.459,6.553-20.384,5.319-30.375,1.978-7.963-2.663-15.054-1.592-22.528.334" transform="translate(-161.398 -298.422)"/><path class="d" d="M368.9,300.291c-7.309,3.863-15.829,3.925-22.19.606-7.879-4.111-15.124-2.588-21.5-.109-8.449,3.287-15.926,3.612-23.57-.433-7.816-4.136-14.38-.058-21.484,2.032-5.8,1.706-11.523,2.877-17.469-1.658-5.167-3.94-11.911-3.5-17.081.932-5.458,4.681-10.362,3.032-15.347-.113-3.567-2.251-7.385-5.317-11.149-1.858-8.341,7.666-18,5.685-26.48,2.651-10.963-3.923-20.292.083-30.2,2.452" transform="translate(-161.894 -283.792)"/><path class="d" d="M369.641,422.2c-3.344.658-5.886-1.483-8.073-3.161-5.718-4.388-11.208-4.822-16.32.237-3.245,3.211-6.344,4.186-10.269,1.963-12.756-7.221-12.745-7.241-23.521,2.158-5.463-1.5-8.076-7.183-13.333-9.315a36.311,36.311,0,0,0-11.451,10.659c-5.566-2.193-7.087-7.478-10.89-10.556-6.18-.42-7.192,6.878-12.186,8.23-3.343.664-5.752-1.585-8.092-3.144-4.993-3.325-8.773-3.927-14.6-.274a19.647,19.647,0,0,1-18.249,1.859,42.266,42.266,0,0,0-29.48-.521c-10.461,3.576-21.078-.048-31.548-1.787" transform="translate(-161.488 -342.488)"/><path class="d" d="M368.488,360.136c-6.127-4.565-12.081-4.343-18.4-.033a15.618,15.618,0,0,1-18.111-.165c-6.593-4.723-11.508-4.413-17.614.194-4.308,3.25-9.538,3.87-14.163.112-8.057-6.547-14.378-3.057-20.447,3.1a8.579,8.579,0,0,1-2.668,1.3c-13.627-9.353-13.627-9.353-26.862-.19-4.987.92-3.114-5.575-6.152-5.936s-5.773-4.941-9.136-1.149c-6.977,7.868-15.6,5.652-23.373,2.825-6.586-2.395-12.281-1.9-18.46.264-10.941,3.83-21.618,3.884-31.6-2.96" transform="translate(-161.421 -313.049)"/><path class="d" d="M333.309,602.558c-4.93-.5-6.307-6.606-11.77-7.419l-13.033,8.709c-9.326-6.717-19.236-9.835-30.295-3.274a15.959,15.959,0,0,1-14.054.737c-11.362-5.695-23.032-4.6-33.695-1.161-11.824,3.811-22.718.217-33.735-.906-6.424-.655-12.3-2.242-18.406.577-5.225,2.414-10.777,2.148-16.312,2.068" transform="translate(-161.68 -434.063)"/><path class="d" d="M328.02,510.817l-7.045-8.383c-4.188,2.885-5.861,8.458-11.188,9.687-5.359-.891-6.707-6.912-12.188-8.682-9.063,5.287-18.59,10.585-29.963,2.716-2.984-2.064-9.04-1.382-12.889.1-2.5.964-4.907,1.008-7.261,1.738-12.874,4-25.272,1.091-37.773-1.949-4.822-1.172-9.561.814-14.25,1.981a69.351,69.351,0,0,1-33.647.071" transform="translate(-161.582 -387.175)"/><path class="d" d="M355.769,601.573l-9.105-10.307c-8.444,8.762-17.167,15.991-23.679,25.281-6.029-1.9-8.14-6.958-12.168-9.693-3.538,3.554-6.916,7.542-12.893,9.34-7.295-8.013-16.229-8.823-25.721-3.2-7.46,4.418-14.624.224-21.338-1.4-7.228-1.753-13.671-2.439-20.494.422-10.845,4.548-22.032,1.772-32.545-.311-11.373-2.253-21.475-.19-31.625,3.658-3.087,1.171-4.192,1.352-4.137-2.174" transform="translate(-161.706 -432.104)"/><path class="d" d="M368.317,271.442c-6.127-4.434-12.33-1.071-18.332.143-9.591,1.94-19.087,3.171-28.559-.08-9.2-3.159-17.873-2.286-26.554,2.052-7.328,3.662-14.83.082-21.223-2.334a24.272,24.272,0,0,0-21.359,1.841c-6.354,3.6-11.124,2.55-16.509-.352-7.739-4.17-15.481-4.082-22.306,1.259-3.209,2.511-7.174,2.876-9.154,1.641-14.577-9.092-28.708-2.489-42.977.333" transform="translate(-161.342 -269.218)"/><path class="d" d="M319.978,564.818c-7.207,7.534-14.467,10.706-23.748,2.424-1.543-1.377-6.586-1.751-11.113.256-10.585,4.693-22,3.706-33.511.768-11.069-2.825-22.42,1.129-33.534,2.294-7.708.808-15.6.772-22.346-.915-12.033-3.012-22.717-.564-33.775,2.635" transform="translate(-161.65 -418.728)"/><path class="d" d="M369.756,470.931c-.793,5.943-7.58,5.253-9.587,10.023-5.264-4.016-9.449-7.972-14.734-9.743-4.19,2.88-8.665,5.413-12.99,11.153l-10.811-14.27c-4.534,5-5.985,10.342-11,12.141-4.276-1.156-4.952-5.927-8.17-8.145-6.428-.193-10.726,3.328-13.421,8.64-6.561-1.474-9.481-7.426-16.068-8.222-7.028,5.8-16.328,8.5-25.443,4.525-11.2-4.879-22.273-2.846-32.623-.206-9.924,2.532-18.5.539-27.666-1.391-8.93-1.88-17.851-2.691-25.47,4.077" transform="translate(-161.558 -369.806)"/><path class="d" d="M318.407,544.934c-3.623-3.2-6.31-7.55-12.035-9.358-8.521,8.421-18.185,10.242-28.83,2.393-2.973-2.193-6.667-1.527-10.143-.1-11.728,4.82-23.265,4.033-35.773,1.656-12.139-2.308-25.134-1.052-37.63,1.541-10.76,2.233-20.968-.78-31.1-3.972" transform="translate(-162.129 -403.937)"/><path class="d" d="M368.683,445.715c-2.451,5.37-7.744,3.952-9.979,1.835-8.892-8.421-15.79-5.105-21.7,2.324-6.976-.1-8.682-7.248-13.971-7.979-4.285,2.946-8.76,5.479-13.2,11.369l-10.505-14.87-9.412,13.44c-4.229-1.8-5.419-3.9-7-5.851-4.088-5.051-8.594-4.722-13.183-.107-3.945,3.968-7.447,4.931-13.406,1.419-10.882-6.414-23.922-2.952-34.13.7-7.192,2.571-11.736-.714-16.557-1.518-12.791-2.134-24.755-1.879-36.842,2.6-2.094.776-4.718.119-7.1.124" transform="translate(-161.526 -354.784)"/><path class="d" d="M530.752,506.631c.128-4.079-3.378-3.755-5.008-2.871-3.788,2.053-5.384,7.139-10.244,8.277-5.682-1.231-7.312-7.568-12.542-9.646-9.57,7.285-16.406,16.986-22.951,27.017a39.329,39.329,0,0,0,16.978,12.718l8.633-12.328c4.4,5.854,6.3,10.962,11.363,13.069,9.223-10.743,9.223-10.743,13.834-5.648" transform="translate(-322.517 -387.154)"/><path class="d" d="M553.533,534.725c-7.137,10.1-7.786,10.073-20.4-.979-4.234,1.209-4.758,6.115-8.139,8.175" transform="translate(-345.273 -403.012)"/><path class="d" d="M543.251,589.372c-8.258,8.4-14.273,18.945-23.279,26-6.866-1.31-8.267-7.953-13.394-9.608" transform="translate(-335.957 -431.147)"/><path class="d" d="M511.465,542.987a28.229,28.229,0,0,1-9.2-9.158" transform="translate(-333.778 -403.054)"/></g></g></svg>