<svg xmlns="http://www.w3.org/2000/svg" width="364" height="364" viewBox="0 0 364 364">
  <g id="Groupe_80" data-name="Groupe 80" transform="translate(-3289 -13216)">
    <g id="Groupe_49" data-name="Groupe 49" transform="translate(3272.27 13199)">
      <path id="Rectangle_16" data-name="Rectangle 16" d="M188.23,38h0a171.5,171.5,0,0,1,171.5,171.5h0A171.5,171.5,0,0,1,188.23,381h0A171.5,171.5,0,0,1,16.73,209.5h0A171.5,171.5,0,0,1,188.23,38Z" fill="#f700f7"/>
      <path id="Rectangle_17" data-name="Rectangle 17" d="M209.23,17h0a171.5,171.5,0,0,1,171.5,171.5h0A171.5,171.5,0,0,1,209.23,360h0A171.5,171.5,0,0,1,37.73,188.5h0A171.5,171.5,0,0,1,209.23,17Z" fill="#00f7f7"/>
    </g>
    <path id="Rectangle_19" data-name="Rectangle 19" d="M198.73,27h0a172,172,0,0,1,172,172h0a172,172,0,0,1-172,172h0a172,172,0,0,1-172-172h0a172,172,0,0,1,172-172Z" transform="translate(3272.27 13199)" fill="rgba(20,50,173,0.99)"/>
    <path id="Tracé_529" data-name="Tracé 529" d="M206.16,167.54a8.62,8.62,0,0,0-.69,6.68,7.319,7.319,0,0,0,1.18,1.81c1.31,1.95,3.49,2.37,5.73,2.51,3.63.23,6-2.49,8.88-4.28,4-2.5,9.13-4.94,13.89-2.9,4.28,1.84,5.59,7,5.41,11.35-.07,1.77-1,2.86-2.06,4.19-1.17,1.51-2.66,3.4-4.45,4.23-3.58,1.65-8.19,2.12-11.88,2.63a50.918,50.918,0,0,1-7.3.44,27.649,27.649,0,0,1-6.85-.59,60.741,60.741,0,0,1-9.74-4,24.929,24.929,0,0,1-4-2.4c-2.3-1.69-4.94-3.67-5.47-6.68-.31-1.74-.14-3.54-.3-5.3-.19-2-.18-3.56,1.12-5.21a20.8,20.8,0,0,1,4-3.35c.3-.23.66-.47,1-.75a1.34,1.34,0,0,0,.25-1.79,7.78,7.78,0,0,0-3-2.72c-2.24-1.08-5.19-1-7.61-1.12a57.526,57.526,0,0,1-7-.31c-2.44-.43-4.63-2.4-6.16-4.27a6.47,6.47,0,0,1-1.05-4.06c-.09-3-.13-6.21,1-9.07a14,14,0,0,1,2.15-3.94,39.13,39.13,0,0,1,3.22-3.22,21.67,21.67,0,0,0,4.74-6.38,1.41,1.41,0,0,0,.1-.31c.36-1.71,1-2.63,1.2-4,.31-1.81.45-3.83-.57-5.46-1.5-2.39-3.68-3.23-6.4-3.57a64.7,64.7,0,0,0-9.33-.51c-4.4.12-9.38,1.48-12.26,5a1.35,1.35,0,0,0-.28.65c-.16,1-.34,2-.49,2.93-.33,2,.43,4.28.79,6.29a8.35,8.35,0,0,1-1.91,7,6.68,6.68,0,0,1-3.13,1.84,1.76,1.76,0,0,1-2-.68,7.56,7.56,0,0,1-1.55-2,37.258,37.258,0,0,1-1.55-4.76c-.43-1.46-.86-2.89-2.61-2.86a10.47,10.47,0,0,0-3.58.2c-1.21.48-2.15.53-3.1,1.59-1.48,1.66-1.41,3.94-1.94,6a30.026,30.026,0,0,1-1.08,2.83A6.52,6.52,0,0,1,130,142a9.82,9.82,0,0,1-8,2.48c-3.53-.65-3.36-6.95-3.37-9.62a12,12,0,0,1,.66-4.81,7.92,7.92,0,0,1,3.64-3.32c1.91-1,4-1.75,5.85-2.85a24.209,24.209,0,0,0,2.45-1.74,4.82,4.82,0,0,0,2.13-3.35,4.58,4.58,0,0,0,0-2.49,6.32,6.32,0,0,0-1.52-1.62,1.54,1.54,0,0,0-1.69-.31c-1.58.82-2.7,2.15-4.45,2.74a8.51,8.51,0,0,1-5.44.13c-2.21-.66-3.72-2.44-5.68-3.54-.67-.37-1.31-.82-2-1.14-1.23-.58-2.83-.23-4.11,0-2.54.44-5.28,1.51-6.11,4.22s-.7,5.79-.67,8.57a39,39,0,0,0,.32,4.32,38.153,38.153,0,0,0,1.4,4.61,6.81,6.81,0,0,1-.18,4.79A25.83,25.83,0,0,1,100,144c-2.78,3.54-3.56,7.63-3.09,12.37a4.08,4.08,0,0,0,.35,1.25c.66,1.47,1.31,4.34,3.21,5.53,1.09.68,3.12.11,3.72.22a1.38,1.38,0,0,0,.85-.11c3.67-1.72,7.42-2,11.16-2.78a24.94,24.94,0,0,0,8.28-3.33,1.23,1.23,0,0,1,.61-.2c2.24-.16,4-.52,5.22,1.07a10.33,10.33,0,0,1,1.73,4.54c.28,1.47.24,3.63,1.69,4.46a9,9,0,0,0,4.5.69A12,12,0,0,0,142,166.4a20.86,20.86,0,0,0,3.69-1.92,10.91,10.91,0,0,0,3.66-5.8c.38-1.46-.33-3.18-.49-4.65-.11-1-.17-2-.31-3a5,5,0,0,1-.1-1.28c.24-1.52,2.06-1.65,3.28-1.85,1.53-.26,3-.55,4.34.38s1.92,2.72,2.45,4.23a17.9,17.9,0,0,1,.75,4.83c.15,2.91-.54,6.39,1.77,8.64,1.48,1.44,3.6,1.93,5.56,2.33s4.17.67,6.28.9a6.55,6.55,0,0,1,3.14.92,5.46,5.46,0,0,1,2.11,4.09c.14,1.47.18,3-.83,4.15-2,2.29-5.33,3.45-7.89,4.52a7.86,7.86,0,0,1-2.92.56c-1.45,0-3.25.53-4.91.32s-3.39-1.66-4.62-2.58a10,10,0,0,0-3.61-2.17,15.61,15.61,0,0,0-5.81-.53,47.661,47.661,0,0,0-10,2.27,7.86,7.86,0,0,0-2.59,1.46,1.14,1.14,0,0,0-.19.19,11.94,11.94,0,0,1-1.87,1.89,8.39,8.39,0,0,1-3.32,2.08c-2,.86-4.78,2.28-6.94,1.76s-3.72-2.84-5-4.6a28,28,0,0,1-2.28-3.73c-.76-1.48-1.32-3.53-2.91-4.33a20,20,0,0,0-2.51-1,13.55,13.55,0,0,0-2.82-.88c-2.15-.27-4.56,1.22-5.89,2.78a6.13,6.13,0,0,0-1.49,3.33c-.26,1.63-.94,3.17-.42,4.83a19.31,19.31,0,0,0,3.06,6.32,38.533,38.533,0,0,1,2.2,3.79c1.48,2.36,3.9,4.08,6.19,5.6,4.38,2.9,9.85,2.48,14.88,2.74a77,77,0,0,0,8.86,0c3.3-.21,6.38-1.61,9.31-3.06,2.71-1.33,5.37-2.74,8.11-4a35.87,35.87,0,0,1,11-2.76,17.26,17.26,0,0,1,5.55-.18,21.439,21.439,0,0,1,5.8,2.65c2,1.08,3.94,2.23,5.93,3.24a10.53,10.53,0,0,0,2.9.86c3.92.68,7.82-.94,11.66.55,3.23,1.25,6.39,3.5,9.26,5.41,1.63,1.09,3.21,2.24,4.91,3.23a6.16,6.16,0,0,0,1.23.55c4.57,1.55,9.17,3.73,14,4.6a18.52,18.52,0,0,0,10.95-1.44,21,21,0,0,0,7-5.88c1.06-1.29,2.22-2.42,3.36-3.64a13.65,13.65,0,0,0,3.11-4.32c.4-1.13.59-2.31,1-3.45A14.76,14.76,0,0,1,252,191.1a6.76,6.76,0,0,1,5-2.93c3.37-.43,6.81-.12,10.17-.25a14,14,0,0,1,4.38.48c2.09.59,4.88,1.09,6.9,2.41.88.58,1.7,1.31,2.51,1.95a9.5,9.5,0,0,1,1.67,1.42,13,13,0,0,1,1.86,4.37,85.188,85.188,0,0,1,2.19,9.29,4.85,4.85,0,0,1-1.05,4.31,8.15,8.15,0,0,1-4,2,11.43,11.43,0,0,1-4.61.29,6.25,6.25,0,0,1-2.25-1.56,11.46,11.46,0,0,0-9.44-3.2,8.37,8.37,0,0,0-6.95,5.4,23,23,0,0,0-1.6,8.1,11.12,11.12,0,0,0,3.36,7.69,16.35,16.35,0,0,0,7.35,3.5c3.85.78,7.49.05,11.28-.59,3.6-.62,8-1.6,11.11,1a10,10,0,0,1,2.51,4.32c1.22,3.76,2.34,8.79.2,11.94a1.3,1.3,0,0,1-.15.18c-1.09,1.15-2.05,2.38-3.05,3.59-1.36,1.64-4.25,2-6.21,1.87-3.9-.23-7.9-1.81-11.47-3.35a63,63,0,0,1-9.65-5.17,50.471,50.471,0,0,1-6.23-5.36,8.28,8.28,0,0,0-5-2.11c-2.2-.21-4.19.8-6.3,1.29s-4.4,1-6.6,1.41a10.39,10.39,0,0,1-4.33-.27,15.68,15.68,0,0,1-5.48-2c-2-1.35-2.51-4.14-2.25-6.36.21-1.86.84-4,2.51-5a18.91,18.91,0,0,1,5-2c.43-.12,1.09-.24,1.76-.42a1.35,1.35,0,0,0,.11-2.57c-1.34-.5-2.86-.73-3.91-1.12a14.781,14.781,0,0,0-3.58-.89c-5.3-.54-10.8-1.67-15.83.78a12.35,12.35,0,0,0-6.49,6.63,14.9,14.9,0,0,0-.74,2.69c-.23,1.51,1.39,2.85,2.14,4,1.19,1.93,2.06,4.58-.48,5.88-2.26,1.16-5-.2-7-1.12-3.25-1.41-6.41-2.9-8.88-5.49-1.36-1.44-4.44-5.27-2.38-7.34a14.629,14.629,0,0,1,2.9-1.55c1.5-.83,2.13-2.08,2.86-3.61,1.06-2.19.68-4.24.2-6.56a11.52,11.52,0,0,0-1.17-3.6A11.759,11.759,0,0,0,190,211a8.52,8.52,0,0,0-5.36-2.3,7.74,7.74,0,0,0-5.31,2.64,8,8,0,0,0-2.53,5.2,8.8,8.8,0,0,0,.41,1.78c.26,1.19.61,2.37.79,3.58.25,1.57-.54,2.73-.72,4.26s-.56,3-.79,4.58a9.651,9.651,0,0,1-.46,2.67c-.79,1.73-3.12,2.58-4.08,3.42a4.32,4.32,0,0,1-1.09.75c-2.26,1-4.58,1.77-6.85,2.71-1.3.53-2.19.86-2.64,2.3a5.83,5.83,0,0,0,.19,3.71c.5,1.54,1.56,2.25,2.83,3.15,2.71,1.9,6.13,4.07,6.19,7.74,0,1.57-1.11,2.47-2.18,3.46-2.23,2.08-5.61,2.08-8.46,2.29a13.17,13.17,0,0,1-2.94-.11,31.092,31.092,0,0,1-8.41-2.11c-1.82-.86-4.11-2-5.15-3.8-.76-1.31-2-3.31-1.78-4.89a10.94,10.94,0,0,1,1.61-3.9c1.17-1.77,3.5-2.58,4.57-4.4.8-1.34-1.07-1.92-2-2.52-2.37-1.49-5-2.38-7.39-3.82a12,12,0,0,1-4.44-4.43c-.57-1.06-1.18-2.67-.6-3.78.73-1.38,3-1.82,4.38-2.1A7.59,7.59,0,0,1,142,227c1.74.56,2.94,2.07,4.73,2.57,2,.54,3.61.71,5.41-.55,3.51-2.45,5.57-6,7.83-9.51.69-1.07,1.37-2.15,2-3.27.4-.76,1.15-1.72,1.07-2.61l.06-.46a2.55,2.55,0,0,0-1.61-1.3,12.88,12.88,0,0,0-5.23-1.14c-5.08-.15-9.76,3.18-13.89,5.71a34.35,34.35,0,0,1-6,3.33c-1.43.52-3.27,1.25-4.79,1.06a16,16,0,0,1-4-1.26,30.165,30.165,0,0,1-3.31-1.54c-1.26-.71-2.39-1.63-3.63-2.38a16.9,16.9,0,0,0-4.5-1.93c-3.17-.71-6.46,3.14-6.68,6A5.8,5.8,0,0,0,112,224.8c1.81,1.44,4.35,1.42,6.44,2.13a5.23,5.23,0,0,1,2.09,1.33,11,11,0,0,1,1.52,3.19c.71,1.91,1,3.93-.45,5.56a10.57,10.57,0,0,1-8.67,3.17,45.639,45.639,0,0,1-8.09-1.7c-.53-.13-.73-.29-1.2.14a6.39,6.39,0,0,0-1.41,2.64,16.13,16.13,0,0,0-.7,5.27,7.6,7.6,0,0,0,2.36,4.71,8.67,8.67,0,0,0,3.56,1.58,36.08,36.08,0,0,0,6.37.91,33.179,33.179,0,0,0,6,0,13,13,0,0,1,2-.18,4.37,4.37,0,0,1,2.35,1c.6.41,2.81,1.83,2.54,2.88-.11.45-1,.68-1.22.76-.78.26-1.52.54-2.28.87-1.3.56-2.55,1.21-3.85,1.78-.63.29-1.32.53-2,.85" transform="translate(3272.27 13199)" fill="none" stroke="#fff" stroke-linecap="round" stroke-linejoin="round" stroke-width="2"/>
    <path id="Tracé_530" data-name="Tracé 530" d="M301.18,147.19a8,8,0,0,1-2.33-.81,7.19,7.19,0,0,1-1.36-1.78,5.15,5.15,0,0,1-.9-2.06c-.12-.66-.33-1.22-.51-1.86a12.261,12.261,0,0,0-.52-1.55,9.21,9.21,0,0,1-.58-1.75,17.219,17.219,0,0,1,0-3,7.13,7.13,0,0,1,0-1.73,26.169,26.169,0,0,1,1.1-2.49,12.28,12.28,0,0,0,.41-4.44c0-1.11,0-2.24,0-3.35-.07-2-1.64-1.88-3.23-2.63a2.92,2.92,0,0,0-1.11-.3,25.129,25.129,0,0,1-3.22-.63,17.42,17.42,0,0,0-3.15,0,11.25,11.25,0,0,0-3,0c-.65.19-1.44,1.27-1.83,1.77a6.72,6.72,0,0,0-1.09,2.13,8.491,8.491,0,0,0-.45,2.82,19.249,19.249,0,0,0,0,3.56c.24,1.23,1.32,2.49,1.83,3.63.81,1.77,1.59,3.92-.6,5.78l-.19.15a18.25,18.25,0,0,1-3.31,1.26,1.38,1.38,0,0,1-.57.05c-1.45-.14-2.88.3-4.1-.54a8.45,8.45,0,0,1-3-2.58,17.39,17.39,0,0,1-1.81-5.32,5.818,5.818,0,0,1-.13-1.38v-5.23a1,1,0,0,1,.06-.34,18.48,18.48,0,0,0,.46-4.28,44.284,44.284,0,0,1,.08-4.61,1.24,1.24,0,0,0-.53-1.13c-1-.71-1.12-3.06-2.41-3.92-1.54-1-3.1-.47-5-.69h-1.15c-1.68.2-3-.29-4.15.88-.47.47-.82,1.07-1.28,1.57a7.21,7.21,0,0,0-1.3,2c-.28.72-.34,1.52-.56,2.25-.35,1.2-1,2.22-1.41,3.37a24,24,0,0,0-1.13,10.66c.11,1,.44,2,.48,3s0,2.13,0,3.17a1.36,1.36,0,0,0,.08.39c.32,1,.36,2.07.63,3.09a6.42,6.42,0,0,1,.34,1.69,7.659,7.659,0,0,0,.11,1.72,4,4,0,0,0,2.51,2.66c1.16.47,2.4.71,3.54,1.2a10.63,10.63,0,0,1,2.4,1.41,19.916,19.916,0,0,1,1.88,2c1.07,1.06,2.76.81,4.14.81h6.55a18.643,18.643,0,0,0,3.57-.37,10.433,10.433,0,0,1,1.25-.17,4.311,4.311,0,0,0,.95,0,9.8,9.8,0,0,1,1.29-.28,8.19,8.19,0,0,1,3.85.72c1,.38,2,.75,3,1.22a20.481,20.481,0,0,1,3.71,1.94c1.21.91,1.05,2.3,1.52,3.57a3.6,3.6,0,0,1-.32,3.41,4.92,4.92,0,0,1-3.71,2.57,10.59,10.59,0,0,1-2.3.25,5,5,0,0,0-1.91.52c-1.28.54-2.79.69-3.06,2.33a7.632,7.632,0,0,0,0,1.17,3.89,3.89,0,0,0,.24,2.18,7.758,7.758,0,0,1,1,1.49,5.1,5.1,0,0,1,.32,2.12c-.05,1.73-1.51,2.54-3.09,2.92-2.84.69-6,.09-8.77-.59a66.55,66.55,0,0,1-9.39-3.19,11.41,11.41,0,0,1-5.64-4.58c-1.77-2.93-2.05-6.84-4.44-9.39a8.94,8.94,0,0,0-4.42-2.82,31,31,0,0,0-6.86-.93,7.51,7.51,0,0,1-3.38-.75,8.85,8.85,0,0,1-3.84-2.48c-1.85-2.41-2.19-4.94-2.76-7.83a26,26,0,0,1-.33-4.67c0-2.22,1.3-3.5,3.35-4.15,1.58-.5,3.3-.59,4.72-1.51a6.69,6.69,0,0,0,1.93-2.32,22.763,22.763,0,0,0,1.36-2.47,16.931,16.931,0,0,0,.91-3.2c.37-1.64.84-3.28,1.1-4.94a16.07,16.07,0,0,0,.1-4.27,4.27,4.27,0,0,0-.39-1.92c-.29-.52-.68-1-1-1.55a11.35,11.35,0,0,0-3.75-3.64c-3.86-2.36-10.18-3.74-13.78-.12-1.5,1.5-1.77,3.58-1.78,5.58a2.44,2.44,0,0,0,.24,1.55c.46.66,1.26.93,1.68,1.69a6.25,6.25,0,0,1,.42,3.21,3,3,0,0,1-.83,2,14.73,14.73,0,0,1-2.26,2.54,5.92,5.92,0,0,1-3,1.34,22.39,22.39,0,0,1-4.25.29,20.65,20.65,0,0,1-3-.54,4.16,4.16,0,0,0-1.4-.24,7.82,7.82,0,0,0-2.25,1.19,18.63,18.63,0,0,0-3.4,2.59c-1.56,1.51-1.32,3.56-1.82,5.56s-1.22,4-1.76,6a12.415,12.415,0,0,0-.26,1.46A14,14,0,0,0,199,147c.05.83,1.08,1.22,1.77,1.51,1.5.64,3.39.35,5,.56a5.1,5.1,0,0,1,3.1,1.26,28.142,28.142,0,0,1,2.12,3.85c1.22,2.13,3.2,4,4.11,6.27a3.89,3.89,0,0,1,.09,2.5,4,4,0,0,1-2.62,2.48c-1.71.47-2.75-7.06-7.06,3.84" transform="translate(3272.27 13199)" fill="none" stroke="#fff" stroke-linecap="round" stroke-linejoin="round" stroke-width="2"/>
    <path id="Tracé_531" data-name="Tracé 531" d="M117.18,261.51a5,5,0,0,1-1.13.75l-.69.08a5.231,5.231,0,0,0-1,.66,13.138,13.138,0,0,1-2.1,1c-1.1.43-2.47.8-3.06,1.87a2.4,2.4,0,0,0-.53,1.54,13.543,13.543,0,0,0,.27,1.57,3.57,3.57,0,0,0,1.86,2.58,4.79,4.79,0,0,0,3,.51,4.41,4.41,0,0,1,2.4.61c1,.68.77,2.44.71,3.51-.07,1.4-1.34,2-2.53,2.34-1,.26-2,.59-2.9.78a12.369,12.369,0,0,1-2.58,0,4.81,4.81,0,0,1-3-1.23c-.41-.33-.73-.75-1.13-1.09-.57-.49-1.28-.63-1.71-1.29a5.5,5.5,0,0,1-1-2,1.49,1.49,0,0,0-.24-.58,3.77,3.77,0,0,0-3.71-1.77c-.85,0-1.74-.18-2.38.51" transform="translate(3272.27 13199)" fill="none" stroke="#fff" stroke-linecap="round" stroke-linejoin="round" stroke-width="2"/>
    <path id="Tracé_532" data-name="Tracé 532" d="M95.5,293.51a8.891,8.891,0,0,0,2.15,1.14,1.19,1.19,0,0,0,.64.15h7.78a1.31,1.31,0,0,0,.44-.07c1.17-.38,2.29-.88,3.42-1.36a39,39,0,0,1,7-1.86,37.511,37.511,0,0,0,5.2-1.36c1.09-.39,2.16-.86,3.25-1.21a16.07,16.07,0,0,0,5.88-3.3c1.34-1.28,2.94-2.26,3.52-4.13a7,7,0,0,0,.49-2.26c0-.5,0-1,0-1.51a1.39,1.39,0,0,0-.3-.78,6.49,6.49,0,0,1-1.66-3.6,1.629,1.629,0,0,0-.15-.52c-.79-1.48-1.24-2.2-1.25-3.57,0-1.06.55-1.37,1.49-1.84a6.55,6.55,0,0,1,2.9-.24h3a5.059,5.059,0,0,1,1.86.18,4.73,4.73,0,0,1,2,1.89c.27.36.66.65.91,1a6,6,0,0,1,.51,1.25c.33.82.65,1.62,1,2.42.22.46.24,1,.5,1.46a9.2,9.2,0,0,0,.79,1,11.691,11.691,0,0,0,2,2.24c1.84,1.66,4.08,1.92,6.46,2.55a20.83,20.83,0,0,0,5.44.71c3.6,0,7.21,0,10.81-.09a1.148,1.148,0,0,0,.26,0,18.18,18.18,0,0,0,4.68-1.68,7.83,7.83,0,0,0,2.85-3.63,22,22,0,0,0,1.81-8.28,22.45,22.45,0,0,0-.46-6,37.339,37.339,0,0,1-.94-4.25,1.3,1.3,0,0,1,0-.34c.3-1.86-.56-4.25.94-5.79a12.54,12.54,0,0,1,6.37-4,13.208,13.208,0,0,1,2.52-.06,4.45,4.45,0,0,1,2.13.4,8.281,8.281,0,0,1,2.68,2.59,7.32,7.32,0,0,1,1.17,4.09,6.82,6.82,0,0,1,0,2.43c-.39.8-1.79,1.16-2.51,1.53-1.91,1-1.6,2.9-1.6,4.76s-.7,3.69.25,5.44c1.27,2.34,5.26.91,7.23.44,1.56-.38,4.54-1,4.9,1.2a20.131,20.131,0,0,1,0,2.8v3.37c-.08,1.32.12,2.78,0,4.14a7.7,7.7,0,0,1-.4,1.4c-.12.43-.09.9-.42,1.24a4.85,4.85,0,0,1-2.64.83,23.415,23.415,0,0,0-2.86.49c-3.83.75-7.62,1.46-11.35,2.49a8.21,8.21,0,0,0-3,2,11.459,11.459,0,0,1-3.39,1.87c-1.19.44-2.29,1-3.51,1.35-.77.21-1.54.26-2.29.4a13.31,13.31,0,0,1-2.09.19h-4.46c-1.11,0-2.18-.27-3.31-.26H155.8a3,3,0,0,0-2.43.81,16.892,16.892,0,0,0-2.64,2.57c-.81,1.11-.52,2.78-.52,4.09" transform="translate(3272.27 13199)" fill="none" stroke="#fff" stroke-linecap="round" stroke-linejoin="round" stroke-width="2"/>
    <path id="Tracé_533" data-name="Tracé 533" d="M302,266.93c-.51.55-1.66.15-2.33.49a7.18,7.18,0,0,0-2,1.45,4.09,4.09,0,0,0-.88,2.45,12.55,12.55,0,0,0,1,3.12c.34,1,1,1.82,1.24,2.81a10.622,10.622,0,0,1,.06,2.46c0,.85,0,1.72,0,2.57a10.2,10.2,0,0,1-1,3.34c-.17.42-.42.8-.58,1.22a8.2,8.2,0,0,1-.47,1.25c-.31.55-.77,1-1.1,1.54a8.21,8.21,0,0,1-5.73,3.11c-.95,0-1.79.23-2.7.26s-2,0-3,0a7.37,7.37,0,0,1-1.15,0,8.06,8.06,0,0,1-1.3-.53A27.229,27.229,0,0,1,279,291a3.31,3.31,0,0,1-1.22-1.13c-.18-.28-.23-.62-.44-.89a6.468,6.468,0,0,1-.61-.67c-.61-1.05-.56-2.64-.76-3.8a21.729,21.729,0,0,1-.06-3.7,14.3,14.3,0,0,1,.05-2.62,6,6,0,0,1,2.73-3.56c1.32-.93,2.82-1.49,2.92-3.35a4.941,4.941,0,0,0,0-2,7.23,7.23,0,0,0-2-1.6,6,6,0,0,0-2.07-1,16.5,16.5,0,0,0-2.11,0c-.92,0-1.86-.06-2.78,0A10.675,10.675,0,0,0,271,267a9.74,9.74,0,0,0-2.24,1.21,8.92,8.92,0,0,0-4.64,6.2c-.22,1.18.18,2.46-.05,3.63a12.089,12.089,0,0,1-1,2.88,5,5,0,0,1-1.31,1.66,3.6,3.6,0,0,1-2.33.4c-1.34,0-2.84.33-3.91-.57-.59-.5-1.43-.8-1.76-1.48s-.58-1.19-.83-1.82a9.351,9.351,0,0,1-.72-1.81,9.137,9.137,0,0,1,0-1.48,12.891,12.891,0,0,1,.19-3.62,16.5,16.5,0,0,1,.56-2.12c.16-.35.4-.68.56-1a6.619,6.619,0,0,0,.29-1.5c.16-.65.4-1.24.53-1.91s.12-1.36.25-2a12.45,12.45,0,0,0,.21-3.66,8.3,8.3,0,0,0-2.07-3.88,6.22,6.22,0,0,0-4.15-2.2,30.789,30.789,0,0,0-4.9-.31,5.661,5.661,0,0,0-1.79,0,5.479,5.479,0,0,0-1.56,1.23c-1.89,2.2-.3,6.7.56,8.19a5.641,5.641,0,0,1,.56,1.37c.45,1.73,1.28,2.46,1.22,4.07a6,6,0,0,1-1.71,3.29c-1.09,1.39-2.17,2.75-3.33,4.1s-2.72,2-3.58,3.48c-.51.89-1.31,1.7-1.75,2.61a11.12,11.12,0,0,0-.49,3.76c-.05,1.91-.44,4.64,1.26,6s4.51.42,6.2,0a12.24,12.24,0,0,1,3.65-.51c1.82.13,1.54,2.26,1.55,3.6a11.52,11.52,0,0,1-.55,3.35,4.72,4.72,0,0,1-1.25,1.63,2.92,2.92,0,0,1-2.34,1.24h-4.64a12.268,12.268,0,0,0-2.3.29,3.69,3.69,0,0,1-.94,0c-1.22-.11-2.48,0-3.73,0a19.27,19.27,0,0,1-4.08-1c-.89-.26-1.81-.45-2.68-.76a10.46,10.46,0,0,1-3.83-2.61c-2.18-2-3.81-4.82-2.77-7.83.26-.76.67-1.4,1-2.13.47-1.12.83-2.28,1.29-3.4.7-1.66,1-3.32,2.3-4.69a10.4,10.4,0,0,1,2.36-1.75,5.56,5.56,0,0,0,2-2.17c1.47-2.35,3.2-4.57,4.23-7.18.55-1.4.41-2.7.94-4.31a1.12,1.12,0,0,0,.07-.4v-4.07a2.918,2.918,0,0,0,0-.51c-.77-4.25-3.07-7.49-6.68-8.07-2-.33-4.14-.37-5.66,1.31a12.93,12.93,0,0,0-2.35,4.15,13.449,13.449,0,0,0-1,3.69,5.1,5.1,0,0,0,1,3.51c.57.84,1.56,1.05,1.79,2.14a3.82,3.82,0,0,1-.15,2,3.13,3.13,0,0,0-.32,1.32,3.26,3.26,0,0,1-.6,1.57c-.6,1.13-1.16,2.22-1.66,3.4a30.617,30.617,0,0,0-1.36,3,13.2,13.2,0,0,1-1,2.06c-1.16,2.33-1.63,4.46-2.91,8.24a1.43,1.43,0,0,0,.17,1.36c1.05,1.27,0,4.21-1.49,5.47a1.381,1.381,0,0,1-.35.22,32.8,32.8,0,0,1-4.22,1.55,14.912,14.912,0,0,0-2.15,1c-.76.35-1.64.42-2.42.76a11.141,11.141,0,0,0-2.67,1.34,3.88,3.88,0,0,0-1,2.28" transform="translate(3272.27 13199)" fill="none" stroke="#fff" stroke-linecap="round" stroke-linejoin="round" stroke-width="2"/>
    <path id="Tracé_534" data-name="Tracé 534" d="M112,96.61v3.63c0,.87-.27,2.21.5,2.85s2,.74,2.85,1.19a7,7,0,0,0,1.74.79,4.834,4.834,0,0,1,.84.11c.46.11.83.41,1.3.48a30.771,30.771,0,0,0,4.4,0c1.65,0,2.47-1.13,3.85-1.82a3.52,3.52,0,0,0,1.69-1.29c.41-.6.6-1.06,1.34-1.24a8.45,8.45,0,0,1,3.17,0,7.22,7.22,0,0,1,3.19,1.84,6.78,6.78,0,0,1,1.91,4.25,22.9,22.9,0,0,0,.11,2.36,4,4,0,0,0,.75,1.56,3.72,3.72,0,0,0,2.31.78,6.29,6.29,0,0,0,2.95-.54,18.811,18.811,0,0,0,2-1.28,6.32,6.32,0,0,0,2-2.59,6,6,0,0,1,1.93-1.62c.53-.34,1.13-.55,1.65-.95a4.98,4.98,0,0,1,3.1-1.56h4.19a3.79,3.79,0,0,1,1.84.45,16.973,16.973,0,0,1,2.12,1,5.07,5.07,0,0,0,1.91.4,12,12,0,0,0,1.91.26h2.27c1.32,0,2.54.26,3.87.26h5.89a17.4,17.4,0,0,1,8,1.81,9.851,9.851,0,0,0,2.26,1c.55.11,1.12-.07,1.63.18s.45.85.69,1.43a3.56,3.56,0,0,1,.33,1.72,17.4,17.4,0,0,1-.25,2.91,8.459,8.459,0,0,0-.27,1.56q0,.87,0,1.74c0,1.16,0,2.81,1.44,3.14,2.07.47,4.59-.85,6.32-1.8,1.07-.58,2.32-.77,3.27-1.6a12,12,0,0,1,4.51-2.45c1.66-.51,3.7-.69,4.59-2.38a7,7,0,0,0,.51-3.63,4.52,4.52,0,0,0-.38-1.56c-.26-.82-.36-1.7-.7-2.5s-.64-1.39-.9-2.12a3.86,3.86,0,0,0-2.61-2.28,2.69,2.69,0,0,0-3.67,1.48c-.81,1.54-1.05,3.1-3.15,3.12a5.28,5.28,0,0,1-2.52-.78,4.57,4.57,0,0,1-2.2-2.2,6,6,0,0,1,.14-5.8" transform="translate(3272.27 13199)" fill="none" stroke="#fff" stroke-linecap="round" stroke-linejoin="round" stroke-width="2"/>
  </g>
</svg>
