<svg xmlns="http://www.w3.org/2000/svg" width="364" height="364" viewBox="0 0 364 364"><defs><style>.a{fill:#f700f7;}.b{fill:#00f7f7;}.c{fill:#fff700;}.d{fill:none;stroke:#000;stroke-linecap:round;stroke-linejoin:round;stroke-width:2px;}</style></defs><g transform="translate(-118 -298)"><rect class="a" width="343" height="343" rx="171.5" transform="translate(118 319)"/><rect class="b" width="343" height="343" rx="171.5" transform="translate(139 298)"/><rect class="c" width="344" height="344" rx="172" transform="translate(128 308)"/><g transform="translate(195 379)"><path class="d" d="M827.767,796.33c.255,4.563-.4,8.382-4.667,11.5-8.751,6.4-17.6,11.753-28.5,14.378-17.615,4.242-35.212,9.461-49.269,21.771-2.854,2.5-5.271.892-7.755,1.717" transform="translate(-719.535 -638.728)"/><path class="d" d="M1030.7,535.108c-18.082-2.919-35.361-10.282-54.118-9.545-7.9.31-15.822.01-23.733.074-2.632.022-6.223-1.129-5.7,3.775" transform="translate(-824.676 -502.829)"/><path class="d" d="M788.828,809.67c-8.294.236-14.037,6.111-20.858,9.552-11.5,5.8-22.815,11.968-34.208,17.981" transform="translate(-717.622 -645.422)"/><path class="d" d="M985.138,771.556c-.317.316-.659.931-.946.907-15.554-1.339-29.254,3.357-41.895,12.218a4.769,4.769,0,0,1-6.529-1.731" transform="translate(-818.991 -626.297)"/><path class="d" d="M1061.352,668.169c-14.561.346-25.453,8.433-35.586,17.194-10.2-2.055-7.514-16.066-17.581-17.669" transform="translate(-855.331 -574.177)"/><path class="d" d="M960.543,754.4c10.76,1.266,21.6,2.093,32.252,3.954,6.958,1.215,13.4,5.55,20.914,3.167" transform="translate(-831.423 -617.689)"/><path class="d" d="M886,526.484c-8.032-2.709-15.961.157-23.7,1.224-12.8,1.765-26.043,3.029-37.065,11.118" transform="translate(-763.525 -502.748)"/><path class="d" d="M862.125,661.815c-10.51-8.6-24.112-11.294-36.023-10.536-13.495.859-19.985-6.861-28.553-13.178-7.087-5.225-8.562-13.138-10.428-20.908" transform="translate(-744.399 -548.835)"/><path class="d" d="M996.194,576.209c-7.8,6.132-17.178,7.946-26.6,9.407-3.357.521-7.829.96-9.233-2.852-1.087-2.948-1.248-7.108,2.6-9.4" transform="translate(-830.997 -526.84)"/><path class="d" d="M914.736,743.707c7.293-1.992,11.235-6.627,12.515-14.212.563-3.336,3-6.357,4.832-10.022-2.691-4.85-6.387-8.558-12.461-9.09-9.12,7.493-6.356,18.49-7.271,27.673-1.479,14.869-.71,15.4-16.6,13.246" transform="translate(-798.908 -595.599)"/><path class="d" d="M895.527,600.041c-9.65,5.085-20.37,7.322-30.237,3.433-11.164-4.4-20.7-3.237-30.525,2.264" transform="translate(-768.307 -540.228)"/><path class="d" d="M838.39,735.347c.316,3.481-.1,7.235,1.074,10.4,5.625,15.131.857,24.62-14.339,28.628-5.744,1.515-9.214.861-9.52-5.8-.278-6.055-3.061-9.182-9.486-9.62-6.359-.434-12.45-3.225-19-2.722" transform="translate(-744.399 -608.126)"/><path class="d" d="M963.769,552.4c-1.843,5.522.879,10.694,5.645,10.058,12.784-1.7,24.812,1.294,37.078,3.233" transform="translate(-832.751 -516.321)"/><path class="d" d="M876.643,497.132c-4.92,5.316-12.915,8.24-13.292,17.089" transform="translate(-782.651 -488.588)"/><path class="d" d="M922.3,579.5c-6.329-3.582-12.625.517-19,.3-5.648-.188-11.383,2.227-17.079,3.493" transform="translate(-794.127 -529.181)"/><path class="d" d="M863.351,699.139c4.339,3.981,9.088,7.141,15.19,7.595" transform="translate(-782.651 -589.957)"/><path class="d" d="M1073.792,643.7c-11.067-.042-22.8-1.929-31.166,7.738-2.517,2.906-5.791.257-7.76,2.706" transform="translate(-868.719 -562.047)"/><path class="d" d="M1028.185,640.061c-.763,5.728,4.125,12.4-2.848,17.089" transform="translate(-863.938 -560.311)"/><path class="d" d="M987.223,529.53q.949,9.969,1.9,19.938" transform="translate(-844.812 -504.845)"/><path class="d" d="M1078.7,607.664c2.253,5.911.315,12.043.95,18.039" transform="translate(-890.714 -544.054)"/><path class="d" d="M701.365,803.953c1.821,10.213-.7,21.376,6.646,30.381" transform="translate(-701.365 -642.554)"/><path class="d" d="M1012,479.981l.393,7.945,11,2.5" transform="translate(-857.243 -479.981)"/><path class="d" d="M756.577,603.853a48.938,48.938,0,0,0,1.9,16.14" transform="translate(-729.044 -542.141)"/></g></g></svg>