<svg xmlns="http://www.w3.org/2000/svg" width="364" height="364" viewBox="0 0 364 364">
  <g id="Groupe_81" data-name="Groupe 81" transform="translate(-3663 -13216)">
    <g id="Groupe_49" data-name="Groupe 49" transform="translate(3643.3 13199)">
      <path id="Rectangle_16" data-name="Rectangle 16" d="M191.2,38h0A171.5,171.5,0,0,1,362.7,209.5h0A171.5,171.5,0,0,1,191.2,381h0A171.508,171.508,0,0,1,19.7,209.48v-.01A171.494,171.494,0,0,1,191.17,38Z" fill="#f700f7"/>
      <path id="Rectangle_17" data-name="Rectangle 17" d="M212.2,17h0A171.5,171.5,0,0,1,383.7,188.5h0A171.5,171.5,0,0,1,212.2,360h0A171.508,171.508,0,0,1,40.7,188.48v-.01A171.494,171.494,0,0,1,212.17,17Z" fill="#00f7f7"/>
    </g>
    <path id="Rectangle_19" data-name="Rectangle 19" d="M201.7,27h0a172,172,0,0,1,172,172h0a172,172,0,0,1-172,172h0a172,172,0,0,1-172-172h0a172,172,0,0,1,172-172Z" transform="translate(3643.3 13199)" fill="#00ff9f"/>
    <path id="Tracé_535" data-name="Tracé 535" d="M177.52,285.09c64,32.55-26.91-39-14.42-46.58,11.24-6.86-3.78,43.1-14.23,46.58s-49.16-15.87-37.16-47.61,15.49.38,10.45,8.51-19,5-17.42-12.38,12-22.84,22.46-25.94,13.54-11.6,4.64-17.22,10.84,24.19,0,24.19-15.1-23.23-20.13-15.1-22.84,48,0,86,10.07-17.06,5-8.53-3.09,34.75-9.67,22,5.42-23.18,1.93-30.15-14.6-53.42-8.65-70.06,11.75-37.94,7.49-44.91-8.13,1.55-5.81,8.52,4.26,17.42,12.39,14.32c5.93-2.26,9.6-12.76,11.14-18.27a16.74,16.74,0,0,1,5.58-8.63c3.94-3.12,9.3-4.21,11.83,9.35,4.26,22.84-7.74,7.36-16.26,19.36s-5.42,34.06,0,44.13,23.61,31.92,17,36.28-7-26.6-.38-21.18,13.16,21.18,5.8,30.58C144.6,274.14,164.07,278.25,177.52,285.09Z" transform="translate(3643.3 13199)" fill="none" stroke="#000" stroke-linecap="round" stroke-linejoin="round" stroke-width="2"/>
    <path id="Tracé_536" data-name="Tracé 536" d="M119,112.81a2.81,2.81,0,0,0,4.86.4c5.63-8.09,23.71-27.62,59.21-11.48,35.21,16,46.19,9.34,59.9,5.33a51,51,0,0,1,11.09-2.12c20.86-1.43,61.68,1.67,47.92,14.54s-15.33-27.27-25.09-22.61-14.84-12-10.85,14.18,16,30.17,9.77,17.75-6.22-20-14.65-13.56-12.86,20.66-21.74,10.89,27.07-4,12.87-14.19-13.76-15.53-20.85-10.21,9,4.84-10.36,13.51-11.39,13.11-22,4.24-14.65-25.29-26.63-11.09,9.76,36.38,7.1,24.4-12.3-32.39-17.68-22.18,5.55,26.17.75,10.2,7.62-23.52-9.25-17.3-28.84-4.44-23.51,16-2.22,30.37-8,16.74-11.68,2.77-10.75-9.17,6.36-34.91,10.35-24.26C124.78,111.62,117.68,109.64,119,112.81Z" transform="translate(3643.3 13199)" fill="none" stroke="#000" stroke-linecap="round" stroke-linejoin="round" stroke-width="2"/>
    <path id="Tracé_537" data-name="Tracé 537" d="M290.09,293.17a5.71,5.71,0,0,0,7.85-4.45c2.5-15.94,8.24-61.72-6.74-70-18.19-10.07-53.42,9.68-72.38-14.32s-2.33-57.14-27.1-55.48-49.16-2.2-33.29,15.6,52.26-10.83,52.26-10.83,27.09-12,25.93,7S215,143.62,213,142.46s-27.87-9.29-20.9,13.94,37.93,33.68,43.74,31.16,30.58,7.16,26.71,37,18.19-34,25.16-24-22.86-20.16-15.48-2.49,27.48,29.56,22.06,38.46,10.84,36.78,9.29,41.42-25.16-11.61-24.77,1.55,10.06-1.16,10.84,4.26C290.24,287.82,286.24,291.44,290.09,293.17Z" transform="translate(3643.3 13199)" fill="none" stroke="#000" stroke-linecap="round" stroke-linejoin="round" stroke-width="2"/>
    <path id="Tracé_538" data-name="Tracé 538" d="M214,293.92c-37.22-7,42.84-36.14,31.61-47.79s-37,17.06-51.58,0,12.48-42.73-5-56.72-39.1,33.43-28.7,33.85-7.56-17.06-14.81-25.38,24.37,11.23,28.95,7.91-20.8-23.71-4.16-27.66-22.88,8.15-7.49,14,39.1-6,38.27,8.61-25.25,2.18-14.5,13,22.74,14.14,22.57,7.49-20.84-15.39-22.57-2.92,9.09,19.56,17.41,21.22,1.94-19.55-7.56-7.49,1,25.38-4.45,25.79-.88-16.64,11.18-14.14.42,9.57,9.15,13.31,4.58-12.48,10.4-17.47,13.73-22.46,22.88-9.57-28.7,9.15-26.62,1.67,10.4.83,17.47,8.73,22.88,19.14,19.55,27-14.14.42-16.64,5.41,0,21.63,7.07,16.64-21.56-11.78-25-3.75,7.08,14.56,11.24,11.65S218.12,294.7,214,293.92Z" transform="translate(3643.3 13199)" fill="none" stroke="#000" stroke-linecap="round" stroke-linejoin="round" stroke-width="2"/>
  </g>
</svg>
