<svg xmlns="http://www.w3.org/2000/svg" width="199.331" height="281.096" viewBox="0 0 199.331 281.096"><defs><style>.a{fill:#3f3d56;}.b{fill:#fff;}.c{fill:#6c63ff;}.d{fill:#e6e6e6;}</style></defs><g transform="translate(0 0)"><path class="a" d="M223.811,143.094a19.094,19.094,0,0,0-19.073,19.073V381.894a19.094,19.094,0,0,0,19.073,19.072H385a19.094,19.094,0,0,0,19.072-19.072V162.166A19.094,19.094,0,0,0,385,143.094Z" transform="translate(-204.739 -119.871)"/><rect class="b" width="179.495" height="230.779" transform="translate(9.918 36.77)"/><rect class="c" width="132.565" height="8.709" transform="translate(33.383 78.135)"/><rect class="c" width="132.565" height="8.709" transform="translate(33.383 101.359)"/><rect class="c" width="132.565" height="8.709" transform="translate(33.383 124.582)"/><rect class="c" width="132.565" height="8.709" transform="translate(33.383 147.805)"/><rect class="c" width="132.565" height="8.709" transform="translate(33.383 171.028)"/><rect class="c" width="132.565" height="8.709" transform="translate(33.383 194.251)"/><rect class="c" width="132.565" height="8.709" transform="translate(33.383 217.474)"/><rect class="d" width="133.634" height="171.814" transform="translate(36.363 46.192) rotate(-10.37)"/><rect class="c" width="98.694" height="6.484" transform="translate(59.091 73.342) rotate(-10.37)"/><rect class="c" width="98.694" height="6.484" transform="translate(62.203 90.348) rotate(-10.37)"/><rect class="c" width="98.694" height="6.484" transform="translate(65.315 107.355) rotate(-10.37)"/><rect class="c" width="98.694" height="6.484" transform="translate(68.428 124.363) rotate(-10.37)"/><rect class="c" width="98.694" height="6.484" transform="translate(71.54 141.369) rotate(-10.37)"/><rect class="c" width="98.694" height="6.484" transform="translate(74.652 158.377) rotate(-10.37)"/><rect class="c" width="98.694" height="6.484" transform="translate(77.765 175.383) rotate(-10.37)"/><path class="a" d="M424.7,96.849H408.882V93.611a8.857,8.857,0,0,0-8.857-8.857H382.9a8.857,8.857,0,0,0-8.857,8.858v3.238H358.231a8.857,8.857,0,0,0-8.857,8.857v24.526h84.183V105.706a8.857,8.857,0,0,0-8.857-8.857Z" transform="translate(-291.799 -84.754)"/><path class="a" d="M439.25,700.094c2.615-1.79,5.3-3.651,8.409-4.465,2.833-.742,6.087-.546,8.328,1.529a5.1,5.1,0,0,1,1.232,6.45,4.1,4.1,0,0,1-2.716,1.976,3.272,3.272,0,0,1-2.941-1.149,3,3,0,0,1-.75-2.947,3.862,3.862,0,0,1,2.474-2.1,18.317,18.317,0,0,1,3.69-.762l5.132-.7,21.005-2.876,23.392-3.2a.731.731,0,0,0,.507-.893.744.744,0,0,0-.893-.507l-46.546,6.372c-1.683.23-3.391.4-5.057.734a8.506,8.506,0,0,0-3.631,1.508,4.334,4.334,0,0,0-.019,6.735,4.8,4.8,0,0,0,6.912-.517,6.267,6.267,0,0,0,.475-7.679,9.31,9.31,0,0,0-9.08-3.727c-4.007.492-7.4,2.744-10.658,4.971C437.751,699.365,438.476,700.623,439.25,700.094Z" transform="translate(-345.262 -449.327)"/></g></svg>