<svg xmlns="http://www.w3.org/2000/svg" width="517.179" height="233.185" viewBox="0 0 517.179 233.185"><defs><style>.a{fill:#00ff9f;opacity:0.99;}</style></defs><path class="a" d="M303.27,0c-8.84.066-11.09,17.37-10.88,26.281-4.818,7.852,4.342,41.106-9.562,29.781-33.376-19.716-72.461-3.095-105.59,8.313-10.732,5.229-51.382,21.695-36.562-4.937,7.873-14.352,28.858-26.224,39.344-10.594,8.8,14.533,14.076-15.751,20.875-20.031,19.368-5.9,5.71-35.57-8.781-18.969-3.18,15.052-13.38,13.27-25.38,11.626-15.215-2.487-23.819,22.981-35.25,12.781C103.875,26.5,120.46,63.968,115.577,78.188c-5.189,19.489-17.793,40.852-38.219,46.719-16.494-8.946-4.235-35.31,2.156-48.562,5.32-10.668,32.428-19.245,14-29.969-16.9-4.942-32.923,9.884-44.562,19.469-15.05,11.3,13.427,5.477,8.625,17.344-5.807,18.34-10.965,49.026,12.031,57.375,25.18,3.608,43.943-20.977,54.406-40.781,6.623,3.747,3.428,31.674,6.813,43.125A248.05,248.05,0,0,0,47.483,177.47c-9.611,7.146-19.832,12.053-7.312,17.469,4.756,7.016.769-.122,5.469.438,32.37-24.682,71.623-40.581,112.34-44.062,15.535-.74,32.893-2.293,47.313-1.187,32.677,2.864,65.735,3.479,97.969,10.344,41.5,6.684,82.864,15.886,125.09,15,14.189-.486,36.861-.021,44.563-9.875,4.689-1.887,2.638-5.962-.375-11.875,5.492-6.748,10.623-7.464,18.844-11.594a45.215,45.215,0,0,0,13.438-11.688c8.619-9.441,10.028-28.4-.594-38.906C496.9,76.81,474.953,70.242,458.1,72.939c-30.937,4.465-5.46,40.3,15.75,31.594-2.462-11.754,12.106-14.42,17.219-.406,6.168,26.681-28.911,37.8-49.562,32.5-34.677-7.981-66.735-24.988-96.375-44.312-4.585-6.562-33.853-12.712-20.562-19.281,14.218-6.47,30.84-11.435,44.125-18,7.993-4.073,25.255-9.814,28.156-13.344,19.91,1.425,36.55-30.225,8.531-31.125C391.963,16.285,395.376,26.191,384.1,27.1c2.351,3.183-15.256,4.052-9.094,8.094-4.956,2.671-6.592-5.617-16.938,3.281-1.9,5-13.2,4.262-23.312,9.813-3.085,1.576-28.316,17.165-28.969,7.531.01-17.43,13.671-37.194,4.687-52.781C307.687.9,305.3-.013,303.26,0ZM471.42,5.469c-13.365.074-17.147,31.405-9.125,39.719,3.609,3.046,8.326,1.23,10.187-2.094-.944-9.429,6.388-26.84,1.75-37.219a9.7,9.7,0,0,0-2.812-.406ZM507.639,12.5c-3.289-.1-6.655,2.342-8.594,8.844-2.63,13.913-11.466,28.977-3.906,39.875l1.125.188c11.837,1.058,11.767-14.218,16.812-27.125,8.768-8.979,1.8-21.557-5.437-21.781Zm-264,47.844A68.884,68.884,0,0,1,267.858,64.5c24.163,7.26,18.4,38.23,5.938,52.844-15.694,13.881-35.612,27.017-57.563,22.281-21.239-13.885,18.048-34.146,4.813-47.031-17.91,2.749-23.136,32.09-44.313,33.938,2.648,3.912,1.788,16.352-12.75,12.688-22.3,9.678-19.369-15.791-22.625-29.594-11.048-24.394,15.265-23,31.125-29.719,22.44-8.341,46.828-19.491,71.156-19.562ZM301.7,88.906c25.062,8.794,47.005,24.388,70.781,35.969,22.82,9.619,45.174,22.033,70.156,25.969,25.335,2.706-8.954,9.833-17.656,9.625-52.852,4.968-104.58-8.716-156.5-16-21.754.084.048-7.917,6.688-14.656,14.04-11.011,25.767-22.247,26.531-40.906ZM34.481,120.94c-11.218.649,2.14,26.678,8.688,32.344,21.065,5.553-.213-20.344-2.281-30.938a15.611,15.611,0,0,0-6.406-1.406ZM10.262,123.1c-3.228.189-6.1,2.9-7.938,9.437,11.742,11.7,9.764,30.778,21.156,41.656,12.044,1.134,6.58-15.53,5.344-22.281,1.792-10.571-9.637-29.336-18.562-28.812Zm186.41,8.375c5.029-.128,7.973,10.24-.906,7.344-3.607-.7-13.1,2.637-4.469-2.844C193.07,132.721,195,131.514,196.672,131.471Zm-185.04,75.9c-9.665.775-17.525,18.612-5.656,24.562,16.792,6.992,23.472-17.287,9.875-23.75a8.209,8.209,0,0,0-4.219-.812Z" transform="translate(0.008 0)"/></svg>