<?xml version="1.0" encoding="UTF-8" standalone="no"?>
<!-- Created with Inkscape (http://www.inkscape.org/) -->

<svg
   xmlns:dc="http://purl.org/dc/elements/1.1/"
   xmlns:cc="http://creativecommons.org/ns#"
   xmlns:rdf="http://www.w3.org/1999/02/22-rdf-syntax-ns#"
   xmlns:svg="http://www.w3.org/2000/svg"
   xmlns="http://www.w3.org/2000/svg"
   xmlns:sodipodi="http://sodipodi.sourceforge.net/DTD/sodipodi-0.dtd"
   xmlns:inkscape="http://www.inkscape.org/namespaces/inkscape"
   width="136.83713mm"
   height="81.693726mm"
   viewBox="0 0 136.83713 81.693726"
   version="1.1"
   id="svg8"
   inkscape:version="0.92.4 (5da689c313, 2019-01-14)"
   sodipodi:docname="rgpd-photo.svg">
  <defs
     id="defs2">
    <style
       id="style10">.a{fill:#00ff9f;opacity:0.99;}</style>
    <style
       id="style24">.a{fill:#3f3d56;}.b{fill:#fff;}.c{fill:#6c63ff;}.d{fill:#e6e6e6;}</style>
  </defs>
  <sodipodi:namedview
     id="base"
     pagecolor="#ffffff"
     bordercolor="#666666"
     borderopacity="1.0"
     inkscape:pageopacity="0.0"
     inkscape:pageshadow="2"
     inkscape:zoom="0.69154589"
     inkscape:cx="581.8512"
     inkscape:cy="305.59726"
     inkscape:document-units="mm"
     inkscape:current-layer="layer1"
     showgrid="false"
     inkscape:window-width="958"
     inkscape:window-height="991"
     inkscape:window-x="952"
     inkscape:window-y="0"
     inkscape:window-maximized="0"
     inkscape:snap-page="true"
     showguides="true"
     fit-margin-top="0"
     fit-margin-left="0"
     fit-margin-right="0"
     fit-margin-bottom="0" />
  <metadata
     id="metadata5">
    <rdf:RDF>
      <cc:Work
         rdf:about="">
        <dc:format>image/svg+xml</dc:format>
        <dc:type
           rdf:resource="http://purl.org/dc/dcmitype/StillImage" />
        <dc:title></dc:title>
      </cc:Work>
    </rdf:RDF>
  </metadata>
  <g
     inkscape:label="Calque 1"
     inkscape:groupmode="layer"
     id="layer1"
     transform="translate(-6.4207259,-1.2267054)">
    <path
       id="path14"
       d="m 86.663076,21.222468 c -2.33892,0.0175 -2.93423,4.59581 -2.87867,6.953513 -1.27476,2.07751 1.14882,10.87596 -2.52994,7.87956 -8.830743,-5.21653 -19.171983,-0.81889 -27.937363,2.19948 -2.83951,1.38351 -13.59482,5.74013 -9.67369,-1.30625 2.08306,-3.7973 7.63534,-6.93843 10.40976,-2.80299 2.32834,3.84519 3.72428,-4.16746 5.52318,-5.29987 5.12445,-1.561043 1.51077,-9.411233 -2.32331,-5.018883 -0.84137,3.982503 -3.54012,3.51102 -6.71512,3.07604 -4.02564,-0.65802 -6.30211,6.080393 -9.32656,3.381643 -7.30489,-2.05078 -2.91677,7.86262 -4.20873,11.625 -1.37292,5.15646 -4.70773,10.80876 -10.112112,12.36107 -4.364037,-2.36696 -1.12051,-9.34244 0.570442,-12.8487 1.407583,-2.82257 8.57991,-5.0919 3.704166,-7.9293 -4.471458,-1.30757 -8.710877,2.61515 -11.790362,5.15118 -3.981979,2.98979 3.55256,1.44912 2.282031,4.58893 -1.536435,4.85246 -2.901156,12.97146 3.183202,15.18047 6.662213,0.95462 11.626583,-5.55017 14.394923,-10.78997 1.75233,0.99139 0.90699,8.38041 1.8026,11.41015 a 65.629896,65.629896 0 0 0 -22.051429,9.14453 c -2.54291,1.89071 -5.247217,3.18902 -1.934633,4.62201 1.258358,1.85631 0.203464,-0.0323 1.447006,0.11589 8.564562,-6.53045 18.950256,-10.73706 29.723296,-11.65808 4.1103,-0.19579 8.70294,-0.60669 12.51823,-0.31406 8.64579,0.75777 17.392383,0.92049 25.920963,2.73685 10.98021,1.76848 21.924434,4.20317 33.096734,3.96875 3.75417,-0.12858 9.7528,-0.006 11.79062,-2.61276 1.24063,-0.49927 0.69797,-1.57744 -0.0992,-3.14192 1.4531,-1.78541 2.81067,-1.97485 4.98581,-3.06758 a 11.963135,11.963135 0 0 0 3.55547,-3.09245 c 2.28045,-2.49793 2.65325,-7.51417 -0.15716,-10.29388 -1.93887,-3.89573 -7.74568,-5.63351 -12.2047,-4.91993 -8.18541,1.18137 -1.44462,10.66271 4.16719,8.35925 -0.65141,-3.10992 3.20304,-3.81529 4.55586,-0.10742 1.63195,7.05934 -7.64937,10.00125 -13.11328,8.59895 -9.17496,-2.11164 -17.65696,-6.6114 -25.499214,-11.72421 -1.21312,-1.7362 -8.95694,-3.36339 -5.44037,-5.10143 3.76185,-1.71186 8.159754,-3.02551 11.674744,-4.7625 2.11482,-1.07765 6.68205,-2.59662 7.44961,-3.5306 5.26785,0.37703 9.67052,-7.997033 2.25716,-8.235163 -3.55045,1.51342 -2.64742,4.134383 -5.63087,4.374893 0.62204,0.84216 -4.03647,1.07209 -2.40611,2.14153 -1.31128,0.70671 -1.74413,-1.48616 -4.48151,0.8681 -0.50271,1.32292 -3.492504,1.12766 -6.167974,2.59636 -0.81624,0.41698 -7.49194,4.54157 -7.66472,1.99257 0.003,-4.61168 3.61712,-9.840913 1.24011,-13.964973 -0.73742,-0.56568 -1.36898,-0.80724 -1.90873,-0.8038 z m 44.489684,1.447 c -3.53615,0.0196 -4.53681,8.309243 -2.41432,10.508993 0.95488,0.80592 2.20292,0.32544 2.69531,-0.55404 -0.24977,-2.49475 1.69016,-7.101423 0.46302,-9.847533 a 2.5664583,2.5664583 0 0 0 -0.74401,-0.10742 z m 9.58295,1.86029 c -0.87022,-0.0265 -1.76081,0.61965 -2.27383,2.33997 -0.69586,3.681153 -3.03372,7.666843 -1.03347,10.550263 l 0.29766,0.0497 c 3.13187,0.27993 3.11335,-3.76184 4.44817,-7.17682 2.31987,-2.37569 0.47625,-5.703623 -1.43853,-5.762893 z M 70.885703,37.188481 a 18.225558,18.225558 0 0 1 6.407943,1.09961 c 6.39313,1.92088 4.86834,10.11502 1.5711,13.98164 -4.152373,3.67269 -9.422343,7.14825 -15.230213,5.89519 -5.61949,-3.67374 4.7752,-9.03447 1.27344,-12.44362 -4.73869,0.72734 -6.1214,8.49048 -11.72448,8.97943 0.70061,1.03505 0.47307,4.32646 -3.37344,3.35703 -5.90021,2.56064 -5.12471,-4.17804 -5.9862,-7.83008 -2.92311,-6.45425 4.03887,-6.08542 8.23516,-7.86315 5.93725,-2.20689 12.38991,-5.157 18.82669,-5.17578 z m 15.361973,7.55703 c 6.63099,2.32675 12.43674,6.45266 18.727484,9.5168 6.03778,2.54503 11.95228,5.82957 18.5621,6.87097 6.70322,0.71596 -2.36908,2.60164 -4.67148,2.54661 -13.98376,1.31445 -27.670124,-2.30611 -41.407294,-4.23333 -5.755753,0.0222 0.0127,-2.09471 1.76953,-3.87774 3.71475,-2.91332 6.81752,-5.88618 7.01966,-10.82304 z m -70.701694,8.47567 c -2.968096,0.17171 0.566208,7.05855 2.2987,8.55768 5.573447,1.46923 -0.05636,-5.38268 -0.603515,-8.18568 a 4.1304104,4.1304104 0 0 0 -1.694921,-0.372 z m -6.4079438,0.5715 c -0.854075,0.05 -1.613958,0.76729 -2.100263,2.49687 3.1067378,3.09562 2.583392,8.14334 5.5975248,11.02148 3.186642,0.30004 1.740959,-4.10898 1.413934,-5.89518 0.474133,-2.79691 -2.54979,-7.76182 -4.9111958,-7.62317 z m 49.3209748,2.21588 c 1.33059,-0.0339 2.10953,2.70933 -0.23971,1.9431 -0.95435,-0.18521 -3.46604,0.69771 -1.18242,-0.75247 0.46911,-0.86096 0.97975,-1.18031 1.42213,-1.19169 z M 9.5005172,76.090441 c -2.557198,0.20505 -4.636823,4.92442 -1.496483,6.49869 4.4428828,1.84997 6.2102998,-4.57385 2.6127598,-6.28385 a 2.1719646,2.1719646 0 0 0 -1.1162768,-0.21484 z"
       class="a"
       inkscape:connector-curvature="0"
       style="opacity:0.98999999;fill:#00ff9f;stroke-width:0.26458332" />
    <g
       id="g66"
       transform="matrix(0.26458333,0,0,0.26458333,45.830661,1.2267054)">
      <path
         id="path28"
         transform="translate(-204.739,-119.871)"
         d="m 223.811,143.094 a 19.094,19.094 0 0 0 -19.073,19.073 v 219.727 a 19.094,19.094 0 0 0 19.073,19.072 H 385 a 19.094,19.094 0 0 0 19.072,-19.072 V 162.166 A 19.094,19.094 0 0 0 385,143.094 Z"
         class="a"
         inkscape:connector-curvature="0"
         style="fill:#3f3d56" />
      <rect
         id="rect30"
         transform="translate(9.918,36.77)"
         height="230.77901"
         width="179.495"
         class="b"
         x="0"
         y="0"
         style="fill:#ffffff" />
      <rect
         id="rect32"
         transform="translate(33.383,78.135)"
         height="8.7089996"
         width="132.565"
         class="c"
         x="0"
         y="0"
         style="fill:#6c63ff" />
      <rect
         id="rect34"
         transform="translate(33.383,101.359)"
         height="8.7089996"
         width="132.565"
         class="c"
         x="0"
         y="0"
         style="fill:#6c63ff" />
      <rect
         id="rect36"
         transform="translate(33.383,124.582)"
         height="8.7089996"
         width="132.565"
         class="c"
         x="0"
         y="0"
         style="fill:#6c63ff" />
      <rect
         id="rect38"
         transform="translate(33.383,147.805)"
         height="8.7089996"
         width="132.565"
         class="c"
         x="0"
         y="0"
         style="fill:#6c63ff" />
      <rect
         id="rect40"
         transform="translate(33.383,171.028)"
         height="8.7089996"
         width="132.565"
         class="c"
         x="0"
         y="0"
         style="fill:#6c63ff" />
      <rect
         id="rect42"
         transform="translate(33.383,194.251)"
         height="8.7089996"
         width="132.565"
         class="c"
         x="0"
         y="0"
         style="fill:#6c63ff" />
      <rect
         id="rect44"
         transform="translate(33.383,217.474)"
         height="8.7089996"
         width="132.565"
         class="c"
         x="0"
         y="0"
         style="fill:#6c63ff" />
      <rect
         id="rect46"
         transform="rotate(-10.37,272.70204,-177.26619)"
         height="171.814"
         width="133.634"
         class="d"
         x="0"
         y="0"
         style="fill:#e6e6e6" />
      <rect
         id="rect48"
         transform="rotate(-10.37,433.66408,-288.92376)"
         height="6.4840002"
         width="98.694"
         class="c"
         x="0"
         y="0"
         style="fill:#6c63ff" />
      <rect
         id="rect50"
         transform="rotate(-10.37,528.9241,-297.56806)"
         height="6.4840002"
         width="98.694"
         class="c"
         x="0"
         y="0"
         style="fill:#6c63ff" />
      <rect
         id="rect52"
         transform="rotate(-10.37,624.18964,-306.21185)"
         height="6.4840002"
         width="98.694"
         class="c"
         x="0"
         y="0"
         style="fill:#6c63ff" />
      <rect
         id="rect54"
         transform="rotate(-10.37,719.46118,-314.86066)"
         height="6.4840002"
         width="98.694"
         class="c"
         x="0"
         y="0"
         style="fill:#6c63ff" />
      <rect
         id="rect56"
         transform="rotate(-10.37,814.72121,-323.50496)"
         height="6.4840002"
         width="98.694"
         class="c"
         x="0"
         y="0"
         style="fill:#6c63ff" />
      <rect
         id="rect58"
         transform="rotate(-10.37,909.99225,-332.14825)"
         height="6.4840002"
         width="98.694"
         class="c"
         x="0"
         y="0"
         style="fill:#6c63ff" />
      <rect
         id="rect60"
         transform="rotate(-10.37,1005.2528,-340.79806)"
         height="6.4840002"
         width="98.694"
         class="c"
         x="0"
         y="0"
         style="fill:#6c63ff" />
      <path
         id="path62"
         transform="translate(-291.799,-84.754)"
         d="m 424.7,96.849 h -15.818 v -3.238 a 8.857,8.857 0 0 0 -8.857,-8.857 H 382.9 a 8.857,8.857 0 0 0 -8.857,8.858 v 3.238 h -15.812 a 8.857,8.857 0 0 0 -8.857,8.857 v 24.526 h 84.183 V 105.706 A 8.857,8.857 0 0 0 424.7,96.849 Z"
         class="a"
         inkscape:connector-curvature="0"
         style="fill:#3f3d56" />
      <path
         id="path64"
         transform="translate(-345.262,-449.327)"
         d="m 439.25,700.094 c 2.615,-1.79 5.3,-3.651 8.409,-4.465 2.833,-0.742 6.087,-0.546 8.328,1.529 a 5.1,5.1 0 0 1 1.232,6.45 4.1,4.1 0 0 1 -2.716,1.976 3.272,3.272 0 0 1 -2.941,-1.149 3,3 0 0 1 -0.75,-2.947 3.862,3.862 0 0 1 2.474,-2.1 18.317,18.317 0 0 1 3.69,-0.762 l 5.132,-0.7 21.005,-2.876 23.392,-3.2 a 0.731,0.731 0 0 0 0.507,-0.893 0.744,0.744 0 0 0 -0.893,-0.507 l -46.546,6.372 c -1.683,0.23 -3.391,0.4 -5.057,0.734 a 8.506,8.506 0 0 0 -3.631,1.508 4.334,4.334 0 0 0 -0.019,6.735 4.8,4.8 0 0 0 6.912,-0.517 6.267,6.267 0 0 0 0.475,-7.679 9.31,9.31 0 0 0 -9.08,-3.727 c -4.007,0.492 -7.4,2.744 -10.658,4.971 -0.764,0.518 -0.039,1.776 0.735,1.247 z"
         class="a"
         inkscape:connector-curvature="0"
         style="fill:#3f3d56" />
    </g>
  </g>
</svg>
